<svg width="41" height="41" viewBox="0 0 41 41" fill="none" xmlns="http://www.w3.org/2000/svg">
  <path
    d="M0.988281 8.39844C0.988281 3.98016 4.57 0.398438 8.98828 0.398438H32.9883C37.4066 0.398438 40.9883 3.98016 40.9883 8.39844V32.3984C40.9883 36.8167 37.4066 40.3984 32.9883 40.3984H8.98828C4.57 40.3984 0.988281 36.8167 0.988281 32.3984V8.39844Z"
    fill="#0F6E5D" />
  <g clip-path="url(#clip0_1225_2117)">
    <path
      d="M16.8203 18.7318V22.0651H19.3203V27.8984H22.6536V22.0651H25.1536L25.987 18.7318H22.6536V17.0651C22.6536 16.8441 22.7414 16.6321 22.8977 16.4758C23.054 16.3196 23.266 16.2318 23.487 16.2318H25.987V12.8984H23.487C22.3819 12.8984 21.3221 13.3374 20.5407 14.1188C19.7593 14.9002 19.3203 15.96 19.3203 17.0651V18.7318H16.8203Z"
      stroke="#10B981" stroke-width="1.5" stroke-linecap="round" stroke-linejoin="round" />
  </g>
  <defs>
    <clipPath id="clip0_1225_2117">
      <rect width="20" height="20" fill="white" transform="translate(10.9883 10.3984)" />
    </clipPath>
  </defs>
</svg>