<svg width="41" height="41" viewBox="0 0 41 41" fill="none" xmlns="http://www.w3.org/2000/svg">
  <path
    d="M0.957031 8.39844C0.957031 3.98016 4.53875 0.398438 8.95703 0.398438H32.957C37.3753 0.398438 40.957 3.98016 40.957 8.39844V32.3984C40.957 36.8167 37.3753 40.3984 32.957 40.3984H8.95703C4.53875 40.3984 0.957031 36.8167 0.957031 32.3984V8.39844Z"
    fill="#0F6E5D" />
  <g clip-path="url(#clip0_1225_2131)">
    <path
      d="M17.625 19.5664V23.7331M17.625 17.0664V17.0747M20.9583 23.7331V19.5664M24.2917 23.7331V21.2331C24.2917 20.791 24.1161 20.3671 23.8035 20.0546C23.491 19.742 23.067 19.5664 22.625 19.5664C22.183 19.5664 21.759 19.742 21.4465 20.0546C21.1339 20.3671 20.9583 20.791 20.9583 21.2331"
      stroke="#10B981" stroke-width="1.5" stroke-linecap="round" stroke-linejoin="round" />
    <path
      d="M13.457 16.2318C13.457 15.3477 13.8082 14.4999 14.4333 13.8747C15.0585 13.2496 15.9063 12.8984 16.7904 12.8984H25.1237C26.0078 12.8984 26.8556 13.2496 27.4807 13.8747C28.1058 14.4999 28.457 15.3477 28.457 16.2318V24.5651C28.457 25.4492 28.1058 26.297 27.4807 26.9221C26.8556 27.5472 26.0078 27.8984 25.1237 27.8984H16.7904C15.9063 27.8984 15.0585 27.5472 14.4333 26.9221C13.8082 26.297 13.457 25.4492 13.457 24.5651V16.2318Z"
      stroke="#10B981" stroke-width="1.5" stroke-linecap="round" stroke-linejoin="round" />
  </g>
  <defs>
    <clipPath id="clip0_1225_2131">
      <rect width="20" height="20" fill="white" transform="translate(10.957 10.3984)" />
    </clipPath>
  </defs>
</svg>