<svg width="140" height="126" viewBox="0 0 140 126" fill="none" xmlns="http://www.w3.org/2000/svg">
<path d="M7.90039 5.08594C9.36148 3.43395 11.6185 2.82202 13.6504 3.31738C42.8048 7.16754 71.967 10.9513 101.115 14.8926C101.801 14.9785 102.558 15.0511 103.293 15.2461L103.483 15.2969L103.588 15.4629C103.776 15.7617 103.878 16.1367 103.844 16.5C103.809 16.8746 103.622 17.2657 103.212 17.4883L103.129 17.5332L103.034 17.5449C102.316 17.6324 101.579 17.4548 101.028 17.376V17.377C71.4682 13.4796 41.9072 9.56636 12.332 5.80078C10.9644 5.82248 9.60878 6.77907 9.0127 8.17578L9.00293 8.19727C8.43864 9.36166 8.58457 10.7451 8.7168 12.208H8.71582C10.088 27.0646 11.4357 41.9224 12.7715 56.7812L14.1045 71.6406V71.6475L14.1055 71.6553L14.1104 71.7422L14.5391 76.3096C15.5286 86.9698 16.4509 97.6518 17.4473 108.304C17.5009 108.735 17.536 109.17 17.5684 109.595C17.6013 110.028 17.6321 110.45 17.6768 110.868C17.7661 111.704 17.9096 112.488 18.2236 113.21L18.2275 113.217L18.2295 113.225C19.1135 115.435 21.1287 117.042 23.2998 117.37C29.2435 117.462 35.1546 117.209 41.1299 117.163H41.1357C45.5399 117.186 49.9426 117.136 54.3447 117.016H54.3457C57.547 116.937 60.7483 116.937 63.9414 116.933C67.1368 116.928 70.3255 116.918 73.5117 116.82H73.5137C76.6964 116.738 79.8792 116.728 83.0547 116.713C86.2319 116.698 89.4025 116.679 92.5713 116.582C95.2564 116.498 97.9412 116.487 100.619 116.48C103.299 116.474 105.971 116.473 108.642 116.409L111.697 116.338C118.796 116.203 125.821 116.261 132.912 115.991C133.625 115.786 134.213 115.248 134.598 114.521C134.991 113.778 135.151 112.874 135.017 112.038L135.015 112.029L135.014 112.021C133.771 102.118 132.492 92.2215 131.23 82.3193C131.226 82.2835 131.22 82.2313 131.215 82.1836C131.209 82.1338 131.203 82.0876 131.199 82.0576V82.0566C129.787 70.6364 128.311 59.2355 126.883 47.8145C126.779 47.4231 126.882 47.0928 127.022 46.8389C127.093 46.7122 127.175 46.5979 127.243 46.5059C127.318 46.4053 127.372 46.3355 127.421 46.2617L127.561 46.0479L127.815 46.0361C128.4 46.0091 128.818 46.3189 129.056 46.7217C129.27 47.0848 129.346 47.5281 129.331 47.9258C131.32 63.5799 133.293 79.2354 135.288 94.8877L137.295 110.551L137.297 110.567L137.298 110.585C137.327 111.074 137.411 111.5 137.473 112.056C137.529 112.567 137.552 113.124 137.421 113.697C137.227 115.338 136.414 116.958 135.041 117.883L135.04 117.882C133.918 118.705 132.546 118.85 131.351 118.841V118.842C127.551 118.828 123.755 118.837 119.961 118.935L118.335 118.982C115.734 119.067 113.133 119.069 110.542 119.075C107.948 119.081 105.364 119.09 102.782 119.188L102.783 119.189C98.5112 119.359 94.1743 119.246 89.9395 119.331L89.9404 119.332C86.1862 119.465 82.4328 119.498 78.6865 119.524C74.938 119.551 71.1967 119.572 67.457 119.682H67.4551C64.5714 119.751 61.6869 119.751 58.8105 119.753C55.9322 119.755 53.0611 119.761 50.1924 119.844H50.1885C46.6204 119.921 43.0425 120.009 39.46 119.978C33.9482 120.018 28.3619 120.286 22.8145 120.187L22.7715 120.186L22.7295 120.178C20.9362 119.836 19.1437 119.031 17.7979 117.609V117.608C16.2157 116.049 15.2506 113.852 15.0156 111.598V111.591C13.6741 96.7449 12.3133 81.9013 10.9863 67.0566V67.0557C9.35866 48.4411 7.61118 29.8344 5.94531 11.2188V11.2158C5.76465 9.03159 6.36699 6.68672 7.90039 5.08594Z" fill="#EFEAE1" stroke="#10B981"/>
<path d="M110.738 18.6875C111.281 18.8578 111.844 18.9055 112.408 18.8874C112.696 20.9924 112.747 23.1225 113.028 25.2275C113.108 25.8974 112.98 26.6173 113.239 27.2531C114.273 27.5415 115.354 27.4802 116.402 27.7028C116.437 28.3341 116.513 28.9608 116.631 29.5807C114.961 29.4627 113.314 29.072 111.636 29.0562C111.289 26.1313 111.155 23.1861 110.814 20.2589C110.744 19.7389 110.744 19.2121 110.738 18.6875Z" fill="#E8F5F3"/>
<path d="M19.899 20.0269C20.1618 19.6749 20.4899 19.3047 20.9546 19.4705C39.881 21.6437 58.8072 23.7601 77.7334 25.931C81.4346 26.4216 85.1628 26.7213 88.8517 27.3049C89.3164 27.6614 89.7768 28.2132 89.7032 28.8741C89.5098 29.3169 89.1984 29.9027 88.6579 29.7847C81.1738 29.0194 73.6999 28.0429 66.2137 27.3276C66.7476 32.9025 67.3912 38.4638 67.8793 44.0432C68.2701 44.5064 68.9894 44.3679 69.5132 44.5861C73.2858 45.8031 76.5325 48.4897 79.0289 51.7276C78.602 52.2252 78.2444 52.9996 77.6219 53.1721C75.0986 50.2383 71.9881 47.6129 68.2577 46.857C68.3753 49.0435 68.6551 51.2238 68.918 53.399C68.1 53.399 67.2841 53.399 66.4679 53.399C66.2242 51.1806 66.0917 48.9462 65.7467 46.7458C63.5177 46.6954 61.4442 47.9175 59.8332 49.4932C58.149 51.319 57.0869 53.7942 56.9081 56.3625C56.923 57.7226 56.8116 59.1012 57.0636 60.4433C57.1627 61.4082 57.5116 62.3236 57.5623 63.2956C56.9799 63.9811 56.4623 64.7442 55.7557 65.2917C54.7042 62.8505 54.2292 60.1639 54.1932 57.4823C54.2394 53.3697 55.8253 49.1866 58.8028 46.5436C60.5063 45.165 62.5565 44.1409 64.7102 44.0457C64.956 43.9912 65.5071 44.0818 65.4565 43.6459C64.9265 38.1118 64.3463 32.5846 63.8393 27.0506C50.1831 25.4632 36.5097 23.9622 22.843 22.5021C22.8513 24.4141 23.1689 26.3057 23.2764 28.2132C23.6002 31.5355 23.8715 34.8645 24.2267 38.18C28.546 38.4888 32.8507 39.0406 37.1701 39.3722C37.837 39.4176 38.5749 39.7468 38.7749 40.5008C39.0418 43.4936 39.2731 46.4911 39.5211 49.4819C40.4488 50.12 41.481 50.6264 42.2361 51.5279C44.0656 53.5786 45.0497 56.4624 44.9404 59.3034C45.0289 61.563 44.2255 63.8951 42.6251 65.3937C42.1162 65.8501 41.5105 66.1522 40.9598 66.5406C41.0942 67.2719 41.1427 68.0165 41.1572 68.7637C41.2563 69.8444 41.4392 70.9255 41.3488 72.0154C41.3171 72.2995 41.1427 72.531 40.9766 72.7421C39.9775 73.889 39.1387 75.1812 38.1691 76.3575C35.1515 76.2686 32.1507 75.9191 29.1327 75.8193C28.6596 75.8486 28.0878 75.4715 27.6904 75.8579C27.5892 77.9266 28.0415 79.9613 28.1257 82.0207C28.3085 83.3766 28.3442 84.7434 28.5168 86.1014C28.46 87.1892 29.0887 88.4248 28.4495 89.4148C27.7367 90.3663 27.0279 91.3291 26.235 92.2076C24.2205 69.4266 22.1218 46.6568 20.1177 23.8736C20.0377 22.5906 19.8107 21.319 19.899 20.0269ZM24.5213 41.1139C24.7315 44.4497 25.0385 47.7812 25.3561 51.108C25.9764 58.2974 26.6662 65.4847 27.2719 72.6762C28.8953 72.9648 30.5438 72.8738 32.1715 73.1146C34.3164 73.1666 36.4511 73.4871 38.5982 73.4985C39.0775 73.428 38.8 72.8105 38.8506 72.4832C38.022 62.337 37.0586 52.2046 36.2766 42.0563C35.082 42.1042 33.915 41.7792 32.7225 41.7861C31.5428 41.5771 30.3463 41.5953 29.1666 41.4023C27.6147 41.3591 26.0795 41.023 24.5213 41.1139ZM39.8639 52.6451C40.07 56.2535 40.4233 59.8551 40.7409 63.4588C41.6096 62.7116 42.2321 61.6469 42.4506 60.4684C42.8083 59.0307 42.5326 57.5297 42.1814 56.1243C41.807 54.7092 40.8965 53.5647 39.8639 52.6451Z" fill="#EFEAE1"/>
<path d="M116.84 19.5391C117.467 19.5777 118.085 19.7071 118.703 19.8229C118.869 23.211 119.254 26.5787 119.502 29.9599C118.917 29.8396 118.324 29.7919 117.736 29.717C117.458 26.3221 117.286 22.9136 116.84 19.5391Z" fill="#E8F5F3"/>
<path d="M119.781 19.957C120.366 20.0638 121.001 19.9162 121.56 20.1137C122.019 21.3354 122.29 22.6321 122.668 23.8856C122.908 24.887 123.295 25.8476 123.415 26.8808L123.548 26.8967C123.806 24.7417 124.126 22.598 124.41 20.4475C124.982 20.5429 125.552 20.6587 126.13 20.7314C125.695 24.0082 125.274 27.2896 124.814 30.5641C124.134 30.4846 123.451 30.4438 122.789 30.2644C121.827 26.815 120.843 23.3701 119.781 19.957Z" fill="#E8F5F3"/>
<path d="M127.129 20.8359C128.729 21.0108 130.336 21.1516 131.921 21.4513C131.949 22.044 131.983 22.6367 131.993 23.2294C130.994 23.2385 130.018 23.0001 129.03 22.916C129.038 23.6087 129.087 24.299 129.133 24.9893C129.924 25.2664 130.756 25.205 131.566 25.364C131.558 26.0135 131.566 26.6607 131.623 27.3078C130.849 27.2556 130.09 27.0762 129.318 27.0172C129.474 27.7711 129.469 28.5432 129.467 29.313C130.506 29.2835 131.526 29.5287 132.559 29.6264C132.661 30.2463 132.596 30.8799 132.624 31.5066C131.087 31.275 129.535 31.1933 128.008 30.898C127.686 27.5485 127.522 24.1786 127.129 20.8359Z" fill="#E8F5F3"/>
<path d="M24.5195 41.1132C26.0777 41.0223 27.6129 41.3584 29.1648 41.4015C30.3446 41.5946 31.541 41.5764 32.7211 41.7853C33.9132 41.7785 35.0806 42.1033 36.2749 42.0555C37.0572 52.2038 38.0202 62.3366 38.8488 72.4823C38.7982 72.8096 39.0761 73.4271 38.5964 73.4976C36.4493 73.4863 34.315 73.1662 32.1701 73.1137C30.5423 72.8733 28.8935 72.964 27.2702 72.6757C26.6644 65.4838 25.975 58.2965 25.3543 51.1071C25.0367 47.7803 24.7297 44.4488 24.5195 41.1132Z" fill="#0D2128"/>
<path d="M39.8672 52.6445C40.8998 53.5645 41.8103 54.709 42.1847 56.1237C42.5359 57.5291 42.8112 59.0301 42.4539 60.4678C42.235 61.6463 41.6126 62.7115 40.7442 63.4586C40.4266 59.8545 40.0733 56.2529 39.8672 52.6445Z" fill="#0D2128"/>
<path d="M13.6094 71.7908C13.6977 71.7841 13.8743 71.7728 13.9627 71.7656C15.1508 84.9412 16.3137 98.1189 17.5629 111.287C17.7858 114.112 19.8256 116.574 22.3449 117.285C23.8695 117.846 25.4805 117.464 27.047 117.439C32.235 117.457 37.4227 117.355 42.6107 117.367C47.9331 117.067 53.2661 117.251 58.5928 117.151C61.5369 117.119 64.4809 117.185 67.4209 116.992C72.8905 116.953 78.3626 116.962 83.8343 116.896C85.1652 116.803 86.4986 116.697 87.836 116.737C91.6866 116.749 95.539 116.683 99.3896 116.69C106.748 116.347 114.12 116.663 121.481 116.318C125.232 116.24 128.992 116.358 132.738 116.181C133.902 115.932 134.967 114.889 135.091 113.574C135.265 111.969 134.971 110.368 134.773 108.783C133.764 100.303 132.578 91.8491 131.539 83.3764C131.48 82.9858 131.606 82.6158 131.724 82.2571C132.986 92.1579 134.264 102.057 135.507 111.959C135.812 113.854 134.788 116.013 132.99 116.49C124.883 116.801 116.764 116.681 108.653 116.91C103.297 117.037 97.9385 116.914 92.5844 117.083C86.2316 117.278 79.8766 117.158 73.5235 117.321C67.135 117.517 60.7443 117.36 54.3555 117.517C49.9476 117.637 45.5401 117.687 41.1301 117.664C35.1707 117.709 29.2131 117.964 23.2533 117.871C20.8855 117.525 18.7132 115.788 17.7627 113.411C17.075 111.83 17.1591 110.043 16.9467 108.351C15.8069 96.166 14.766 83.9717 13.6094 71.7908Z" fill="#0D2128"/>
<path d="M9.86205 6.67438C10.7179 5.71153 12.0239 5.61164 13.1805 5.75697C29.5182 7.86428 45.862 9.92621 62.1891 12.1358C72.344 13.4279 82.4906 14.8154 92.6455 16.0961C96.1384 16.6502 99.6608 17.0022 103.156 17.5449C102.933 18.8029 102.201 19.843 101.781 21.017C101.619 21.4144 101.446 21.8368 101.124 22.1116C100.761 22.2206 100.374 22.1252 100.006 22.1275C99.9154 22.0003 99.8247 21.8731 99.7388 21.7459C99.5031 22.0184 99.156 21.9935 98.8449 21.9776C96.4538 21.7505 94.0944 21.285 91.7054 21.0375C91.6552 20.992 91.5583 20.8989 91.5077 20.8535C90.6288 20.933 89.7372 20.883 88.8769 20.6559C88.6729 20.5492 88.4922 20.6855 88.324 20.7922C88.2566 20.7195 88.1914 20.6469 88.1262 20.5742C86.4945 20.447 84.8963 20.0133 83.2602 19.9406C81.7038 19.6704 80.1246 19.6114 78.5708 19.3252C76.1039 19.1276 73.6854 18.5236 71.2084 18.426C71.2462 18.3238 71.3238 18.1149 71.3617 18.0104C70.6912 18.6303 69.8352 18.1535 69.074 18.0694C66.9375 17.8946 64.7966 17.6698 62.6917 17.2383C61.2257 17.2997 59.7958 16.8432 58.3323 16.8841C57.4804 16.5594 56.5593 16.691 55.6826 16.5276C52.8037 16.1029 49.9267 15.6601 47.029 15.433C45.4435 15.1446 43.8409 14.997 42.2511 14.754C39.1956 14.5769 36.182 13.9456 33.1331 13.6913C29.1962 13.0759 25.228 12.7375 21.2851 12.1903C19.2684 11.886 17.2286 11.8224 15.2161 11.4908C14.7934 11.3796 14.4548 11.7224 14.11 11.9223C14.131 12.0858 14.152 12.2493 14.1752 12.4128C14.0994 12.4082 13.948 12.4037 13.8723 12.3992C14.2256 14.4861 14.2592 16.6161 14.5452 18.7121C14.6357 19.8838 14.8186 21.0488 14.806 22.2296C15.1803 25.0432 15.2813 27.8909 15.7208 30.6976C15.9227 31.7422 15.7166 32.8277 15.971 33.8632C16.3412 35.5549 16.297 37.3057 16.4463 39.0293C16.7933 41.1207 16.7449 43.2622 17.0919 45.3561C17.1718 47.2498 17.6113 49.1322 17.5293 51.0264C17.9373 53.3014 18.0256 55.6248 18.3095 57.9183C18.8667 63.4883 19.2705 69.0726 19.7731 74.6498C20.0086 76.1916 20.0107 77.7564 20.1853 79.3028C20.2526 80.1179 20.1685 80.9582 20.4544 81.7369C20.3998 81.8187 20.2946 81.9802 20.24 82.0616C20.7404 83.2153 20.6752 84.5414 20.6984 85.7882C21.0538 86.8349 20.9676 87.9639 21.0706 89.0559C21.6489 94.4967 22.1033 99.9467 22.7236 105.383C22.8011 106.076 22.6751 106.78 22.8077 107.468C23.0663 108.717 22.9505 110.059 23.554 111.21C24.1073 111.453 24.6729 111.782 25.2932 111.66C26.9147 111.499 28.538 111.701 30.1614 111.589C34.174 111.696 38.1842 111.401 42.1964 111.512C43.1806 111.51 44.1731 111.351 45.151 111.528C45.9964 111.708 46.8418 111.38 47.6915 111.458C48.7069 111.524 49.725 111.46 50.7408 111.403C52.524 111.414 54.3073 111.433 56.0883 111.337C58.183 111.521 60.2816 111.237 62.3781 111.347C63.7957 111.456 65.2107 111.206 66.626 111.372C69.0004 111.258 71.3788 111.414 73.755 111.287C74.4995 111.417 75.2334 111.237 75.9735 111.206C77.4708 111.335 78.9722 111.253 80.4717 111.274C82.6523 111.135 84.8351 111.24 87.016 111.156C87.0834 111.224 87.2156 111.362 87.283 111.43C87.3293 111.372 87.4218 111.255 87.468 111.197C89.3332 111.197 91.2006 111.16 93.0662 111.149C94.475 111.247 95.882 110.988 97.293 111.097C102.844 110.985 108.4 111.112 113.952 110.961C116.863 111.01 119.769 110.82 122.682 110.922C123.735 110.826 124.793 110.833 125.849 110.919C126.974 110.895 128.105 110.713 129.223 110.958C129.535 110.575 129.978 110.25 130.1 109.736C130.06 108.656 130.035 107.563 129.752 106.521C129.436 103.873 129.06 101.234 128.765 98.582C128.704 97.081 128.244 95.6324 128.275 94.1221C127.951 92.3714 127.834 90.5863 127.56 88.8264C127.352 85.4182 126.553 82.08 126.37 78.6647C126.156 77.7493 125.893 76.8322 125.89 75.8807C125.88 75.6193 125.991 75.431 126.223 75.3106C126.048 75.1902 125.785 75.1788 125.699 74.9586C125.768 74.7702 125.853 74.5907 125.93 74.4069C125.478 73.8187 125.668 73.0124 125.544 72.3152C125.396 71.5252 125.369 70.721 125.287 69.9243C124.797 67.1059 124.58 64.2401 124.116 61.4176C124.103 61.1268 124.208 60.8474 124.261 60.568C123.861 59.9438 123.886 59.1601 123.83 58.436C123.575 57.4547 123.642 56.4194 123.416 55.4339C123.081 54.1304 123.335 52.759 123.016 51.453C122.946 50.8128 122.604 50.095 122.875 49.4754C123.787 49.1322 124.675 48.7236 125.55 48.2764C125.632 48.2806 125.796 48.2898 125.878 48.2965C125.968 48.1287 126.063 47.963 126.16 47.7969C126.252 47.8241 126.433 47.8766 126.523 47.9013C126.702 47.838 126.883 47.7767 127.068 47.7176C127.48 52.0571 128.223 56.3514 128.664 60.6863C129.625 67.8963 130.494 75.1197 131.408 82.3343C131.48 82.2504 131.623 82.0821 131.695 81.9982C131.703 82.0641 131.718 82.1933 131.726 82.2592C131.608 82.6183 131.482 82.9883 131.541 83.3789C132.58 91.8512 133.766 100.306 134.775 108.785C134.973 110.37 135.267 111.971 135.093 113.576C134.969 114.891 133.905 115.934 132.74 116.183C128.994 116.361 125.234 116.242 121.483 116.32C114.123 116.665 106.75 116.349 99.3916 116.692C95.5411 116.685 91.6887 116.751 87.8381 116.74C86.5007 116.699 85.1676 116.806 83.8364 116.899C78.3646 116.964 72.8929 116.956 67.423 116.994C64.4833 117.187 61.5393 117.121 58.5949 117.153C53.2685 117.253 47.9355 117.069 42.6127 117.369C37.4251 117.357 32.2371 117.459 27.0491 117.441C25.4826 117.467 23.8716 117.848 22.347 117.287C19.8278 116.576 17.788 114.115 17.565 111.29C16.3159 98.121 15.153 84.9433 13.9648 71.7681C13.8765 71.7748 13.6999 71.7861 13.6115 71.7928L13.6052 71.6884C13.683 71.6364 13.8345 71.5294 13.9102 71.4753C13.0227 61.8195 12.2341 52.1503 11.2983 42.497C10.4929 33.2614 9.58447 24.0327 8.80849 14.7949C8.66127 13.3597 8.49726 11.9246 8.37109 10.4871C8.37739 9.07012 8.80638 7.58727 9.86205 6.67438Z" fill="#172930"/>
<path d="M9.86205 6.67438C10.7179 5.71153 12.0239 5.61164 13.1805 5.75697C29.5182 7.86428 45.862 9.92621 62.1891 12.1358C72.344 13.4279 82.4905 14.8154 92.6455 16.0961C96.1384 16.6502 99.6608 17.0022 103.156 17.5449C102.933 18.8029 102.201 19.843 101.781 21.017C101.619 21.4144 101.446 21.8368 101.124 22.1116C100.761 22.2206 100.374 22.1252 100.006 22.1275C99.9154 22.0003 99.8247 21.8731 99.7387 21.7459C99.5031 22.0184 99.156 21.9935 98.8449 21.9776C96.4538 21.7505 94.0944 21.285 91.7054 21.0375C91.6552 20.992 91.5583 20.8989 91.5076 20.8535C90.6288 20.933 89.7372 20.883 88.8769 20.6559C88.6729 20.5492 88.4922 20.6855 88.324 20.7922C88.2566 20.7195 88.1914 20.6469 88.1262 20.5742C86.4945 20.447 84.8962 20.0133 83.2602 19.9406C81.7038 19.6704 80.1246 19.6114 78.5708 19.3252C76.1039 19.1276 73.6854 18.5236 71.2083 18.426C71.2462 18.3238 71.3238 18.1149 71.3617 18.0104C70.6912 18.6303 69.8352 18.1535 69.074 18.0694C66.9375 17.8946 64.7965 17.6698 62.6917 17.2383C61.2257 17.2997 59.7958 16.8432 58.3323 16.8841C57.4804 16.5594 56.5593 16.691 55.6826 16.5276C52.8037 16.1029 49.9267 15.6601 47.029 15.433C45.4435 15.1446 43.8409 14.997 42.2511 14.754C39.1956 14.5769 36.182 13.9456 33.1331 13.6913C29.1962 13.0759 25.228 12.7375 21.2851 12.1903C19.2684 11.886 17.2286 11.8224 15.2161 11.4908C14.7934 11.3796 14.4548 11.7224 14.11 11.9223C14.131 12.0858 14.152 12.2493 14.1752 12.4128C14.0994 12.4082 13.948 12.4037 13.8723 12.3992C14.2256 14.4861 14.2592 16.6161 14.5452 18.7121C14.6357 19.8838 14.8186 21.0488 14.806 22.2296C15.1803 25.0432 15.2813 27.8909 15.7208 30.6976C15.9227 31.7422 15.7166 32.8277 15.971 33.8632C16.3412 35.5549 16.297 37.3058 16.4463 39.0293C16.7933 41.1207 16.7449 43.2622 17.0919 45.3561C17.1718 47.2498 17.6113 49.1322 17.5293 51.0264C17.9373 53.3014 18.0256 55.6248 18.3095 57.9183C18.8667 63.4883 19.2705 69.0726 19.7731 74.6498C20.0086 76.1916 20.0107 77.7564 20.1853 79.3028C20.2526 80.1179 20.1685 80.9582 20.4544 81.7369C20.3998 81.8187 20.2946 81.9802 20.24 82.0616C20.7404 83.2153 20.6752 84.5414 20.6984 85.7882C21.0538 86.8349 20.9676 87.9639 21.0706 89.0559C21.6489 94.4967 22.1033 99.9468 22.7236 105.383C22.8011 106.076 22.6751 106.78 22.8077 107.468C23.0663 108.717 22.9505 110.059 23.554 111.21C24.1072 111.453 24.6729 111.782 25.2932 111.66C26.9147 111.499 28.538 111.701 30.1614 111.589C34.174 111.696 38.1841 111.401 42.1964 111.512C43.1806 111.51 44.1731 111.351 45.151 111.528C45.9964 111.708 46.8418 111.38 47.6915 111.458C48.7069 111.524 49.725 111.46 50.7408 111.403C52.524 111.414 54.3073 111.433 56.0883 111.337C58.183 111.521 60.2816 111.237 62.3781 111.347C63.7957 111.456 65.2107 111.206 66.626 111.372C69.0004 111.258 71.3788 111.414 73.755 111.287C74.4995 111.417 75.2334 111.237 75.9735 111.206C77.4708 111.335 78.9721 111.253 80.4717 111.274C82.6523 111.135 84.8351 111.24 87.016 111.156C87.0834 111.224 87.2156 111.362 87.283 111.43C87.3293 111.372 87.4218 111.255 87.468 111.197C89.3332 111.197 91.2006 111.16 93.0662 111.149C94.475 111.247 95.882 110.988 97.293 111.097C102.844 110.985 108.4 111.112 113.952 110.961C116.863 111.01 119.769 110.82 122.682 110.922C123.735 110.826 124.793 110.833 125.849 110.919C126.974 110.895 128.105 110.713 129.223 110.958C129.535 110.575 129.978 110.25 130.1 109.736C130.06 108.656 130.035 107.563 129.752 106.521C129.436 103.873 129.06 101.234 128.765 98.582C128.704 97.081 128.244 95.6324 128.275 94.1221C127.951 92.3714 127.834 90.5863 127.56 88.8264C127.352 85.4182 126.553 82.08 126.37 78.6647C126.156 77.7493 125.893 76.8322 125.89 75.8807C125.88 75.6193 125.991 75.431 126.223 75.3106C126.048 75.1902 125.785 75.1788 125.699 74.9586C125.768 74.7702 125.853 74.5907 125.93 74.4069C125.478 73.8187 125.667 73.0124 125.544 72.3152C125.396 71.5252 125.369 70.721 125.287 69.9243C124.797 67.1059 124.58 64.2401 124.116 61.4176C124.103 61.1268 124.208 60.8474 124.261 60.568C123.861 59.9438 123.886 59.1601 123.83 58.436C123.575 57.4547 123.642 56.4194 123.416 55.4339C123.081 54.1304 123.335 52.759 123.016 51.453C122.946 50.8128 122.604 50.095 122.875 49.4754C123.787 49.1322 124.675 48.7236 125.55 48.2764C125.632 48.2806 125.796 48.2898 125.878 48.2965C125.968 48.1287 126.063 47.963 126.16 47.7969C126.252 47.8241 126.433 47.8766 126.523 47.9013C126.702 47.838 126.883 47.7767 127.068 47.7176C127.48 52.0571 128.223 56.3514 128.664 60.6863C129.625 67.8963 130.494 75.1197 131.408 82.3343C131.48 82.2503 131.623 82.0821 131.695 81.9982C131.703 82.0641 131.718 82.1933 131.726 82.2592C131.608 82.6183 131.482 82.9883 131.541 83.3789C132.58 91.8512 133.766 100.306 134.775 108.785C134.973 110.37 135.267 111.971 135.093 113.576C134.969 114.891 133.905 115.934 132.74 116.183C128.994 116.361 125.234 116.242 121.483 116.32C114.123 116.665 106.75 116.349 99.3916 116.692C95.5411 116.685 91.6887 116.751 87.8381 116.74C86.5007 116.699 85.1676 116.806 83.8364 116.899C78.3646 116.964 72.8929 116.956 67.423 116.994C64.4833 117.187 61.5393 117.121 58.5949 117.153C53.2685 117.253 47.9355 117.069 42.6127 117.369C37.4251 117.357 32.2371 117.459 27.0491 117.441C25.4826 117.467 23.8716 117.848 22.347 117.287C19.8278 116.576 17.788 114.115 17.565 111.29C16.3159 98.121 15.153 84.9433 13.9648 71.7681C13.8765 71.7748 13.6999 71.7861 13.6115 71.7928L13.6052 71.6884C13.683 71.6364 13.8345 71.5294 13.9102 71.4753C13.0227 61.8195 12.2341 52.1503 11.2983 42.497C10.4929 33.2614 9.58447 24.0327 8.80849 14.7949C8.66127 13.3597 8.49726 11.9246 8.37109 10.4871C8.37739 9.07012 8.80638 7.58727 9.86205 6.67438Z" fill="#172930"/>
<path d="M116.688 9.2627C119.664 8.60257 122.789 9.44096 125.431 11.0264V11.0273C128.893 13.1754 131.668 16.5236 133.452 20.3789L133.796 21.1562C134.964 24.0663 135.65 27.2977 135.181 30.4463V30.4502C134.777 33.6656 133.248 36.7963 130.809 38.708L130.569 38.8896C127.772 40.9499 124.153 41.4377 120.904 40.4814V40.4805L120.896 40.4785C116.939 39.5301 113.534 36.7227 111.146 33.2207H111.147C109.061 30.0593 107.547 26.3383 107.413 22.4355L107.404 22.0576C107.371 18.8438 108.545 15.7133 110.336 13.1709C111.908 11.0889 114.239 9.72208 116.682 9.26367V9.26465L116.688 9.2627ZM126.964 20.8545C127.357 24.1982 127.519 27.5499 127.843 30.9131L127.854 31.0361L127.977 31.0596C128.747 31.2085 129.522 31.3033 130.293 31.3896C131.066 31.4762 131.834 31.5538 132.599 31.6689L132.797 31.6992L132.788 31.499C132.775 31.1904 132.784 30.8844 132.784 30.5635C132.784 30.2469 132.775 29.9223 132.721 29.5986L132.7 29.4736L132.573 29.4619L132.19 29.4189C131.808 29.3715 131.427 29.3109 131.037 29.2578C130.575 29.1951 130.106 29.1467 129.631 29.1475C129.632 28.5052 129.626 27.8491 129.518 27.2012C129.825 27.2329 130.132 27.2792 130.444 27.3271C130.826 27.3858 131.216 27.445 131.611 27.4717L131.804 27.4854L131.787 27.293C131.731 26.6537 131.722 26.0122 131.73 25.3652L131.732 25.2285L131.598 25.2012C131.182 25.1196 130.758 25.0941 130.357 25.0557C129.988 25.0202 129.633 24.9707 129.289 24.8633C129.249 24.2726 129.211 23.686 129.198 23.0986C129.624 23.1426 130.049 23.2095 130.484 23.2705C130.978 23.3397 131.482 23.3982 131.994 23.3936L132.16 23.3926L132.157 23.2256C132.147 22.63 132.113 22.0334 132.086 21.4434L132.079 21.3125L131.951 21.2891L131.353 21.1826C129.954 20.9513 128.542 20.8234 127.146 20.6709L126.94 20.6484L126.964 20.8545ZM119.619 20.0059C120.68 23.4165 121.664 26.8599 122.625 30.3086L122.65 30.3984L122.74 30.4229C123.418 30.6065 124.123 30.6495 124.79 30.7275L124.95 30.7461L124.973 30.5869C125.433 27.3116 125.854 24.0287 126.289 20.7529L126.311 20.5879L126.146 20.5674C125.571 20.4952 125.012 20.3809 124.432 20.2842L124.264 20.2559L124.241 20.4258C123.987 22.3499 123.705 24.2766 123.463 26.208C123.4 25.9087 123.323 25.6145 123.24 25.3252C123.133 24.9496 123.019 24.5849 122.919 24.2168L122.824 23.8467L122.822 23.8369L122.556 22.8984C122.299 21.949 122.055 20.9749 121.71 20.0557L121.683 19.9834L121.61 19.958L121.494 19.9209C121.222 19.8457 120.941 19.8369 120.676 19.8359C120.365 19.8348 120.079 19.8439 119.806 19.7939L119.538 19.7451L119.619 20.0059ZM116.675 19.5605C117.12 22.9296 117.292 26.3287 117.57 29.7305L117.581 29.8633L117.714 29.8799C118.313 29.9561 118.891 30.0024 119.468 30.1211L119.682 30.165L119.665 29.9473C119.416 26.5554 119.032 23.2016 118.866 19.8145L118.86 19.6846L118.732 19.6602L117.801 19.4893C117.486 19.4369 117.168 19.3937 116.849 19.374L116.649 19.3613L116.675 19.5605ZM110.573 18.6895C110.578 19.0801 110.579 19.4805 110.609 19.8809L110.65 20.2803C110.82 21.7396 110.938 23.2044 111.058 24.6719C111.177 26.1391 111.298 27.6095 111.472 29.0752L111.489 29.2197L111.635 29.2207C112.462 29.2286 113.285 29.3291 114.114 29.4434C114.941 29.5572 115.777 29.6856 116.619 29.7451L116.833 29.7598L116.793 29.5498C116.677 28.9372 116.602 28.3176 116.566 27.6934L116.559 27.5674L116.436 27.541C115.9 27.4272 115.356 27.386 114.83 27.3379C114.327 27.2919 113.839 27.2367 113.362 27.1123C113.268 26.8443 113.241 26.5559 113.231 26.248C113.222 25.9199 113.233 25.5523 113.192 25.208L113.191 25.2051C113.051 24.1578 112.969 23.1035 112.885 22.0439C112.801 20.9859 112.716 19.9221 112.571 18.8643L112.551 18.7178L112.402 18.7217C111.851 18.7394 111.307 18.6925 110.787 18.5293L110.57 18.4619L110.573 18.6895Z" fill="#0F6E5D" stroke="#10B981" stroke-width="0.33"/>
<path d="M104.899 34.9385C104.897 35.7256 104.901 36.5194 104.977 37.3105V37.3135C105.087 38.2816 105.105 39.2564 105.117 40.2393C105.129 41.2197 105.135 42.2101 105.221 43.1973V43.2002C105.294 43.9035 105.304 44.6109 105.316 45.3271C105.329 46.0407 105.345 46.7628 105.436 47.4824V47.4844C105.507 48.0075 105.514 48.5365 105.524 49.0791C105.532 49.4804 105.543 49.8886 105.588 50.2969C104.229 49.1916 102.919 48.0214 101.574 46.8818L101.433 46.7627L101.33 46.916C97.6263 52.4525 94.1022 58.1493 90.4736 63.7422L90.4727 63.7441C87.7367 68.0605 84.9904 72.3705 82.248 76.6855C82.1287 76.8473 82.0297 77.0546 81.9414 77.21C81.8693 77.3368 81.7982 77.4389 81.7178 77.5137C80.5784 76.5517 79.4611 75.5545 78.3438 74.5527C77.1947 73.5225 76.0445 72.4879 74.873 71.4844H74.874C73.4255 70.1905 71.9051 69.0512 70.5889 67.6387L70.4531 67.4932L70.335 67.6543C67.9065 70.9623 65.6615 74.4311 63.3564 77.834L62.3643 79.2871C60.0118 82.6868 57.6859 86.1087 55.3965 89.5615C52.9867 87.5791 50.654 85.4858 48.292 83.4258L48.1514 83.3037L48.0469 83.457C45.8311 86.7241 43.4472 89.8234 41.1768 93.0615C38.4165 96.8974 35.6791 100.747 32.8896 104.557C31.0841 104.537 29.3016 104.578 27.5059 104.531C27.4818 103.453 27.3826 102.385 27.25 101.321V101.314L27.248 101.308L27.2275 101.177C27.2002 100.878 27.3059 100.614 27.4746 100.353C27.5719 100.202 27.6877 100.057 27.8076 99.9072C27.9239 99.7621 28.045 99.611 28.1475 99.457C31.2813 95.1508 34.3716 90.8071 37.46 86.4639C40.5136 82.1694 43.565 77.8746 46.6562 73.6143C48.9765 75.6412 51.2953 77.6753 53.6523 79.6523L53.752 79.7354L53.8564 79.6592C54.0507 79.516 54.1922 79.3222 54.3135 79.1348C54.377 79.0366 54.4334 78.9428 54.4893 78.8535L54.6631 78.5977L54.6689 78.5889C59.199 71.7968 63.7472 65.0185 68.3809 58.3125C68.6184 58.3147 68.8419 58.3114 69.0557 58.3496C69.2874 58.3911 69.4897 58.479 69.6514 58.667L69.6582 58.6758L69.667 58.6836C72.9929 61.6132 76.3845 64.4338 79.6514 67.4258L79.748 67.5146L79.8555 67.4404C80.1294 67.253 80.3385 67.0045 80.5186 66.7471C80.6087 66.6182 80.6935 66.4846 80.7754 66.3545C80.8579 66.2234 80.9374 66.0961 81.0205 65.9736L81.0225 65.9707C86.1645 58.053 91.149 50.0216 96.5908 42.3496L96.6738 42.2324L96.5684 42.1338C95.9375 41.5453 95.2651 41.0114 94.6045 40.4775C94.0118 39.9985 93.4296 39.5167 92.8818 38.9932C96.8825 37.6184 100.88 36.2387 104.899 34.9385Z" fill="#0F6E5D" stroke="#10B981" stroke-width="0.33"/>
<path d="M101.439 55.0352C103.009 55.1384 104.547 55.1419 106.09 55.3506L106.101 55.3516H106.111C107.464 55.3556 108.812 55.4202 110.152 55.6006C111.081 63.9531 111.964 72.3096 112.866 80.665V80.666C113.774 88.495 114.542 96.3294 115.428 104.164C112.523 104.143 109.638 104.203 106.741 104.142C106.48 101.214 106.008 96.9183 105.597 93.332C105.388 91.508 105.194 89.8667 105.054 88.6816C104.983 88.0891 104.925 87.6107 104.886 87.2803C104.866 87.1153 104.85 86.9873 104.84 86.9004C104.835 86.8569 104.831 86.823 104.828 86.8008C104.827 86.7901 104.826 86.7819 104.825 86.7764C104.825 86.7735 104.824 86.771 104.824 86.7695V86.7676L104.823 86.7617C104.823 86.7569 104.822 86.7497 104.821 86.7402C104.819 86.7209 104.816 86.6919 104.812 86.6543C104.803 86.5788 104.791 86.4669 104.775 86.3232C104.744 86.0359 104.698 85.6197 104.641 85.1045C104.527 84.0738 104.369 82.6464 104.195 81.0605C103.848 77.8889 103.436 74.0831 103.174 71.5449V71.542L102.939 69.458C102.713 67.3724 102.507 65.2839 102.3 63.1943C102.031 60.4739 101.759 57.7518 101.439 55.0352Z" fill="#0F6E5D" stroke="#10B981" stroke-width="0.33"/>
<path d="M97.7979 69.458C98.3419 73.7051 98.6664 77.9752 99.0762 82.2451L99.2598 84.0957C99.9637 90.7729 100.537 97.4823 101.294 104.156C98.5582 104.172 95.8064 104.139 93.0684 104.172C92.9832 104.162 92.8984 104.161 92.8203 104.165C92.7267 104.17 92.6552 104.177 92.5732 104.179C92.4476 104.182 92.3542 104.169 92.2793 104.129C92.1184 102.246 91.9526 100.363 91.7832 98.4805L90.7422 87.0273C90.5709 85.1183 90.4032 83.2089 90.2412 81.2988L90.2402 81.2949C89.8956 78.0583 89.5835 74.8199 89.3359 71.5732C89.7947 70.8761 90.2507 70.1753 90.6885 69.458H97.7979Z" fill="#0F6E5D" stroke="#10B981" stroke-width="0.33"/>
<path d="M73.3584 75.8223C74.805 77.0212 76.2053 78.2863 77.6045 79.5596C79.1028 80.923 80.6015 82.2953 82.1523 83.5957L82.3018 83.7207L82.4004 83.5527C82.8771 82.7424 83.34 81.9305 83.8721 81.1768C84.5884 88.8415 85.4516 96.4895 86.2793 104.139C82.9671 104.199 79.6533 104.158 76.334 104.164C76.2949 104.078 76.2747 103.975 76.2627 103.854C76.2549 103.774 76.2514 103.697 76.2451 103.61C76.2394 103.531 76.2316 103.446 76.2168 103.363C75.2461 94.2001 74.3294 84.9882 73.3584 75.8223Z" fill="#0F6E5D" stroke="#10B981" stroke-width="0.33"/>
<path d="M68.7295 84.4463C69.2293 91.0338 69.9558 97.6021 70.6289 104.165C67.3078 104.171 63.9775 104.153 60.6543 104.163C60.2361 99.579 59.8726 94.9811 59.4033 90.3975C59.4043 90.2999 59.4417 90.2089 59.5049 90.1055C59.5372 90.0526 59.5726 90.0008 59.6123 89.9434C59.6478 89.8919 59.6856 89.8352 59.7197 89.7764C60.952 88.018 62.1766 86.2508 63.3535 84.4463H68.7295Z" fill="#0F6E5D" stroke="#10B981" stroke-width="0.33"/>
<path d="M54.4268 94.8916C54.5511 97.9878 54.8722 101.082 55.0889 104.163C51.8435 104.127 48.619 104.238 45.3936 104.093C45.2693 101.018 44.9585 97.9499 44.752 94.8916H54.4268Z" fill="#0F6E5D" stroke="#10B981" stroke-width="0.33"/>
<path d="M6.41362 1.89519C8.03918 0.410058 10.2388 -0.148568 12.3291 0.0330994C24.8772 1.7226 37.4357 3.34398 49.9817 5.04257C67.2154 7.37928 84.453 9.69099 101.688 12.0095C104.532 12.3274 107.354 12.8497 110.205 13.0723C108.397 15.6383 107.206 18.8039 107.24 22.0603C107.286 26.1409 108.845 30.0309 111.01 33.3123C113.414 36.8389 116.85 39.6797 120.859 40.6403C124.152 41.6099 127.826 41.1171 130.669 39.0234C130.98 42.693 131.594 46.3265 131.993 49.9873C134.605 70.4315 137.141 90.8872 139.797 111.327C140.287 114.027 139.661 116.931 138.184 119.166C137.299 120.499 136.037 121.448 134.725 122.232C133.033 123.749 130.721 123.839 128.629 123.837C124.07 123.96 119.512 124.044 114.954 124.037C108.651 124.341 102.342 124.16 96.0401 124.382C91.4071 124.559 86.7724 124.4 82.1398 124.562C75.9761 124.786 69.8061 124.607 63.6402 124.825C57.8971 125.025 52.1456 124.802 46.4047 125.077C43.3871 125.147 40.3695 125.168 37.3515 125.161C31.8128 125.309 26.2755 125.431 20.7366 125.383C18.8587 125.483 16.9724 124.938 15.3216 123.985C13.2144 122.772 11.6015 120.744 10.4849 118.496C9.78881 116.945 9.21679 115.288 9.16843 113.548C8.03496 101.372 6.99193 89.1931 5.81429 77.0214C4.03101 57.717 2.32345 38.4103 0.554887 19.1059C0.420306 17.3619 0.163748 15.6315 0.100664 13.8807C-0.29889 10.8332 0.491804 7.53824 2.45803 5.26286C3.55784 3.86855 5.07826 2.98746 6.41362 1.89519ZM8.27469 5.41955C6.85313 6.8933 6.27062 9.09149 6.44305 11.1761C8.10857 29.7879 9.85608 48.3998 11.4838 67.0137C12.8107 81.8581 14.1713 96.7005 15.5129 111.547C15.7379 113.707 16.6632 115.798 18.1605 117.268C19.4181 118.596 21.1067 119.361 22.8226 119.688C28.368 119.788 33.9136 119.52 39.4589 119.479C43.0338 119.511 46.6047 119.422 50.1773 119.345C55.931 119.18 61.6886 119.323 67.4423 119.184C74.9351 118.964 82.4297 119.1 89.9226 118.834C94.2018 118.748 98.4837 118.862 102.763 118.691C107.947 118.494 113.135 118.653 118.318 118.485C122.663 118.342 127.008 118.328 131.352 118.344C132.525 118.353 133.77 118.205 134.761 117.47C135.995 116.638 136.755 115.151 136.929 113.612C137.167 112.61 136.858 111.613 136.799 110.616C134.109 89.7335 131.485 68.842 128.831 47.9547C128.871 47.2733 128.572 46.5035 127.838 46.5375C127.603 46.8966 127.218 47.2347 127.375 47.7298C128.803 59.1543 130.282 70.57 131.695 81.997C131.623 82.0809 131.481 82.2487 131.409 82.3331C130.494 75.1185 129.626 67.8951 128.665 60.6851C128.223 56.3498 127.481 52.0559 127.068 47.7164C126.883 47.7751 126.703 47.8368 126.524 47.9001C126.433 47.8754 126.252 47.8229 126.16 47.7957C126.063 47.9614 125.969 48.1271 125.878 48.2953C125.796 48.2886 125.632 48.2794 125.55 48.2747C124.675 48.7224 123.788 49.131 122.875 49.4738C122.604 50.0938 122.947 50.8112 123.016 51.4518C123.336 52.7574 123.081 54.1292 123.416 55.4327C123.643 56.4182 123.575 57.4535 123.83 58.4344C123.887 59.1589 123.861 59.9426 124.261 60.5668C124.208 60.8462 124.103 61.1256 124.116 61.4164C124.581 64.2389 124.797 67.1047 125.287 69.9227C125.369 70.7198 125.397 71.5236 125.544 72.314C125.668 73.0112 125.478 73.8171 125.931 74.4053C125.853 74.5895 125.769 74.7686 125.7 74.9574C125.786 75.1776 126.049 75.189 126.223 75.3094C125.992 75.4298 125.88 75.6181 125.891 75.8791C125.893 76.8306 126.156 77.7481 126.37 78.663C126.553 82.0784 127.352 85.4166 127.56 88.8252C127.834 90.5851 127.952 92.3702 128.275 94.1209C128.244 95.6312 128.704 97.0798 128.766 98.5808C129.06 101.233 129.436 103.872 129.752 106.52C130.036 107.562 130.061 108.654 130.101 109.735C129.979 110.248 129.535 110.573 129.224 110.957C128.105 110.711 126.974 110.893 125.849 110.918C124.793 110.832 123.735 110.825 122.682 110.921C119.769 110.818 116.863 111.009 113.953 110.959C108.401 111.111 102.845 110.984 97.2934 111.095C95.8824 110.986 94.4754 111.245 93.0666 111.148C91.201 111.159 89.3336 111.195 87.4684 111.195C87.4222 111.254 87.3297 111.37 87.2834 111.429C87.216 111.361 87.0834 111.222 87.0164 111.154C84.8354 111.238 82.6527 111.134 80.472 111.272C78.9725 111.252 77.4712 111.334 75.9739 111.204C75.2338 111.236 74.4999 111.416 73.7554 111.286C71.3792 111.413 69.0004 111.257 66.6264 111.37C65.2111 111.204 63.796 111.454 62.3785 111.345C60.282 111.236 58.1833 111.52 56.0887 111.336C54.3076 111.431 52.5244 111.413 50.7412 111.402C49.7253 111.459 48.7073 111.522 47.6919 111.456C46.8421 111.379 45.9968 111.706 45.1514 111.527C44.1735 111.35 43.181 111.509 42.1968 111.511C38.1845 111.4 34.1741 111.695 30.1618 111.588C28.5384 111.699 26.9151 111.497 25.2935 111.659C24.6733 111.781 24.1076 111.452 23.5544 111.209C22.9508 110.058 23.0667 108.716 22.8081 107.467C22.6755 106.778 22.8015 106.074 22.7239 105.382C22.1033 99.9455 21.6493 94.4955 21.0709 89.0547C20.9679 87.9622 21.0541 86.8337 20.6987 85.787C20.6756 84.5402 20.7408 83.2141 20.2403 82.0604C20.295 81.9786 20.4001 81.8175 20.4548 81.7356C20.1688 80.9566 20.2529 80.1167 20.1856 79.3011C20.0111 77.7548 20.009 76.1904 19.7734 74.6482C19.2708 69.071 18.8671 63.4871 18.3098 57.9167C18.0259 55.6231 17.9376 53.3002 17.5296 51.0247C17.6117 49.131 17.1721 47.2486 17.0922 45.3544C16.7452 43.261 16.7936 41.1194 16.4466 39.028C16.2973 37.3044 16.3415 35.5536 15.9714 33.8618C15.7169 32.8263 15.923 31.7408 15.7211 30.6963C15.2816 27.8895 15.1807 25.0419 14.8064 22.2283C14.819 21.0474 14.636 19.8825 14.5456 18.7108C14.2596 16.6148 14.2259 14.4847 13.8727 12.3978C13.9484 12.4024 14.0998 12.4069 14.1755 12.4114C14.1524 12.2479 14.1313 12.0845 14.1103 11.921C14.4552 11.7211 14.7937 11.3782 15.2164 11.4895C17.2289 11.821 19.2687 11.8846 21.2854 12.1889C25.2283 12.7362 29.1966 13.0745 33.1331 13.6899C36.1824 13.9443 39.196 14.5756 42.2514 14.7527C43.8413 14.9957 45.4439 15.1433 47.0293 15.4317C49.9271 15.6588 52.8041 16.1016 55.6829 16.5262C56.5596 16.6897 57.4808 16.558 58.3327 16.8827C59.7961 16.8419 61.2261 17.2983 62.6917 17.237C64.7969 17.6685 66.9378 17.8932 69.0744 18.0681C69.8356 18.1521 70.6915 18.629 71.3621 18.0091C71.3242 18.1135 71.2466 18.3225 71.2087 18.4247C73.6858 18.5223 76.1043 19.1263 78.5712 19.3239C80.1249 19.61 81.7042 19.6691 83.2605 19.9393C84.8966 20.012 86.4949 20.4457 88.1266 20.5728C88.1918 20.6455 88.257 20.7182 88.3244 20.7909C88.4926 20.6841 88.6733 20.5479 88.8773 20.6546C89.7375 20.8817 90.6292 20.9317 91.508 20.8522C91.5587 20.8976 91.6552 20.9907 91.7058 21.0361C94.0948 21.2836 96.4542 21.7491 98.8453 21.9762C99.1564 21.9921 99.5035 22.0171 99.7391 21.7446C99.8251 21.8718 99.9154 21.9989 100.006 22.1261C100.374 22.1238 100.761 22.2192 101.125 22.1102C101.447 21.8354 101.619 21.4131 101.781 21.0157C102.201 19.8416 102.933 18.8016 103.156 17.5436C99.6612 17.0008 96.1388 16.6489 92.6459 16.0947C82.4909 14.814 72.3444 13.4265 62.1894 12.1344C45.8624 9.92487 29.5185 7.86295 13.1808 5.75563C12.0242 5.61027 10.7183 5.7102 9.86238 6.67305C8.80671 7.58594 8.37773 9.06879 8.37143 10.4858C8.4976 11.9232 8.66164 13.3584 8.80883 14.7936C9.58481 24.0314 10.4933 33.26 11.2987 42.4954C12.2345 52.1491 13.0231 61.8183 13.9105 71.4736C13.8348 71.5282 13.6834 71.6352 13.6056 71.6872C11.8328 51.8743 10.0474 32.0633 8.21791 12.2548C8.08963 10.8355 7.91509 9.29588 8.55227 7.98104C9.22102 6.41416 10.7562 5.31282 12.3544 5.30145C41.9444 9.06879 71.5198 12.9837 101.093 16.8827C101.716 16.9713 102.34 17.128 102.973 17.0508C103.442 16.7964 103.434 16.1583 103.165 15.7314C102.471 15.5475 101.76 15.4793 101.053 15.3908C71.8986 11.4486 42.7311 7.66313 13.5677 3.81178C11.6961 3.34171 9.61424 3.90488 8.27469 5.41955ZM19.9017 20.0256C19.8134 21.3177 20.0405 22.5894 20.1204 23.8724C22.1244 46.6558 24.2231 69.4255 26.238 92.2066C27.0305 91.3277 27.7393 90.3649 28.4521 89.4134C29.0913 88.4233 28.4627 87.1878 28.5195 86.1004C28.3472 84.7424 28.3111 83.3752 28.1283 82.0197C28.0442 79.9598 27.5922 77.9251 27.693 75.8564C28.0904 75.4705 28.6626 75.8476 29.1357 75.8178C32.1533 75.9177 35.1542 76.2676 38.1718 76.3561C39.1413 75.1797 39.9805 73.8876 40.9792 72.741C41.1453 72.5296 41.3198 72.298 41.3515 72.0144C41.4418 70.9241 41.2589 69.8434 41.1602 68.7623C41.1453 68.0151 41.0969 67.2704 40.9625 66.5392C41.5135 66.1507 42.1189 65.8491 42.6281 65.3926C44.2281 63.8937 45.0316 61.5615 44.9431 59.302C45.0527 56.4614 44.0686 53.5771 42.2391 51.5265C41.484 50.6253 40.4515 50.1186 39.5241 49.4805C39.2757 46.4901 39.0445 43.4926 38.7775 40.4995C38.5779 39.7456 37.8396 39.4163 37.1731 39.3709C32.8537 39.0393 28.549 38.4875 24.2296 38.1787C23.8742 34.8632 23.6028 31.5342 23.279 28.212C23.1719 26.3045 22.8543 24.4128 22.846 22.5008C36.5127 23.961 50.1857 25.462 63.8423 27.0493C64.3489 32.5833 64.9295 38.1106 65.4595 43.6444C65.5097 44.0808 64.9586 43.9897 64.7128 44.0443C62.5595 44.1395 60.5089 45.164 58.8058 46.5421C55.8279 49.1855 54.2424 53.3682 54.1962 57.4808C54.2319 60.1628 54.7072 62.849 55.7587 65.2903C56.4653 64.7428 56.9825 63.9801 57.5649 63.2942C57.5146 62.3221 57.1653 61.4071 57.0666 60.4418C56.8142 59.0998 56.9257 57.7216 56.9111 56.3615C57.0896 53.7932 58.1517 51.3176 59.8362 49.4922C61.4468 47.9161 63.5203 46.6944 65.7494 46.7443C66.0943 48.9447 66.2269 51.1791 66.4709 53.398C67.2868 53.398 68.1026 53.398 68.9207 53.398C68.6577 51.2223 68.378 49.0425 68.2603 46.8555C71.9911 47.6119 75.1012 50.2369 77.6245 53.1706C78.247 52.9982 78.6047 52.2237 79.0315 51.7266C76.5355 48.4883 73.2885 45.8021 69.5158 44.5846C68.9921 44.3669 68.2731 44.5053 67.8819 44.0422C67.3938 38.4626 66.7506 32.9013 66.2163 27.3264C73.7026 28.0416 81.1765 29.0181 88.6609 29.7834C89.2014 29.9015 89.5125 29.3156 89.7059 28.8728C89.7794 28.212 89.319 27.6602 88.8543 27.3036C85.1658 26.72 81.4372 26.4203 77.736 25.9298C58.8098 23.7588 39.8836 21.6424 20.9574 19.4692C20.4926 19.3034 20.1646 19.6736 19.9017 20.0256ZM92.5763 38.9258C93.7939 40.1339 95.2093 41.0876 96.4604 42.255C91.016 49.9302 86.0279 57.9666 80.8884 65.8805C80.5478 66.3827 80.2681 66.9616 79.7676 67.3044C76.4995 64.3115 73.1012 61.4843 69.781 58.5594C69.3938 58.1097 68.8176 58.1554 68.3004 58.1462C63.6485 64.877 59.0833 71.6805 54.5367 78.4973C54.2781 78.8359 54.1015 79.2764 53.7628 79.526C51.3614 77.5119 48.9998 75.4386 46.6342 73.372C40.3779 81.9899 34.2855 90.7487 28.019 99.3599C27.6257 99.9548 26.9129 100.513 27.0917 101.342C27.2305 102.455 27.3336 103.57 27.3503 104.694C29.2261 104.748 31.1018 104.701 32.9776 104.724C35.785 100.89 38.54 97.016 41.3158 93.1581C43.5783 89.9311 45.9738 86.8157 48.1879 83.5501C50.5936 85.6486 52.9742 87.7873 55.4367 89.806C57.7583 86.3022 60.1177 82.8302 62.5049 79.3809C65.1692 75.5112 67.6991 71.5307 70.4726 67.752C71.7955 69.1713 73.3347 70.3271 74.769 71.6079C77.1095 73.6128 79.3637 75.7453 81.717 77.7254C82.0386 77.5324 82.1628 77.0781 82.3919 76.7739C85.1341 72.4591 87.8807 68.1493 90.6164 63.8324C94.2481 58.2347 97.7687 52.5438 101.472 47.0078C102.918 48.2341 104.336 49.5056 105.814 50.6887C105.627 49.6214 105.751 48.5315 105.604 47.4617C105.425 46.0425 105.539 44.6073 105.389 43.1838C105.219 41.2239 105.369 39.2505 105.146 37.2953C105.063 36.437 105.066 35.574 105.07 34.7111C100.889 36.06 96.7339 37.4974 92.5763 38.9258ZM101.255 54.8579C101.913 60.4171 102.363 66.0009 103.011 71.5601C103.535 76.6376 104.193 81.6992 104.662 86.7859C105.255 92.6311 106.077 98.4491 106.592 104.303C109.599 104.372 112.607 104.303 115.614 104.328C114.72 96.4396 113.946 88.5324 113.031 80.6457C112.125 72.2481 111.238 63.8484 110.304 55.4528C108.912 55.2577 107.513 55.1894 106.113 55.1852C104.5 54.967 102.874 54.9737 101.255 54.8579ZM90.5997 69.2938C90.1393 70.0523 89.6574 70.7923 89.1719 71.5307C89.4199 74.7984 89.7332 78.0568 90.0803 81.3132C90.7279 88.9548 91.4745 96.5847 92.1265 104.224C92.3873 104.44 92.7635 104.292 93.0749 104.338C95.8758 104.303 98.6792 104.34 101.482 104.322C100.715 97.5861 100.138 90.8234 99.4277 84.0791C98.9189 79.1539 98.5824 74.2035 97.9472 69.2938C95.4974 69.2938 93.0494 69.2938 90.5997 69.2938ZM73.1559 75.4365C74.1444 84.747 75.0695 94.0684 76.0558 103.379C76.1148 103.69 76.0602 104.058 76.2409 104.328C79.6496 104.322 83.0606 104.367 86.4675 104.301C85.6178 96.4463 84.7284 88.5957 83.9985 80.7275C83.3487 81.5859 82.8104 82.5348 82.2615 83.4683C79.1659 80.8727 76.2787 77.991 73.1559 75.4365ZM63.2679 84.2813C62.078 86.1092 60.8371 87.8989 59.5878 89.6814C59.4596 89.9084 59.2411 90.1152 59.2411 90.4014C59.7164 95.0384 60.0821 99.6867 60.5071 104.328C63.9432 104.317 67.3793 104.338 70.8154 104.33C70.1321 97.6541 69.3898 90.9782 68.885 84.2813C67.0132 84.2813 65.1397 84.2813 63.2679 84.2813ZM44.5752 94.7271C44.7854 97.9041 45.1157 101.069 45.2377 104.253C48.5751 104.412 51.9249 104.287 55.2685 104.33C55.0477 101.129 54.7072 97.9335 54.5852 94.7271C51.2478 94.7271 47.9126 94.7271 44.5752 94.7271Z" fill="#0D2128"/>
</svg>
