<svg width="91" height="91" viewBox="0 0 91 91" fill="none" xmlns="http://www.w3.org/2000/svg">
<path d="M45.5586 90.1094C70.4114 90.1094 90.5586 69.9622 90.5586 45.1094C90.5586 20.2566 70.4114 0.109375 45.5586 0.109375C20.7058 0.109375 0.558594 20.2566 0.558594 45.1094C0.558594 69.9622 20.7058 90.1094 45.5586 90.1094Z" fill="#37AB87"/>
<path d="M37.7977 67.8086C37.2772 67.8086 36.8555 68.2303 36.8555 68.7508V73.873C36.8555 74.3935 37.2772 74.8153 37.7977 74.8153H45.6493C46.1698 74.8153 46.5915 74.3935 46.5915 73.873V68.7508C46.5915 68.2303 46.1698 67.8086 45.6493 67.8086H37.7977ZM44.7075 72.9308H38.7403V69.693H44.7075V72.9308Z" fill="#064C40"/>
<path d="M50.7547 49.8477C50.2342 49.8477 49.8125 50.2694 49.8125 50.7899V73.8733C49.8125 74.3938 50.2342 74.8155 50.7547 74.8155H58.6063C59.1268 74.8155 59.5486 74.3938 59.5486 73.8733V50.7899C59.5486 50.2694 59.1268 49.8477 58.6063 49.8477H50.7547ZM57.6645 72.9311H51.6973V51.7321H57.6645V72.9311Z" fill="#064C40"/>
<path d="M24.8406 59.4805C24.3202 59.4805 23.8984 59.9022 23.8984 60.4227V73.8733C23.8984 74.3938 24.3202 74.8155 24.8406 74.8155H32.6923C33.2128 74.8155 33.6345 74.3938 33.6345 73.8733V60.4227C33.6345 59.9022 33.2128 59.4805 32.6923 59.4805H24.8406ZM31.7501 72.9315H25.7829V61.3653H31.7501V72.9315Z" fill="#064C40"/>
<path d="M63.7117 49.8477C63.1913 49.8477 62.7695 50.2694 62.7695 50.7899V73.8733C62.7695 74.3938 63.1913 74.8155 63.7117 74.8155H71.5634C72.0839 74.8155 72.5056 74.3938 72.5056 73.8733V50.7899C72.5056 50.2694 72.0839 49.8477 71.5634 49.8477H63.7117ZM70.6212 72.9311H64.654V51.7321H70.6212V72.9311Z" fill="#064C40"/>
<path d="M19.5008 39.0703C18.9803 39.0703 18.5586 39.492 18.5586 40.0125V73.8718C18.5586 74.3923 18.9803 74.814 19.5008 74.814H71.5625C72.083 74.814 72.5047 74.3923 72.5047 73.8718C72.5047 73.3513 72.083 72.9296 71.5625 72.9296H20.443V40.0125C20.443 39.492 20.0213 39.0703 19.5008 39.0703Z" fill="#3E5738"/>
<path d="M57.8306 34.9345C57.3975 34.6469 56.8122 34.7652 56.5247 35.1983C56.2367 35.6317 56.3547 36.2166 56.7885 36.5046L64.4773 41.6102C64.6375 41.7165 64.8184 41.7674 64.9974 41.7674C65.3027 41.7674 65.6019 41.6193 65.7832 41.3464C66.0711 40.913 65.9532 40.328 65.5194 40.0401L57.8306 34.9345Z" fill="#48766F"/>
<path d="M52.4273 36.4395L42.2635 57.2775C42.0355 57.7448 42.2296 58.309 42.6973 58.5374C42.8303 58.6022 42.9713 58.6331 43.1096 58.6331C43.4586 58.6331 43.794 58.4383 43.9572 58.1036L54.121 37.2657C54.3491 36.7983 54.155 36.2341 53.6872 36.0058C53.2188 35.7777 52.6553 35.9715 52.4273 36.4395Z" fill="#48766F"/>
<path d="M30.4557 50.9364C30.118 51.3325 30.1655 51.9272 30.5616 52.2645L38.7008 59.2022C38.8783 59.3533 39.0954 59.4276 39.3117 59.4276C39.5782 59.4276 39.8428 59.3153 40.0293 59.0967C40.367 58.7006 40.3195 58.1059 39.9234 57.7685L31.7842 50.8308C31.3881 50.4932 30.7934 50.5403 30.4557 50.9364Z" fill="#48766F"/>
<path d="M57.8309 34.9345C57.6708 34.8282 57.4899 34.7773 57.3108 34.7773C57.0056 34.7773 56.7059 34.9251 56.5247 35.1983C56.2367 35.6317 56.3547 36.2167 56.7885 36.5046L64.4773 41.6103C64.6375 41.7165 64.8184 41.7674 64.9974 41.7674C65.3027 41.7674 65.6019 41.6193 65.7832 41.3464C66.0711 40.913 65.9532 40.3281 65.5194 40.0402L57.8309 34.9345ZM65.3125 41.0336C65.2424 41.1392 65.1248 41.2021 64.9978 41.2021C64.9239 41.2021 64.8519 41.1802 64.7901 41.1392L57.1013 36.0335C57.0172 35.9777 56.9603 35.8929 56.9404 35.7942C56.9204 35.6954 56.94 35.5948 56.9958 35.5111C57.0659 35.4056 57.1835 35.3427 57.3108 35.3427C57.3847 35.3427 57.4563 35.3645 57.5181 35.4052L65.2069 40.5109C65.2906 40.5667 65.3479 40.6515 65.3679 40.7502C65.3879 40.8493 65.3683 40.95 65.3125 41.0336Z" fill="#48766F"/>
<path d="M53.2742 35.9102C52.9252 35.9102 52.5901 36.1046 52.4273 36.4397L42.2635 57.2776C42.0355 57.745 42.2296 58.3091 42.6973 58.5375C42.8303 58.6024 42.9713 58.6333 43.1096 58.6333C43.4586 58.6333 43.794 58.4384 43.9572 58.1037L54.121 37.2658C54.3491 36.7985 54.155 36.2343 53.6872 36.0059C53.5538 35.9411 53.4129 35.9102 53.2742 35.9102ZM53.6126 37.0178L43.4488 57.8558C43.3851 57.9865 43.2551 58.0679 43.1092 58.0679C43.0523 58.0679 42.9969 58.0551 42.9449 58.0295C42.758 57.9383 42.6803 57.7122 42.7712 57.5256L52.935 36.6873C52.9987 36.5569 53.1283 36.4755 53.2738 36.4755C53.3311 36.4755 53.3865 36.4883 53.4389 36.5139C53.6258 36.6051 53.7038 36.8313 53.6126 37.0178Z" fill="#48766F"/>
<path d="M31.1729 50.6055C30.9068 50.6055 30.6419 50.7178 30.4557 50.9368C30.118 51.3329 30.1655 51.9276 30.5616 52.2649L38.7008 59.2026C38.8783 59.3537 39.0954 59.428 39.3117 59.428C39.5782 59.428 39.8428 59.3156 40.0293 59.0971C40.367 58.7009 40.3195 58.1062 39.9234 57.7689L31.7842 50.8312C31.6063 50.6793 31.3892 50.6055 31.1729 50.6055ZM39.5989 58.7303C39.5273 58.8144 39.4225 58.8626 39.3117 58.8626C39.2488 58.8626 39.1549 58.8468 39.0675 58.7726L30.9283 51.8349C30.8518 51.7697 30.8051 51.6785 30.7971 51.5778C30.7892 51.4776 30.8205 51.38 30.8861 51.3031C30.9577 51.219 31.0625 51.1708 31.1733 51.1708C31.2362 51.1708 31.3297 51.1866 31.4175 51.2612L39.5567 58.1989C39.7146 58.3339 39.7335 58.5721 39.5989 58.7303Z" fill="#48766F"/>
<path d="M24.6562 49.492C24.6562 51.7582 26.5 53.6015 28.7658 53.6015C31.0316 53.6015 32.8753 51.7578 32.8753 49.492C32.8753 47.2262 31.0316 45.3828 28.7658 45.3828C26.5 45.3828 24.6562 47.2262 24.6562 49.492ZM30.9909 49.492C30.9909 50.7191 29.9929 51.7171 28.7658 51.7171C27.5387 51.7171 26.5407 50.7191 26.5407 49.492C26.5407 48.2652 27.5387 47.2672 28.7658 47.2672C29.9929 47.2672 30.9909 48.2652 30.9909 49.492Z" fill="#3E5738"/>
<path d="M37.6133 60.5392C37.6133 62.8051 39.457 64.6484 41.7228 64.6484C43.9887 64.6484 45.8324 62.8047 45.8324 60.5392C45.8324 58.273 43.9887 56.4297 41.7228 56.4297C39.457 56.4297 37.6133 58.273 37.6133 60.5392ZM43.948 60.5392C43.948 61.766 42.95 62.764 41.7228 62.764C40.4957 62.764 39.4977 61.766 39.4977 60.5392C39.4977 59.3121 40.4957 58.3141 41.7228 58.3141C42.95 58.3141 43.948 59.3121 43.948 60.5392Z" fill="#3E5738"/>
<path d="M50.5391 34.0041C50.5391 36.2699 52.3828 38.1132 54.6486 38.1132C56.9144 38.1132 58.7582 36.2695 58.7582 34.0041C58.7582 31.7379 56.9144 29.8945 54.6486 29.8945C52.3828 29.8945 50.5391 31.7379 50.5391 34.0041ZM56.8734 34.0041C56.8734 35.2308 55.8754 36.2288 54.6482 36.2288C53.4211 36.2288 52.4231 35.2308 52.4231 34.0041C52.4231 32.7769 53.4211 31.779 54.6482 31.779C55.8754 31.779 56.8734 32.7769 56.8734 34.0041Z" fill="#3E5738"/>
<path d="M63.5273 42.5779C63.5273 44.8441 65.3711 46.6875 67.6369 46.6875C69.9027 46.6875 71.7464 44.8438 71.7464 42.5779C71.7464 40.3121 69.9027 38.4688 67.6369 38.4688C65.3711 38.4688 63.5273 40.3121 63.5273 42.5779ZM69.862 42.5779C69.862 43.8051 68.864 44.803 67.6369 44.803C66.4098 44.803 65.4118 43.8051 65.4118 42.5779C65.4118 41.3512 66.4098 40.3532 67.6369 40.3532C68.864 40.3532 69.862 41.3512 69.862 42.5779Z" fill="#3E5738"/>
<path d="M30.4169 15.1094C23.8783 15.1094 18.5586 20.4287 18.5586 26.9677C18.5586 33.5066 23.8783 38.8263 30.4169 38.8263C36.9558 38.8263 42.2752 33.5066 42.2752 26.9677C42.2752 20.4287 36.9555 15.1094 30.4169 15.1094ZM30.4169 36.9415C24.9174 36.9415 20.443 32.4672 20.443 26.9673C20.443 21.4678 24.9174 16.9934 30.4169 16.9934C35.9164 16.9934 40.3908 21.4678 40.3908 26.9673C40.3908 32.4672 35.9164 36.9415 30.4169 36.9415Z" fill="#064C40"/>
<path d="M35.6002 17.554L29.9145 26.0252H19.5008C18.9803 26.0252 18.5586 26.447 18.5586 26.9675C18.5586 27.4879 18.9803 27.9097 19.5008 27.9097H30.4169C30.7308 27.9097 31.024 27.7533 31.1993 27.4928L37.1654 18.6048C37.4556 18.1729 37.3403 17.5872 36.908 17.297C36.4753 17.0064 35.89 17.1221 35.6002 17.554Z" fill="#064C40"/>
<path d="M29.4766 26.9696V37.8706C29.4766 38.391 29.8983 38.8128 30.4188 38.8128C30.9393 38.8128 31.361 38.391 31.361 37.8706V26.9696C31.361 26.4491 30.9393 26.0273 30.4188 26.0273C29.8983 26.0273 29.4766 26.4491 29.4766 26.9696Z" fill="#064C40"/>
<path d="M47.1727 15.1094C46.6522 15.1094 46.2305 15.5311 46.2305 16.0516C46.2305 16.5721 46.6522 16.9938 47.1727 16.9938H49.6564C50.1768 16.9938 50.5986 16.5721 50.5986 16.0516C50.5986 15.5311 50.1768 15.1094 49.6564 15.1094H47.1727Z" fill="#064C40"/>
<path d="M53.4071 15.1094C52.8866 15.1094 52.4648 15.5311 52.4648 16.0516C52.4648 16.5721 52.8866 16.9938 53.4071 16.9938H70.8033C71.3238 16.9938 71.7455 16.5721 71.7455 16.0516C71.7455 15.5311 71.3238 15.1094 70.8033 15.1094H53.4071Z" fill="#064C40"/>
<path d="M47.1727 20.0781C46.6522 20.0781 46.2305 20.4999 46.2305 21.0203C46.2305 21.5408 46.6522 21.9625 47.1727 21.9625H49.6564C50.1768 21.9625 50.5986 21.5408 50.5986 21.0203C50.5986 20.4999 50.1768 20.0781 49.6564 20.0781H47.1727Z" fill="#064C40"/>
<path d="M53.4071 20.0781C52.8866 20.0781 52.4648 20.4999 52.4648 21.0203C52.4648 21.5408 52.8866 21.9625 53.4071 21.9625H70.8033C71.3238 21.9625 71.7455 21.5408 71.7455 21.0203C71.7455 20.4999 71.3238 20.0781 70.8033 20.0781H53.4071Z" fill="#064C40"/>
<path d="M47.1727 25.043C46.6522 25.043 46.2305 25.4647 46.2305 25.9852C46.2305 26.5057 46.6522 26.9274 47.1727 26.9274H49.6564C50.1768 26.9274 50.5986 26.5057 50.5986 25.9852C50.5986 25.4647 50.1768 25.043 49.6564 25.043H47.1727Z" fill="#064C40"/>
<path d="M53.4071 25.043C52.8866 25.043 52.4648 25.4647 52.4648 25.9852C52.4648 26.5057 52.8866 26.9274 53.4071 26.9274H70.8033C71.3238 26.9274 71.7455 26.5057 71.7455 25.9852C71.7455 25.4647 71.3238 25.043 70.8033 25.043H53.4071Z" fill="#064C40"/>
<path d="M44.7083 69.1289H38.7411C38.429 69.1289 38.1758 69.3822 38.1758 69.6942V72.932C38.1758 73.2441 38.429 73.4974 38.7411 73.4974H44.7083C45.0204 73.4974 45.2736 73.2441 45.2736 72.932V69.6942C45.2736 69.3822 45.0204 69.1289 44.7083 69.1289ZM44.7083 72.932H38.7411V69.6942H44.7083V72.932Z" fill="#064C40"/>
<path d="M37.7977 67.8086C37.2772 67.8086 36.8555 68.2303 36.8555 68.7508V73.873C36.8555 74.3935 37.2772 74.8153 37.7977 74.8153H45.6493C46.1698 74.8153 46.5915 74.3935 46.5915 73.873V68.7508C46.5915 68.2303 46.1698 67.8086 45.6493 67.8086H37.7977ZM46.0266 68.7508V73.873C46.0266 74.0811 45.8574 74.2499 45.6497 74.2499H37.7981C37.5904 74.2499 37.4212 74.0811 37.4212 73.873V68.7508C37.4212 68.5428 37.5904 68.3739 37.7981 68.3739H45.6497C45.8574 68.3739 46.0266 68.5428 46.0266 68.7508Z" fill="#064C40"/>
<path d="M50.7547 49.8477C50.2342 49.8477 49.8125 50.2694 49.8125 50.7899V73.8733C49.8125 74.3938 50.2342 74.8155 50.7547 74.8155H58.6063C59.1268 74.8155 59.5486 74.3938 59.5486 73.8733V50.7899C59.5486 50.2694 59.1268 49.8477 58.6063 49.8477H50.7547ZM58.9836 50.7899V73.8733C58.9836 74.0813 58.8144 74.2502 58.6067 74.2502H50.7551C50.5474 74.2502 50.3782 74.0813 50.3782 73.8733V50.7899C50.3782 50.5818 50.5474 50.413 50.7551 50.413H58.6067C58.8144 50.413 58.9836 50.5818 58.9836 50.7899Z" fill="#064C40"/>
<path d="M57.6653 51.168H51.6981C51.3861 51.168 51.1328 51.4212 51.1328 51.7333V72.9323C51.1328 73.2444 51.3861 73.4976 51.6981 73.4976H57.6653C57.9774 73.4976 58.2307 73.2444 58.2307 72.9323V51.7333C58.2307 51.4209 57.9774 51.168 57.6653 51.168ZM57.6653 72.9323H51.6981V51.7333H57.6653V72.9323Z" fill="#064C40"/>
<path d="M24.8406 59.4805C24.3202 59.4805 23.8984 59.9022 23.8984 60.4227V73.8733C23.8984 74.3938 24.3202 74.8155 24.8406 74.8155H32.6923C33.2128 74.8155 33.6345 74.3938 33.6345 73.8733V60.4227C33.6345 59.9022 33.2128 59.4805 32.6923 59.4805H24.8406ZM33.0692 60.4227V73.8733C33.0692 74.0813 32.8999 74.2502 32.6923 74.2502H24.8406C24.633 74.2502 24.4638 74.0813 24.4638 73.8733V60.4227C24.4638 60.2146 24.633 60.0458 24.8406 60.0458H32.6923C32.9003 60.0458 33.0692 60.215 33.0692 60.4227Z" fill="#064C40"/>
<path d="M31.7513 60.8008H25.7841C25.472 60.8008 25.2188 61.054 25.2188 61.3661V72.9323C25.2188 73.2444 25.472 73.4976 25.7841 73.4976H31.7513C32.0633 73.4976 32.3166 73.2444 32.3166 72.9323V61.3661C32.3166 61.054 32.0637 60.8008 31.7513 60.8008ZM31.7513 72.9327H25.7841V61.3665H31.7513V72.9327Z" fill="#064C40"/>
<path d="M70.6224 51.168H64.6552C64.3431 51.168 64.0898 51.4212 64.0898 51.7333V72.9323C64.0898 73.2444 64.3431 73.4976 64.6552 73.4976H70.6224C70.9344 73.4976 71.1877 73.2444 71.1877 72.9323V51.7333C71.1877 51.4209 70.9348 51.168 70.6224 51.168ZM70.6224 72.9323H64.6552V51.7333H70.6224V72.9323Z" fill="#064C40"/>
<path d="M63.7117 49.8477C63.1913 49.8477 62.7695 50.2694 62.7695 50.7899V73.8733C62.7695 74.3938 63.1913 74.8155 63.7117 74.8155H71.5634C72.0839 74.8155 72.5056 74.3938 72.5056 73.8733V50.7899C72.5056 50.2694 72.0839 49.8477 71.5634 49.8477H63.7117ZM71.9403 50.7899V73.8733C71.9403 74.0813 71.771 74.2502 71.5634 74.2502H63.7117C63.5041 74.2502 63.3349 74.0813 63.3349 73.8733V50.7899C63.3349 50.5818 63.5041 50.413 63.7117 50.413H71.5634C71.7714 50.413 71.9403 50.5818 71.9403 50.7899Z" fill="#064C40"/>
<path d="M29.4732 27.3438H20.4871C20.328 27.3438 20.1762 27.4108 20.0691 27.5284C19.9621 27.646 19.9093 27.8035 19.9244 27.9618C20.3978 32.9906 24.3916 36.9845 29.42 37.4578C29.4377 37.4593 29.4554 37.4605 29.4732 37.4605C29.6134 37.4605 29.749 37.4085 29.8538 37.3131C29.9714 37.2061 30.0385 37.0542 30.0385 36.8951V27.9091C30.0385 27.5966 29.7852 27.3438 29.4732 27.3438ZM29.4732 36.8951C24.7244 36.4478 20.9345 32.6578 20.4875 27.9091H29.4732V36.8951Z" fill="#064C40"/>
<path d="M30.4169 15.1094C23.8783 15.1094 18.5586 20.4287 18.5586 26.9677C18.5586 33.5066 23.8783 38.8263 30.4169 38.8263C36.9558 38.8263 42.2752 33.5066 42.2752 26.9677C42.2752 20.4287 36.9555 15.1094 30.4169 15.1094ZM30.4169 38.2606C24.19 38.2606 19.1239 33.1946 19.1239 26.9673C19.1239 20.7404 24.19 15.6743 30.4169 15.6743C36.6438 15.6743 41.7099 20.7404 41.7099 26.9673C41.7099 33.1946 36.6438 38.2606 30.4169 38.2606Z" fill="#064C40"/>
<path d="M37.0881 18.8156C36.9863 18.7323 36.8597 18.6875 36.7297 18.6875C36.7021 18.6875 36.6746 18.6894 36.6471 18.6935C36.4896 18.7169 36.349 18.8055 36.2604 18.9378L30.8891 26.9398C30.8265 27.0329 30.793 27.1425 30.793 27.2548V36.8963C30.793 37.0553 30.8601 37.2072 30.9776 37.3143C31.082 37.4092 31.2181 37.4616 31.3583 37.4616C31.376 37.4616 31.3937 37.4609 31.4114 37.459C36.8525 36.9464 40.9557 32.4362 40.9557 26.9677C40.9557 23.8022 39.5461 20.8308 37.0881 18.8156ZM31.3587 36.8963V27.2548L36.7297 19.2528C38.9627 21.0834 40.3903 23.8617 40.3903 26.9677C40.3903 32.1498 36.4176 36.4199 31.3587 36.8963Z" fill="#064C40"/>
<path d="M35.7151 18.0661C35.677 17.9116 35.576 17.7804 35.4362 17.7043C33.9034 16.8706 32.1671 16.4297 30.4154 16.4297C24.9471 16.4297 20.437 20.5328 19.9244 25.9735C19.9093 26.1318 19.9621 26.2894 20.0691 26.407C20.1762 26.5245 20.328 26.5916 20.4871 26.5916H29.9126C30.101 26.5916 30.277 26.4978 30.3818 26.3414L35.6348 18.5154C35.7242 18.3842 35.7532 18.2206 35.7151 18.0661ZM29.9134 26.0271H20.4875C20.9639 20.9681 25.234 16.9954 30.4154 16.9954C32.134 16.9954 33.7527 17.4326 35.166 18.201L29.9134 26.0271Z" fill="#064C40"/>
<path d="M47.1727 15.1094C46.6522 15.1094 46.2305 15.5311 46.2305 16.0516C46.2305 16.5721 46.6522 16.9938 47.1727 16.9938H49.6564C50.1768 16.9938 50.5986 16.5721 50.5986 16.0516C50.5986 15.5311 50.1768 15.1094 49.6564 15.1094H47.1727ZM50.0332 16.0516C50.0332 16.2596 49.864 16.4285 49.6564 16.4285H47.1727C46.965 16.4285 46.7958 16.2596 46.7958 16.0516C46.7958 15.8435 46.965 15.6747 47.1727 15.6747H49.6564C49.864 15.6747 50.0332 15.8435 50.0332 16.0516Z" fill="#064C40"/>
<path d="M53.4071 15.1094C52.8866 15.1094 52.4648 15.5311 52.4648 16.0516C52.4648 16.5721 52.8866 16.9938 53.4071 16.9938H70.8033C71.3238 16.9938 71.7455 16.5721 71.7455 16.0516C71.7455 15.5311 71.3238 15.1094 70.8033 15.1094H53.4071ZM71.1805 16.0516C71.1805 16.2596 71.0113 16.4285 70.8037 16.4285H53.4074C53.1998 16.4285 53.0305 16.2596 53.0305 16.0516C53.0305 15.8435 53.1998 15.6747 53.4074 15.6747H70.8037C71.0113 15.6747 71.1805 15.8435 71.1805 16.0516Z" fill="#064C40"/>
<path d="M47.1727 20.0781C46.6522 20.0781 46.2305 20.4999 46.2305 21.0203C46.2305 21.5408 46.6522 21.9625 47.1727 21.9625H49.6564C50.1768 21.9625 50.5986 21.5408 50.5986 21.0203C50.5986 20.4999 50.1768 20.0781 49.6564 20.0781H47.1727ZM50.0332 21.0203C50.0332 21.2284 49.864 21.3972 49.6564 21.3972H47.1727C46.965 21.3972 46.7958 21.2284 46.7958 21.0203C46.7958 20.8123 46.965 20.6435 47.1727 20.6435H49.6564C49.864 20.6435 50.0332 20.8127 50.0332 21.0203Z" fill="#064C40"/>
<path d="M53.4071 20.0781C52.8866 20.0781 52.4648 20.4999 52.4648 21.0203C52.4648 21.5408 52.8866 21.9625 53.4071 21.9625H70.8033C71.3238 21.9625 71.7455 21.5408 71.7455 21.0203C71.7455 20.4999 71.3238 20.0781 70.8033 20.0781H53.4071ZM71.1805 21.0203C71.1805 21.2284 71.0113 21.3972 70.8037 21.3972H53.4074C53.1998 21.3972 53.0305 21.2284 53.0305 21.0203C53.0305 20.8123 53.1998 20.6435 53.4074 20.6435H70.8037C71.0113 20.6435 71.1805 20.8127 71.1805 21.0203Z" fill="#064C40"/>
<path d="M47.1727 25.043C46.6522 25.043 46.2305 25.4647 46.2305 25.9852C46.2305 26.5057 46.6522 26.9274 47.1727 26.9274H49.6564C50.1768 26.9274 50.5986 26.5057 50.5986 25.9852C50.5986 25.4647 50.1768 25.043 49.6564 25.043H47.1727ZM50.0332 25.9852C50.0332 26.1932 49.864 26.3621 49.6564 26.3621H47.1727C46.965 26.3621 46.7958 26.1932 46.7958 25.9852C46.7958 25.7771 46.965 25.6083 47.1727 25.6083H49.6564C49.864 25.6083 50.0332 25.7775 50.0332 25.9852Z" fill="#064C40"/>
<path d="M53.4071 25.043C52.8866 25.043 52.4648 25.4647 52.4648 25.9852C52.4648 26.5057 52.8866 26.9274 53.4071 26.9274H70.8033C71.3238 26.9274 71.7455 26.5057 71.7455 25.9852C71.7455 25.4647 71.3238 25.043 70.8033 25.043H53.4071ZM71.1805 25.9852C71.1805 26.1932 71.0113 26.3621 70.8037 26.3621H53.4074C53.1998 26.3621 53.0305 26.1932 53.0305 25.9852C53.0305 25.7771 53.1998 25.6083 53.4074 25.6083H70.8037C71.0113 25.6083 71.1805 25.7775 71.1805 25.9852Z" fill="#064C40"/>
<path d="M19.5008 39.0703C18.9803 39.0703 18.5586 39.492 18.5586 40.0125V73.8718C18.5586 74.3923 18.9803 74.814 19.5008 74.814H71.5625C72.083 74.814 72.5047 74.3923 72.5047 73.8718C72.5047 73.3513 72.083 72.9296 71.5625 72.9296H20.443V40.0125C20.443 39.492 20.0213 39.0703 19.5008 39.0703ZM71.5621 73.4949C71.7698 73.4949 71.939 73.6638 71.939 73.8718C71.939 74.0795 71.7698 74.2487 71.5621 74.2487H19.5008C19.2931 74.2487 19.1239 74.0795 19.1239 73.8718V40.0125C19.1239 39.8049 19.2931 39.6356 19.5008 39.6356C19.7085 39.6356 19.8777 39.8049 19.8777 40.0125V72.9296C19.8777 73.2417 20.131 73.4949 20.443 73.4949H71.5621Z" fill="#064C40"/>
<path d="M25.9766 49.4932C25.9766 51.032 27.2282 52.2837 28.767 52.2837C30.3058 52.2837 31.5575 51.0316 31.5575 49.4932C31.5575 47.9548 30.3058 46.7031 28.767 46.7031C27.2282 46.7031 25.9766 47.9548 25.9766 49.4932ZM30.9921 49.4932C30.9921 50.7203 29.9942 51.7183 28.767 51.7183C27.5399 51.7183 26.5419 50.7203 26.5419 49.4932C26.5419 48.2664 27.5399 47.2685 28.767 47.2685C29.9942 47.2685 30.9921 48.2664 30.9921 49.4932Z" fill="#064C40"/>
<path d="M24.6562 49.492C24.6562 51.7582 26.5 53.6015 28.7658 53.6015C31.0316 53.6015 32.8753 51.7578 32.8753 49.492C32.8753 47.2262 31.0316 45.3828 28.7658 45.3828C26.5 45.3828 24.6562 47.2262 24.6562 49.492ZM32.31 49.492C32.31 51.4465 30.7199 53.0362 28.7658 53.0362C26.8117 53.0362 25.2216 51.4461 25.2216 49.492C25.2216 47.5378 26.8117 45.9481 28.7658 45.9481C30.7199 45.9481 32.31 47.5378 32.31 49.492Z" fill="#064C40"/>
<path d="M38.9336 60.5404C38.9336 62.0789 40.1852 63.3305 41.724 63.3305C43.2629 63.3305 44.5145 62.0789 44.5145 60.5404C44.5145 59.0016 43.2629 57.75 41.724 57.75C40.1852 57.75 38.9336 59.0016 38.9336 60.5404ZM43.9492 60.5404C43.9492 61.7672 42.9512 62.7652 41.724 62.7652C40.4969 62.7652 39.4989 61.7672 39.4989 60.5404C39.4989 59.3133 40.4969 58.3153 41.724 58.3153C42.9512 58.3153 43.9492 59.3133 43.9492 60.5404Z" fill="#064C40"/>
<path d="M37.6133 60.5392C37.6133 62.8051 39.457 64.6484 41.7228 64.6484C43.9887 64.6484 45.8324 62.8047 45.8324 60.5392C45.8324 58.273 43.9887 56.4297 41.7228 56.4297C39.457 56.4297 37.6133 58.273 37.6133 60.5392ZM45.267 60.5392C45.267 62.4934 43.677 64.0831 41.7228 64.0831C39.7687 64.0831 38.1786 62.4934 38.1786 60.5392C38.1786 58.5847 39.7687 56.995 41.7228 56.995C43.677 56.995 45.267 58.5847 45.267 60.5392Z" fill="#064C40"/>
<path d="M51.8594 34.0053C51.8594 35.5437 53.111 36.7954 54.6498 36.7954C56.1886 36.7954 57.4403 35.5437 57.4403 34.0053C57.4403 32.4665 56.1886 31.2148 54.6498 31.2148C53.111 31.2148 51.8594 32.4665 51.8594 34.0053ZM56.8746 34.0053C56.8746 35.2321 55.8766 36.23 54.6495 36.23C53.4223 36.23 52.4243 35.2321 52.4243 34.0053C52.4243 32.7782 53.4223 31.7802 54.6495 31.7802C55.8766 31.7802 56.8746 32.7782 56.8746 34.0053Z" fill="#064C40"/>
<path d="M50.5391 34.0041C50.5391 36.2699 52.3828 38.1132 54.6486 38.1132C56.9144 38.1132 58.7582 36.2695 58.7582 34.0041C58.7582 31.7379 56.9144 29.8945 54.6486 29.8945C52.3828 29.8945 50.5391 31.7379 50.5391 34.0041ZM58.1925 34.0041C58.1925 35.9582 56.6024 37.5479 54.6482 37.5479C52.6941 37.5479 51.104 35.9582 51.104 34.0041C51.104 32.0496 52.6941 30.4599 54.6482 30.4599C56.6024 30.4599 58.1925 32.0496 58.1925 34.0041Z" fill="#064C40"/>
<path d="M63.5273 42.5779C63.5273 44.8441 65.3711 46.6875 67.6369 46.6875C69.9027 46.6875 71.7464 44.8438 71.7464 42.5779C71.7464 40.3121 69.9027 38.4688 67.6369 38.4688C65.3711 38.4688 63.5273 40.3121 63.5273 42.5779ZM71.1811 42.5779C71.1811 44.5324 69.591 46.1221 67.6369 46.1221C65.6827 46.1221 64.0927 44.5321 64.0927 42.5779C64.0927 40.6238 65.6827 39.0341 67.6369 39.0341C69.591 39.0341 71.1811 40.6238 71.1811 42.5779Z" fill="#064C40"/>
<path d="M64.8477 42.5791C64.8477 44.118 66.0993 45.3696 67.6381 45.3696C69.1769 45.3696 70.4286 44.1176 70.4286 42.5791C70.4286 41.0407 69.1769 39.7891 67.6381 39.7891C66.0993 39.7891 64.8477 41.0403 64.8477 42.5791ZM69.8632 42.5791C69.8632 43.8063 68.8652 44.8043 67.6381 44.8043C66.411 44.8043 65.413 43.8063 65.413 42.5791C65.413 41.3524 66.411 40.3544 67.6381 40.3544C68.8652 40.3544 69.8632 41.3524 69.8632 42.5791Z" fill="#064C40"/>
</svg>
