<svg width="19" height="19" viewBox="0 0 19 19" fill="none" xmlns="http://www.w3.org/2000/svg">
<path d="M0 9.50002C0 14.7472 4.25389 19 9.50103 19C14.7471 19 19 14.7472 19 9.50002C19 4.25391 14.7471 0 9.50103 0C4.25389 0 0 4.25391 0 9.50002Z" fill="white"/>
<path d="M7.79515 3.95821C8.51996 4.73258 9.76723 6.17089 10.2597 6.78935C9.58654 7.69279 8.51998 9.40566 8.00064 10.3359C6.81533 10.2069 5.26656 9.87131 4.1556 9.58738C3.97491 8.70976 3.8975 6.72119 4.10296 5.55963C4.82571 4.91329 6.68521 4.16367 7.79515 3.95821Z" fill="#0F6E5D"/>
<path d="M15.6553 4.54444C16.3007 4.83457 17.4353 5.5687 17.9908 6.52479C18.1694 7.4148 18.3915 8.81588 18.1034 10.0167C17.457 10.2841 16.8324 10.5133 15.9826 10.7188C15.6915 9.71723 14.8758 7.99194 14.2305 7.19278C14.6538 6.45765 15.1887 5.47885 15.6553 4.54444Z" fill="#0F6E5D"/>
<path d="M13.6931 14.3863C12.5832 14.4803 11.1047 14.377 9.88737 14.0951C9.13158 15.0306 8.15276 16.188 7.73047 16.7001C8.64216 17.4332 9.24099 17.8111 10.1104 18.2344C11.3999 18.1002 12.6534 17.6727 13.7127 16.9438C13.8707 16.2324 13.8924 15.3868 13.6931 14.3863Z" fill="#0F6E5D"/>
<path d="M0.459347 11.2446C0.925003 11.6452 1.54864 12.0014 2.12581 12.3122C2.48099 13.3354 3.30598 14.9389 3.90586 15.8506C3.65599 16.0509 3.39165 16.2522 3.07673 16.5C1.70042 15.2362 0.698912 13.5739 0.253906 11.6937C0.303466 11.5513 0.367455 11.3912 0.459347 11.2446Z" fill="#0F6E5D"/>
<path d="M2.17583 4.54842C1.59866 5.10494 0.828438 6.2479 0.335938 7.00781C0.824308 5.20611 1.82997 3.61712 3.18357 2.41013C2.82942 2.98316 2.36374 3.86388 2.17583 4.54842Z" fill="#0F6E5D"/>
<path d="M13.2163 0.750293C13.2783 1.0301 13.333 1.39148 13.333 1.66406C12.6908 1.41936 10.7838 0.992938 9.42705 1.32643C9.16067 1.08173 8.31094 0.642916 7.63672 0.416799C7.69351 0.337297 7.8081 0.232002 7.92993 0.12772C8.43998 0.0420229 8.96552 -0.00240052 9.50242 -0.00240052C10.8209 -0.00240052 12.0734 0.26502 13.2163 0.750293Z" fill="#0F6E5D"/>
</svg>
