<svg width="65" height="65" viewBox="0 0 65 65" fill="none" xmlns="http://www.w3.org/2000/svg">
<path d="M0.988281 8.1875C0.988281 3.76922 4.57 0.1875 8.98828 0.1875H56.9883C61.4066 0.1875 64.9883 3.76922 64.9883 8.1875V56.1875C64.9883 60.6058 61.4066 64.1875 56.9883 64.1875H8.98828C4.57 64.1875 0.988281 60.6058 0.988281 56.1875V8.1875Z" fill="#A855F7"/>
<g clip-path="url(#clip0_1225_1992)">
<path d="M22.3086 32.1745C22.3086 32.8817 23.4324 33.56 25.4328 34.0601C27.4332 34.5602 30.1463 34.8411 32.9753 34.8411C35.8042 34.8411 38.5173 34.5602 40.5177 34.0601C42.5181 33.56 43.6419 32.8817 43.6419 32.1745C43.6419 31.4672 42.5181 30.789 40.5177 30.2889C38.5173 29.7888 35.8042 29.5078 32.9753 29.5078C30.1463 29.5078 27.4332 29.7888 25.4328 30.2889C23.4324 30.789 22.3086 31.4672 22.3086 32.1745Z" stroke="white" stroke-width="1.5" stroke-linecap="round" stroke-linejoin="round"/>
<path d="M22.3086 32.1758V41.5091C22.3086 42.7624 25.6553 43.8891 30.3086 44.1758V40.1758H35.6419V44.1758C40.2219 43.8758 43.6419 42.7491 43.6419 41.5091V32.1758M36.9753 24.1758H42.3086V20.1758H36.9753V29.5091M26.3086 24.1758H31.6419V20.1758H26.3086V29.5091" stroke="white" stroke-width="1.5" stroke-linecap="round" stroke-linejoin="round"/>
</g>
<defs>
<clipPath id="clip0_1225_1992">
<rect width="32" height="32" fill="white" transform="translate(16.9766 16.1758)"/>
</clipPath>
</defs>
</svg>
