<svg width="91" height="91" viewBox="0 0 91 91" fill="none" xmlns="http://www.w3.org/2000/svg">
<path d="M45.5586 90.0898C70.4114 90.0898 90.5586 69.9427 90.5586 45.0898C90.5586 20.237 70.4114 0.0898438 45.5586 0.0898438C20.7058 0.0898438 0.558594 20.237 0.558594 45.0898C0.558594 69.9427 20.7058 90.0898 45.5586 90.0898Z" fill="#37AB87"/>
<path d="M45.5586 90.0898C70.4114 90.0898 90.5586 69.9427 90.5586 45.0898C90.5586 20.237 70.4114 0.0898438 45.5586 0.0898438C20.7058 0.0898438 0.558594 20.237 0.558594 45.0898C0.558594 69.9427 20.7058 90.0898 45.5586 90.0898Z" fill="#37AB87"/>
<path d="M52.886 67.0778C52.886 63.0372 49.5984 59.75 45.5582 59.75C41.518 59.75 38.2305 63.0376 38.2305 67.0778C38.2305 71.118 41.518 74.4055 45.5582 74.4055C49.5984 74.4055 52.886 71.1183 52.886 67.0778ZM40.1149 67.0778C40.1149 64.0763 42.5567 61.6344 45.5582 61.6344C48.5597 61.6344 51.0016 64.0763 51.0016 67.0778C51.0016 70.0793 48.5597 72.5211 45.5582 72.5211C42.5567 72.5211 40.1149 70.0793 40.1149 67.0778Z" fill="#37AB87"/>
<path d="M45.5581 66.279C46.0786 66.279 46.5003 65.8572 46.5003 65.3367C46.5003 64.8163 46.0786 64.3945 45.5581 64.3945H43.2078C42.6874 64.3945 42.2656 64.8163 42.2656 65.3367C42.2656 65.8572 42.6874 66.279 43.2078 66.279H45.5581Z" fill="#37AB87"/>
<path d="M47.9087 69.6305C48.4292 69.6305 48.8509 69.2088 48.8509 68.6883C48.8509 68.1678 48.4292 67.7461 47.9087 67.7461H43.2078C42.6874 67.7461 42.2656 68.1678 42.2656 68.6883C42.2656 69.2088 42.6874 69.6305 43.2078 69.6305H47.9087Z" fill="#37AB87"/>
<path d="M73.0853 74.4059C74.2808 74.4059 75.2536 73.4332 75.2536 72.2377V61.9182C75.2536 60.7227 74.2808 59.75 73.0853 59.75H62.7662C61.5704 59.75 60.5977 60.7227 60.5977 61.9182V72.2377C60.5977 73.4332 61.5704 74.4059 62.7662 74.4059H73.0853ZM62.4821 72.2377V61.9182C62.4821 61.7618 62.6095 61.6344 62.7662 61.6344H73.0853C73.2418 61.6344 73.3691 61.7618 73.3691 61.9182V72.2377C73.3691 72.3941 73.2418 72.5215 73.0853 72.5215H62.7662C62.6095 72.5215 62.4821 72.3941 62.4821 72.2377Z" fill="#37AB87"/>
<path d="M67.9253 66.279C68.4457 66.279 68.8675 65.8572 68.8675 65.3367C68.8675 64.8163 68.4457 64.3945 67.9253 64.3945H65.575C65.0545 64.3945 64.6328 64.8163 64.6328 65.3367C64.6328 65.8572 65.0545 66.279 65.575 66.279H67.9253Z" fill="#37AB87"/>
<path d="M70.2759 69.6305C70.7964 69.6305 71.2181 69.2088 71.2181 68.6883C71.2181 68.1678 70.7964 67.7461 70.2759 67.7461H65.575C65.0545 67.7461 64.6328 68.1678 64.6328 68.6883C64.6328 69.2088 65.0545 69.6305 65.575 69.6305H70.2759Z" fill="#37AB87"/>
<path d="M28.3506 74.4059C29.5464 74.4059 30.5192 73.4332 30.5192 72.2377V61.9182C30.5192 60.7227 29.5464 59.75 28.3506 59.75H18.0315C16.836 59.75 15.8633 60.7227 15.8633 61.9182V72.2377C15.8633 73.4332 16.836 74.4059 18.0315 74.4059H28.3506ZM17.7477 72.2377V61.9182C17.7477 61.7618 17.8751 61.6344 18.0315 61.6344H28.3506C28.5074 61.6344 28.6348 61.7618 28.6348 61.9182V72.2377C28.6348 72.3941 28.5074 72.5215 28.3506 72.5215H18.0315C17.8751 72.5215 17.7477 72.3941 17.7477 72.2377Z" fill="#37AB87"/>
<path d="M23.1909 66.279C23.7114 66.279 24.1331 65.8572 24.1331 65.3367C24.1331 64.8163 23.7114 64.3945 23.1909 64.3945H20.8406C20.3202 64.3945 19.8984 64.8163 19.8984 65.3367C19.8984 65.8572 20.3202 66.279 20.8406 66.279H23.1909Z" fill="#37AB87"/>
<path d="M25.5415 69.6305C26.062 69.6305 26.4837 69.2088 26.4837 68.6883C26.4837 68.1678 26.062 67.7461 25.5415 67.7461H20.8406C20.3202 67.7461 19.8984 68.1678 19.8984 68.6883C19.8984 69.2088 20.3202 69.6305 20.8406 69.6305H25.5415Z" fill="#37AB87"/>
<path d="M50.7178 54.9489C51.9133 54.9489 52.886 53.9761 52.886 52.7807V42.4612C52.886 41.2657 51.9133 40.293 50.7178 40.293H40.3987C39.2032 40.293 38.2305 41.2657 38.2305 42.4612V52.7807C38.2305 53.9761 39.2032 54.9489 40.3987 54.9489H50.7178ZM40.1149 52.7807V42.4612C40.1149 42.3048 40.2423 42.1774 40.3987 42.1774H50.7182C50.8746 42.1774 51.002 42.3048 51.002 42.4612V52.7807C51.002 52.9371 50.8746 53.0644 50.7182 53.0644H40.3987C40.2423 53.0644 40.1149 52.9371 40.1149 52.7807Z" fill="#37AB87"/>
<path d="M45.5581 46.8219C46.0786 46.8219 46.5003 46.4002 46.5003 45.8797C46.5003 45.3592 46.0786 44.9375 45.5581 44.9375H43.2078C42.6874 44.9375 42.2656 45.3592 42.2656 45.8797C42.2656 46.4002 42.6874 46.8219 43.2078 46.8219H45.5581Z" fill="#37AB87"/>
<path d="M47.9087 50.1735C48.4292 50.1735 48.8509 49.7518 48.8509 49.2313C48.8509 48.7108 48.4292 48.2891 47.9087 48.2891H43.2078C42.6874 48.2891 42.2656 48.7108 42.2656 49.2313C42.2656 49.7518 42.6874 50.1735 43.2078 50.1735H47.9087Z" fill="#37AB87"/>
<path d="M75.2532 47.6207C75.2532 43.5802 71.9656 40.293 67.9254 40.293C63.8852 40.293 60.5977 43.5805 60.5977 47.6207C60.5977 51.6609 63.8852 54.9485 67.9254 54.9485C71.9656 54.9485 75.2532 51.6609 75.2532 47.6207ZM62.4817 47.6207C62.4817 44.6192 64.9235 42.1774 67.925 42.1774C70.9266 42.1774 73.3684 44.6192 73.3684 47.6207C73.3684 50.6222 70.9266 53.0641 67.925 53.0641C64.9235 53.0641 62.4817 50.6222 62.4817 47.6207Z" fill="#37AB87"/>
<path d="M67.9253 46.8219C68.4457 46.8219 68.8675 46.4002 68.8675 45.8797C68.8675 45.3592 68.4457 44.9375 67.9253 44.9375H65.575C65.0545 44.9375 64.6328 45.3592 64.6328 45.8797C64.6328 46.4002 65.0545 46.8219 65.575 46.8219H67.9253Z" fill="#37AB87"/>
<path d="M70.2759 50.1735C70.7964 50.1735 71.2181 49.7518 71.2181 49.2313C71.2181 48.7108 70.7964 48.2891 70.2759 48.2891H65.575C65.0545 48.2891 64.6328 48.7108 64.6328 49.2313C64.6328 49.7518 65.0545 50.1735 65.575 50.1735H70.2759Z" fill="#37AB87"/>
<path d="M30.5188 47.6207C30.5188 43.5802 27.2312 40.293 23.191 40.293C19.1508 40.293 15.8633 43.5805 15.8633 47.6207C15.8633 51.6609 19.1508 54.9485 23.191 54.9485C27.2312 54.9485 30.5188 51.6609 30.5188 47.6207ZM17.7473 47.6207C17.7473 44.6192 20.1892 42.1774 23.1907 42.1774C26.1922 42.1774 28.634 44.6192 28.634 47.6207C28.634 50.6222 26.1922 53.0641 23.1907 53.0641C20.1892 53.0641 17.7473 50.6222 17.7473 47.6207Z" fill="#37AB87"/>
<path d="M23.1909 46.8219C23.7114 46.8219 24.1331 46.4002 24.1331 45.8797C24.1331 45.3592 23.7114 44.9375 23.1909 44.9375H20.8406C20.3202 44.9375 19.8984 45.3592 19.8984 45.8797C19.8984 46.4002 20.3202 46.8219 20.8406 46.8219H23.1909Z" fill="#37AB87"/>
<path d="M25.5415 50.1735C26.062 50.1735 26.4837 49.7518 26.4837 49.2313C26.4837 48.7108 26.062 48.2891 25.5415 48.2891H20.8406C20.3202 48.2891 19.8984 48.7108 19.8984 49.2313C19.8984 49.7518 20.3202 50.1735 20.8406 50.1735H25.5415Z" fill="#37AB87"/>
<path d="M33.4258 19.8783V22.2342C33.4258 23.1372 34.0363 23.926 34.9111 24.1522L36.8675 24.6564L35.8393 26.398C35.3814 27.1763 35.5081 28.1656 36.1461 28.8033L37.8116 30.4687C38.4497 31.1076 39.4397 31.2338 40.2187 30.7751L41.9588 29.7478L42.4635 31.7053C42.6896 32.5793 43.478 33.1898 44.3814 33.1898H44.617V35.741H38.5654C35.7745 35.741 33.5038 38.0113 33.5038 40.8022V54.0071C33.5038 54.5275 33.9255 54.9493 34.446 54.9493C34.9665 54.9493 35.3882 54.5275 35.3882 54.0071V40.8022C35.3882 39.0508 36.8132 37.6254 38.5654 37.6254H52.5527C54.3044 37.6254 55.7298 39.0504 55.7298 40.8022V54.0071C55.7298 54.5275 56.1515 54.9493 56.672 54.9493C57.1925 54.9493 57.6142 54.5275 57.6142 54.0071V40.8022C57.6142 38.0117 55.3439 35.741 52.5527 35.741H46.5018V33.1898H46.7373C47.64 33.1898 48.4284 32.5797 48.6557 31.7045L49.16 29.7478L50.9008 30.7755C51.679 31.2334 52.6684 31.1079 53.3068 30.4691L54.9723 28.8037C55.6111 28.1656 55.7373 27.1763 55.2787 26.3965L54.2513 24.6564L56.2088 24.1518C57.0828 23.9256 57.6934 23.1376 57.6934 22.2342V19.8783C57.6934 18.9756 57.0832 18.1872 56.2081 17.9599L54.2513 17.4557L55.2787 15.7152C55.7373 14.9373 55.6118 13.9476 54.9726 13.3088L53.3064 11.6426C52.6684 11.0049 51.6787 10.879 50.9 11.337L49.16 12.3643L48.6553 10.406C48.4284 9.53243 47.64 8.92188 46.7373 8.92188H44.3818C43.4788 8.92188 42.69 9.53243 42.4638 10.4064C42.4635 10.4068 42.4635 10.4068 42.4635 10.4072L41.9592 12.364L40.2184 11.3362C39.4409 10.8779 38.4512 11.0038 37.8123 11.6426L36.1465 13.3084C35.5081 13.9465 35.3822 14.9358 35.8401 15.7152L36.8675 17.4553L34.91 17.9599C34.036 18.1868 33.4258 18.9756 33.4258 19.8783ZM35.3102 19.8783C35.3102 19.8342 35.34 19.7954 35.3814 19.7848L38.551 18.9681C38.8378 18.8942 39.073 18.69 39.1865 18.4163C39.2999 18.1424 39.278 17.8318 39.1277 17.5766L37.4641 14.7587C37.4419 14.7202 37.4479 14.6724 37.4792 14.6407L39.145 12.9749C39.1763 12.9436 39.2238 12.9372 39.2618 12.9598L42.0806 14.6234C42.3353 14.773 42.6463 14.796 42.9203 14.6822C43.1939 14.5687 43.3981 14.3336 43.472 14.0468L44.2891 10.8775C44.3 10.8353 44.3385 10.8059 44.3826 10.8059H46.7381C46.7822 10.8059 46.821 10.8357 46.8316 10.8772L47.6483 14.0468C47.7221 14.3336 47.9264 14.5687 48.2 14.6822C48.474 14.7956 48.785 14.7734 49.0397 14.6234L51.8581 12.9602C51.8958 12.9383 51.9448 12.944 51.9757 12.9749L53.6415 14.6407C53.6724 14.672 53.6788 14.7199 53.6566 14.7576L51.993 17.5763C51.8426 17.8314 51.8208 18.142 51.9342 18.416C52.0476 18.6896 52.2828 18.8939 52.5696 18.9677L55.7377 19.7841C55.7807 19.795 55.8105 19.8338 55.8105 19.8779V22.2338C55.8105 22.2775 55.7807 22.3163 55.7392 22.3269L52.5696 23.1436C52.2828 23.2175 52.0476 23.4218 51.9342 23.6954C51.8208 23.9694 51.8426 24.2799 51.993 24.5351L53.6562 27.3534C53.6788 27.3915 53.6728 27.4397 53.6415 27.471L51.9757 29.1368C51.9444 29.1677 51.8961 29.1745 51.8588 29.1523L49.0401 27.4883C48.785 27.3383 48.474 27.3161 48.2004 27.4295C47.9268 27.543 47.7225 27.7782 47.6486 28.065L46.8323 31.2334C46.8214 31.2764 46.7826 31.3062 46.7385 31.3062H44.3829C44.3388 31.3062 44.3 31.2764 44.2895 31.2349L43.4724 28.065C43.3985 27.7782 43.1943 27.543 42.9203 27.4295C42.8046 27.3813 42.6821 27.3579 42.56 27.3579C42.3937 27.3579 42.2279 27.402 42.0809 27.4887L39.263 29.1523C39.2257 29.1749 39.1767 29.1689 39.1454 29.1372L37.4792 27.471C37.4483 27.4401 37.4422 27.3915 37.4641 27.3545L39.128 24.5358C39.2784 24.2807 39.3003 23.9701 39.1868 23.6961C39.0734 23.4225 38.8382 23.2182 38.5514 23.1444L35.3826 22.3277C35.34 22.3171 35.3106 22.2783 35.3106 22.2346L35.3102 19.8783Z" fill="#37AB87"/>
<path d="M50.309 21.0568C50.309 18.4363 48.1773 16.3047 45.5568 16.3047C42.9363 16.3047 40.8047 18.4363 40.8047 21.0568C40.8047 23.6773 42.9363 25.8093 45.5568 25.8093C48.1773 25.8093 50.309 23.6777 50.309 21.0568ZM42.6891 21.0568C42.6891 19.4754 43.9754 18.1891 45.5568 18.1891C47.1382 18.1891 48.4245 19.4754 48.4245 21.0568C48.4245 22.6382 47.1382 23.9245 45.5568 23.9245C43.9754 23.9245 42.6891 22.6386 42.6891 21.0568Z" fill="#37AB87"/>
<path d="M56.6721 53.4427C57.1926 53.4427 57.6143 53.0209 57.6143 52.5005V39.2956C57.6143 36.5051 55.344 34.2344 52.5528 34.2344H38.5655C35.7746 34.2344 33.5039 36.5047 33.5039 39.2956V52.5005C33.5039 53.0209 33.9256 53.4427 34.4461 53.4427C34.9666 53.4427 35.3883 53.0209 35.3883 52.5005V39.2956C35.3883 37.5442 36.8133 36.1188 38.5655 36.1188H52.5528C54.3045 36.1188 55.7299 37.5438 55.7299 39.2956V52.5005C55.7299 53.0209 56.1516 53.4427 56.6721 53.4427Z" fill="#2F796C"/>
<path d="M46.5016 35.1743V30.7391C46.5016 30.2186 46.0799 29.7969 45.5594 29.7969C45.0389 29.7969 44.6172 30.2186 44.6172 30.7391V35.1746C44.6172 35.6951 45.0389 36.1168 45.5594 36.1168C46.0799 36.1168 46.5016 35.6947 46.5016 35.1743Z" fill="#2F796C"/>
<path d="M52.886 65.5699C52.886 61.5294 49.5984 58.2422 45.5582 58.2422C41.518 58.2422 38.2305 61.5297 38.2305 65.5699C38.2305 69.6102 41.518 72.8977 45.5582 72.8977C49.5984 72.8977 52.886 69.6105 52.886 65.5699ZM40.1149 65.5699C40.1149 62.5684 42.5567 60.1266 45.5582 60.1266C48.5597 60.1266 51.0016 62.5684 51.0016 65.5699C51.0016 68.5715 48.5597 71.0133 45.5582 71.0133C42.5567 71.0133 40.1149 68.5715 40.1149 65.5699Z" fill="#307F6F"/>
<path d="M45.5581 64.7711C46.0786 64.7711 46.5003 64.3494 46.5003 63.8289C46.5003 63.3085 46.0786 62.8867 45.5581 62.8867H43.2078C42.6874 62.8867 42.2656 63.3085 42.2656 63.8289C42.2656 64.3494 42.6874 64.7711 43.2078 64.7711H45.5581Z" fill="#307F6F"/>
<path d="M47.9087 68.1227C48.4292 68.1227 48.8509 67.701 48.8509 67.1805C48.8509 66.66 48.4292 66.2383 47.9087 66.2383H43.2078C42.6874 66.2383 42.2656 66.66 42.2656 67.1805C42.2656 67.701 42.6874 68.1227 43.2078 68.1227H47.9087Z" fill="#307F6F"/>
<path d="M73.0853 72.8981C74.2808 72.8981 75.2536 71.9254 75.2536 70.7299V60.4104C75.2536 59.2149 74.2808 58.2422 73.0853 58.2422H62.7662C61.5704 58.2422 60.5977 59.2149 60.5977 60.4104V70.7299C60.5977 71.9254 61.5704 72.8981 62.7662 72.8981H73.0853ZM62.4821 70.7299V60.4104C62.4821 60.254 62.6095 60.1266 62.7662 60.1266H73.0853C73.2418 60.1266 73.3691 60.254 73.3691 60.4104V70.7299C73.3691 70.8863 73.2418 71.0137 73.0853 71.0137H62.7662C62.6095 71.0137 62.4821 70.8863 62.4821 70.7299Z" fill="#307F6F"/>
<path d="M67.9253 64.7711C68.4457 64.7711 68.8675 64.3494 68.8675 63.8289C68.8675 63.3085 68.4457 62.8867 67.9253 62.8867H65.575C65.0545 62.8867 64.6328 63.3085 64.6328 63.8289C64.6328 64.3494 65.0545 64.7711 65.575 64.7711H67.9253Z" fill="#307F6F"/>
<path d="M70.2759 68.1227C70.7964 68.1227 71.2181 67.701 71.2181 67.1805C71.2181 66.66 70.7964 66.2383 70.2759 66.2383H65.575C65.0545 66.2383 64.6328 66.66 64.6328 67.1805C64.6328 67.701 65.0545 68.1227 65.575 68.1227H70.2759Z" fill="#307F6F"/>
<path d="M28.3506 72.8981C29.5464 72.8981 30.5192 71.9254 30.5192 70.7299V60.4104C30.5192 59.2149 29.5464 58.2422 28.3506 58.2422H18.0315C16.836 58.2422 15.8633 59.2149 15.8633 60.4104V70.7299C15.8633 71.9254 16.836 72.8981 18.0315 72.8981H28.3506ZM17.7477 70.7299V60.4104C17.7477 60.254 17.8751 60.1266 18.0315 60.1266H28.3506C28.5074 60.1266 28.6348 60.254 28.6348 60.4104V70.7299C28.6348 70.8863 28.5074 71.0137 28.3506 71.0137H18.0315C17.8751 71.0137 17.7477 70.8863 17.7477 70.7299Z" fill="#307F6F"/>
<path d="M23.1909 64.7711C23.7114 64.7711 24.1331 64.3494 24.1331 63.8289C24.1331 63.3085 23.7114 62.8867 23.1909 62.8867H20.8406C20.3202 62.8867 19.8984 63.3085 19.8984 63.8289C19.8984 64.3494 20.3202 64.7711 20.8406 64.7711H23.1909Z" fill="#307F6F"/>
<path d="M25.5415 68.1227C26.062 68.1227 26.4837 67.701 26.4837 67.1805C26.4837 66.66 26.062 66.2383 25.5415 66.2383H20.8406C20.3202 66.2383 19.8984 66.66 19.8984 67.1805C19.8984 67.701 20.3202 68.1227 20.8406 68.1227H25.5415Z" fill="#307F6F"/>
<path d="M50.7178 53.4411C51.9133 53.4411 52.886 52.4683 52.886 51.2728V40.9534C52.886 39.7579 51.9133 38.7852 50.7178 38.7852H40.3987C39.2032 38.7852 38.2305 39.7579 38.2305 40.9534V51.2728C38.2305 52.4683 39.2032 53.4411 40.3987 53.4411H50.7178ZM40.1149 51.2728V40.9534C40.1149 40.797 40.2423 40.6696 40.3987 40.6696H50.7182C50.8746 40.6696 51.002 40.797 51.002 40.9534V51.2728C51.002 51.4293 50.8746 51.5566 50.7182 51.5566H40.3987C40.2423 51.5566 40.1149 51.4293 40.1149 51.2728Z" fill="#307F6F"/>
<path d="M45.5581 45.3141C46.0786 45.3141 46.5003 44.8924 46.5003 44.3719C46.5003 43.8514 46.0786 43.4297 45.5581 43.4297H43.2078C42.6874 43.4297 42.2656 43.8514 42.2656 44.3719C42.2656 44.8924 42.6874 45.3141 43.2078 45.3141H45.5581Z" fill="#307F6F"/>
<path d="M47.9087 48.6657C48.4292 48.6657 48.8509 48.2439 48.8509 47.7235C48.8509 47.203 48.4292 46.7812 47.9087 46.7812H43.2078C42.6874 46.7812 42.2656 47.203 42.2656 47.7235C42.2656 48.2439 42.6874 48.6657 43.2078 48.6657H47.9087Z" fill="#307F6F"/>
<path d="M75.2532 46.1129C75.2532 42.0723 71.9656 38.7852 67.9254 38.7852C63.8852 38.7852 60.5977 42.0727 60.5977 46.1129C60.5977 50.1531 63.8852 53.4407 67.9254 53.4407C71.9656 53.4407 75.2532 50.1531 75.2532 46.1129ZM62.4817 46.1129C62.4817 43.1114 64.9235 40.6696 67.925 40.6696C70.9266 40.6696 73.3684 43.1114 73.3684 46.1129C73.3684 49.1144 70.9266 51.5563 67.925 51.5563C64.9235 51.5563 62.4817 49.1144 62.4817 46.1129Z" fill="#307F6F"/>
<path d="M67.9253 45.3141C68.4457 45.3141 68.8675 44.8924 68.8675 44.3719C68.8675 43.8514 68.4457 43.4297 67.9253 43.4297H65.575C65.0545 43.4297 64.6328 43.8514 64.6328 44.3719C64.6328 44.8924 65.0545 45.3141 65.575 45.3141H67.9253Z" fill="#307F6F"/>
<path d="M70.2759 48.6657C70.7964 48.6657 71.2181 48.2439 71.2181 47.7235C71.2181 47.203 70.7964 46.7812 70.2759 46.7812H65.575C65.0545 46.7812 64.6328 47.203 64.6328 47.7235C64.6328 48.2439 65.0545 48.6657 65.575 48.6657H70.2759Z" fill="#307F6F"/>
<path d="M30.5188 46.1129C30.5188 42.0723 27.2312 38.7852 23.191 38.7852C19.1508 38.7852 15.8633 42.0727 15.8633 46.1129C15.8633 50.1531 19.1508 53.4407 23.191 53.4407C27.2312 53.4407 30.5188 50.1531 30.5188 46.1129ZM17.7473 46.1129C17.7473 43.1114 20.1892 40.6696 23.1907 40.6696C26.1922 40.6696 28.634 43.1114 28.634 46.1129C28.634 49.1144 26.1922 51.5563 23.1907 51.5563C20.1892 51.5563 17.7473 49.1144 17.7473 46.1129Z" fill="#307F6F"/>
<path d="M23.1909 45.3141C23.7114 45.3141 24.1331 44.8924 24.1331 44.3719C24.1331 43.8514 23.7114 43.4297 23.1909 43.4297H20.8406C20.3202 43.4297 19.8984 43.8514 19.8984 44.3719C19.8984 44.8924 20.3202 45.3141 20.8406 45.3141H23.1909Z" fill="#307F6F"/>
<path d="M25.5415 48.6657C26.062 48.6657 26.4837 48.2439 26.4837 47.7235C26.4837 47.203 26.062 46.7812 25.5415 46.7812H20.8406C20.3202 46.7812 19.8984 47.203 19.8984 47.7235C19.8984 48.2439 20.3202 48.6657 20.8406 48.6657H25.5415Z" fill="#307F6F"/>
<path d="M33.4258 18.3705V20.7264C33.4258 21.6294 34.0363 22.4182 34.9111 22.6443L36.8675 23.1486L35.8393 24.8902C35.3814 25.6685 35.5081 26.6578 36.1461 27.2955L37.8116 28.9609C38.4497 29.5997 39.4397 29.726 40.2187 29.2673L41.9588 28.2399L42.4635 30.1975C42.6896 31.0715 43.478 31.682 44.3814 31.682H46.737C47.6396 31.682 48.428 31.0719 48.6553 30.1967L49.1596 28.2399L50.9004 29.2677C51.6787 29.7256 52.668 29.6001 53.3064 28.9613L54.9719 27.2958C55.6107 26.6578 55.737 25.6685 55.2783 24.8887L54.2509 23.1486L56.2084 22.644C57.0824 22.4178 57.693 21.6298 57.693 20.7264V18.3705C57.693 17.4678 57.0828 16.6794 56.2077 16.4521L54.2509 15.9479L55.2783 14.2074C55.737 13.4295 55.6115 12.4398 54.9723 11.801L53.3061 10.1348C52.668 9.4971 51.6783 9.37122 50.8997 9.82914L49.1596 10.8565L48.6549 8.89823C48.428 8.02462 47.6396 7.41406 46.737 7.41406H44.3814C43.4784 7.41406 42.6896 8.02461 42.4635 8.89861C42.4631 8.89899 42.4631 8.89899 42.4631 8.89936L41.9588 10.8561L40.218 9.82838C39.4405 9.37009 38.4508 9.4956 37.812 10.1348L36.1461 11.8006C35.5077 12.4387 35.3818 13.428 35.8397 14.2074L36.8671 15.9475L34.9096 16.4521C34.036 16.679 33.4258 17.4678 33.4258 18.3705ZM35.3102 18.3705C35.3102 18.3264 35.34 18.2876 35.3814 18.277L38.551 17.4603C38.8378 17.3864 39.073 17.1822 39.1865 16.9085C39.2999 16.6345 39.278 16.324 39.1277 16.0688L37.4641 13.2509C37.4419 13.2124 37.4479 13.1646 37.4792 13.1329L39.145 11.4671C39.1763 11.4358 39.2238 11.4298 39.2618 11.452L42.0806 13.1156C42.3353 13.2652 42.6463 13.2882 42.9203 13.1744C43.1939 13.0609 43.3981 12.8257 43.472 12.5389L44.2891 9.36972C44.3 9.32751 44.3385 9.29811 44.3826 9.29811H46.7381C46.7822 9.29811 46.821 9.32788 46.8316 9.36934L47.6483 12.5389C47.7221 12.8257 47.9264 13.0609 48.2 13.1744C48.474 13.2878 48.785 13.2656 49.0397 13.1156L51.8581 11.4524C51.8958 11.4309 51.9448 11.4362 51.9757 11.4671L53.6415 13.1329C53.6724 13.1642 53.6788 13.2121 53.6566 13.2497L51.993 16.0685C51.8426 16.3236 51.8208 16.6342 51.9342 16.9082C52.0476 17.1818 52.2828 17.386 52.5696 17.4599L55.7377 18.2762C55.7807 18.2872 55.8105 18.326 55.8105 18.3701V20.726C55.8105 20.7697 55.7807 20.8085 55.7392 20.8191L52.5696 21.6358C52.2828 21.7097 52.0476 21.9139 51.9342 22.1876C51.8208 22.4616 51.8426 22.7721 51.993 23.0273L53.6562 25.8456C53.6788 25.8837 53.6728 25.9319 53.6415 25.9632L51.9757 27.629C51.9444 27.6599 51.8961 27.6667 51.8588 27.6445L49.0401 25.9805C48.785 25.8305 48.474 25.8083 48.2004 25.9217C47.9268 26.0352 47.7225 26.2703 47.6486 26.5572L46.8323 29.7256C46.8214 29.7686 46.7826 29.7984 46.7385 29.7984H44.3829C44.3388 29.7984 44.3 29.7686 44.2895 29.7271L43.4724 26.5572C43.3985 26.2703 43.1942 26.0352 42.9203 25.9217C42.8046 25.8735 42.6821 25.8501 42.56 25.8501C42.3937 25.8501 42.2279 25.8942 42.0809 25.9809L39.263 27.6445C39.2257 27.6667 39.1767 27.6607 39.1454 27.6294L37.4792 25.9632C37.4483 25.9323 37.4422 25.8837 37.4641 25.8467L39.128 23.028C39.2784 22.7729 39.3003 22.4623 39.1868 22.1883C39.0734 21.9147 38.8382 21.7104 38.5514 21.6366L35.3826 20.8198C35.34 20.8093 35.3106 20.7705 35.3106 20.7268L35.3102 18.3705Z" fill="#2F796C"/>
<path d="M35.2389 21.3687L38.4078 22.1854C38.522 22.2148 38.6169 22.2973 38.6618 22.4059C38.707 22.5148 38.6983 22.6407 38.6384 22.7417L36.9745 25.5608C36.8215 25.8204 36.8633 26.1506 37.0766 26.3639L38.7428 28.0301C38.8679 28.1552 39.0341 28.2242 39.2113 28.2242C39.33 28.2242 39.4468 28.1922 39.5475 28.1326L42.3647 26.4694C42.4231 26.4351 42.4894 26.417 42.5565 26.417C42.6063 26.417 42.6545 26.4265 42.7005 26.4457C42.8094 26.4909 42.8919 26.5859 42.9213 26.6997L43.7384 29.8689C43.8134 30.161 44.0769 30.3653 44.3795 30.3653H46.735C47.0377 30.3653 47.3015 30.1606 47.3765 29.8682L48.1928 26.6997C48.2222 26.5855 48.3047 26.4905 48.4137 26.4453C48.4596 26.4261 48.5079 26.4167 48.5576 26.4167C48.6251 26.4167 48.6918 26.4348 48.7495 26.4687L51.5671 28.1319C51.6688 28.1922 51.7849 28.2242 51.9036 28.2242C52.0793 28.2242 52.2451 28.156 52.3725 28.0301L54.0383 26.3643C54.252 26.1506 54.2938 25.8193 54.1401 25.5596L52.4769 22.7413C52.4169 22.6399 52.4083 22.5144 52.4535 22.4055C52.4987 22.2966 52.5937 22.214 52.7075 22.1846L55.8767 21.3679C56.1688 21.2929 56.3731 21.0295 56.3731 20.7272V18.3713C56.3731 18.0687 56.1684 17.8049 55.876 17.7299L52.7079 16.9135C52.5937 16.8841 52.4987 16.8016 52.4539 16.693C52.4086 16.5841 52.4173 16.4582 52.4772 16.3572L54.1412 13.5378C54.2931 13.2796 54.2516 12.9502 54.0387 12.7346L52.3755 11.0714C52.2526 10.9471 52.0811 10.8755 51.9051 10.8755C51.7898 10.8755 51.6764 10.9056 51.5686 10.967L48.7506 12.6302C48.6926 12.6645 48.6262 12.6826 48.5588 12.6826C48.509 12.6826 48.4604 12.6728 48.4144 12.654C48.3055 12.6087 48.223 12.5138 48.1936 12.4L47.3769 9.23073C47.3019 8.93865 47.0384 8.73438 46.7358 8.73438H44.3803C44.0791 8.73438 43.8157 8.93752 43.7392 9.23035L42.9221 12.3996C42.8927 12.5138 42.8102 12.6087 42.7009 12.654C42.6553 12.6728 42.607 12.6826 42.5576 12.6826C42.4902 12.6826 42.4235 12.6645 42.3654 12.6306L39.5441 10.9655C39.4431 10.9067 39.3277 10.8755 39.2105 10.8755C39.0341 10.8755 38.8679 10.9444 38.7428 11.0696L37.077 12.7354C36.8656 12.9468 36.8222 13.2758 36.9748 13.5404L38.6384 16.358C38.6983 16.4594 38.707 16.5849 38.6618 16.6938C38.6166 16.8027 38.5216 16.8853 38.4078 16.9147L35.2385 17.7314C34.9465 17.8064 34.7422 18.0698 34.7422 18.3724V20.7283C34.7426 21.0321 34.9483 21.2959 35.2389 21.3687ZM35.3079 18.3721C35.3079 18.328 35.3377 18.2891 35.3791 18.2786L38.5487 17.4619C38.8355 17.388 39.0707 17.1837 39.1841 16.9101C39.2976 16.6361 39.2757 16.3256 39.1254 16.0704L37.4618 13.2525C37.4395 13.214 37.4456 13.1662 37.4769 13.1345L39.1427 11.4687C39.1615 11.4498 39.186 11.4404 39.2105 11.4404C39.2271 11.4404 39.2441 11.4446 39.2591 11.4536L42.0779 13.1172C42.2249 13.2035 42.3907 13.2479 42.5573 13.2479C42.6794 13.2479 42.8015 13.2242 42.9176 13.1763C43.1912 13.0629 43.3955 12.8277 43.4693 12.5409L44.2864 9.37169C44.2973 9.32948 44.3358 9.30008 44.3799 9.30008H46.7354C46.7795 9.30008 46.8183 9.32985 46.8289 9.37131L47.6456 12.5409C47.7194 12.8277 47.9237 13.0629 48.1973 13.1763C48.3134 13.2242 48.4359 13.2479 48.558 13.2479C48.7242 13.2479 48.8901 13.2038 49.037 13.1175L51.8554 11.4544C51.8705 11.4457 51.8878 11.4415 51.9048 11.4415C51.9296 11.4415 51.9545 11.451 51.9726 11.469L53.6384 13.1349C53.6693 13.1662 53.6757 13.214 53.6535 13.2517L51.9899 16.0704C51.8395 16.3256 51.8177 16.6361 51.9311 16.9101C52.0446 17.1837 52.2798 17.388 52.5666 17.4619L55.7347 18.2782C55.7776 18.2892 55.8074 18.328 55.8074 18.3721V20.728C55.8074 20.7717 55.7776 20.8105 55.7362 20.8211L52.5666 21.6378C52.2798 21.7116 52.0446 21.9159 51.9311 22.1895C51.8177 22.4635 51.8395 22.7741 51.9899 23.0292L53.6531 25.8476C53.6757 25.8856 53.6697 25.9339 53.6384 25.9652L51.9726 27.631C51.9537 27.6498 51.9289 27.6593 51.9036 27.6593C51.887 27.6593 51.8708 27.6551 51.8558 27.6464L49.037 25.9825C48.8901 25.8958 48.7242 25.8521 48.558 25.8521C48.4359 25.8521 48.3134 25.8758 48.1977 25.9237C47.9241 26.0371 47.7198 26.2723 47.646 26.5591L46.8296 29.7276C46.8187 29.7706 46.7799 29.8003 46.7358 29.8003H44.3803C44.3362 29.8003 44.2973 29.7706 44.2868 29.7291L43.4697 26.5591C43.3958 26.2723 43.1916 26.0371 42.9176 25.9237C42.8019 25.8755 42.6794 25.8521 42.5573 25.8521C42.3911 25.8521 42.2252 25.8962 42.0782 25.9829L39.2603 27.6464C39.2452 27.6555 39.2286 27.6596 39.2117 27.6596C39.1868 27.6596 39.1615 27.6498 39.1431 27.6314L37.4769 25.9652C37.446 25.9342 37.4399 25.8856 37.4618 25.8487L39.1257 23.03C39.2761 22.7748 39.298 22.4643 39.1845 22.1903C39.0711 21.9167 38.8359 21.7124 38.5491 21.6385L35.3803 20.8218C35.3377 20.8113 35.3083 20.7724 35.3083 20.7287L35.3079 18.3721Z" fill="#2F796C"/>
<path d="M33.4258 18.3705V20.7264C33.4258 21.6294 34.0363 22.4182 34.9111 22.6443L36.8675 23.1486L35.8393 24.8902C35.3814 25.6685 35.5081 26.6578 36.1461 27.2955L37.8116 28.9609C38.1934 29.3431 38.7007 29.5417 39.2136 29.5417C39.5584 29.5417 39.9056 29.452 40.2187 29.2673L41.9588 28.2399L42.4635 30.1975C42.6896 31.0715 43.478 31.682 44.3814 31.682H44.617V34.2332H38.5654C35.7745 34.2332 33.5038 36.5035 33.5038 39.2943V52.4992C33.5038 53.0197 33.9255 53.4415 34.446 53.4415C34.9665 53.4415 35.3882 53.0197 35.3882 52.4992V39.2943C35.3882 37.543 36.8132 36.1176 38.5654 36.1176H52.5527C54.3044 36.1176 55.7298 37.5426 55.7298 39.2943V52.4992C55.7298 53.0197 56.1515 53.4415 56.672 53.4415C57.1925 53.4415 57.6142 53.0197 57.6142 52.4992V39.2943C57.6142 36.5039 55.3439 34.2332 52.5527 34.2332H46.5018V31.682H46.7373C47.64 31.682 48.4284 31.0719 48.6557 30.1967L49.16 28.2399L50.9008 29.2677C51.214 29.452 51.5611 29.5417 51.9056 29.5417C52.4181 29.5417 52.925 29.3431 53.3068 28.9613L54.9723 27.2958C55.6111 26.6578 55.7373 25.6685 55.2787 24.8887L54.2513 23.1486L56.2088 22.644C57.0828 22.4178 57.6934 21.6298 57.6934 20.7264V18.3705C57.6934 17.4678 57.0832 16.6794 56.2081 16.4521L54.2513 15.9479L55.2787 14.2074C55.7373 13.4295 55.6118 12.4398 54.9726 11.801L53.3064 10.1348C52.925 9.75376 52.4177 9.55514 51.9056 9.55514C51.5607 9.55514 51.2136 9.64484 50.9004 9.82914L49.1603 10.8565L48.6557 8.89823C48.4288 8.02462 47.6404 7.41406 46.7377 7.41406H44.3822C43.4792 7.41406 42.6904 8.02461 42.4642 8.89861L42.4638 8.89936L41.9596 10.8561L40.2187 9.82838C39.9059 9.64409 39.5588 9.55401 39.214 9.55401C38.7018 9.55401 38.1945 9.75263 37.8127 10.1344L36.1469 11.8002C35.5084 12.4383 35.3826 13.4276 35.8405 14.207L36.8679 15.9471L34.9103 16.4518C34.036 16.679 33.4258 17.4678 33.4258 18.3705ZM37.0088 16.4955C37.1807 16.4514 37.322 16.3285 37.3899 16.1646C37.4577 16.0006 37.4449 15.8137 37.3544 15.661L36.3278 13.9217C36.0003 13.3647 36.09 12.6577 36.5464 12.2012L38.2122 10.5354C38.4794 10.2682 38.8352 10.1208 39.2136 10.1208C39.4657 10.1208 39.7137 10.1887 39.9308 10.3164L41.6716 11.3442C41.7598 11.3962 41.8593 11.4226 41.9592 11.4226C42.0323 11.4226 42.1062 11.4083 42.1755 11.3796C42.3395 11.3118 42.4623 11.1705 42.5068 10.9986L43.0077 9.05426C43.0088 9.05012 43.01 9.04559 43.0111 9.04145C43.1724 8.41695 43.7362 7.98052 44.3818 7.98052H46.7373C47.3822 7.98052 47.946 8.41658 48.1077 9.04032L48.6123 10.9986C48.6568 11.1708 48.7793 11.3118 48.9436 11.3796C49.013 11.4083 49.0865 11.4226 49.16 11.4226C49.2598 11.4226 49.3593 11.3962 49.4475 11.3442L51.1868 10.3172C51.4047 10.1891 51.653 10.1212 51.9052 10.1212C52.2836 10.1212 52.6394 10.2682 52.9066 10.535L54.5728 12.2012C55.0292 12.6573 55.1189 13.3643 54.7914 13.9202L53.7644 15.6607C53.6739 15.8137 53.6607 16.0002 53.7289 16.1642C53.7971 16.3281 53.9381 16.451 54.1103 16.4955L56.0664 16.9994C56.6916 17.1614 57.1284 17.7256 57.1284 18.3705V20.7264C57.1284 21.3716 56.692 21.935 56.0679 22.0963L54.1103 22.601C53.9381 22.6455 53.7971 22.768 53.7293 22.9323C53.6615 23.0966 53.6743 23.2832 53.7647 23.4358L54.7917 25.1755C55.1196 25.7325 55.0296 26.4396 54.5728 26.896L52.9069 28.5614C52.6397 28.8286 52.2843 28.976 51.9059 28.976C51.6538 28.976 51.4054 28.9082 51.1883 28.7804L49.4475 27.7526C49.3593 27.7006 49.2598 27.6742 49.16 27.6742C49.0868 27.6742 49.013 27.6886 48.9436 27.7172C48.7793 27.785 48.6568 27.9264 48.6123 28.0982L48.1084 30.0543C47.946 30.6795 47.3822 31.1163 46.7373 31.1163H46.5018C46.1897 31.1163 45.9365 31.3696 45.9365 31.6817V34.2328C45.9365 34.5448 46.1897 34.7981 46.5018 34.7981H52.5534C55.0326 34.7981 57.0497 36.8148 57.0497 39.294V52.4989C57.0497 52.7069 56.8804 52.8757 56.6728 52.8757C56.4651 52.8757 56.2959 52.7069 56.2959 52.4989V39.294C56.2959 37.2305 54.6172 35.5519 52.5534 35.5519H38.5661C36.5027 35.5519 34.8236 37.2305 34.8236 39.294V52.4989C34.8236 52.7069 34.6544 52.8757 34.4468 52.8757C34.2391 52.8757 34.0699 52.7069 34.0699 52.4989V39.294C34.0699 36.8148 36.087 34.7981 38.5661 34.7981H44.6174C44.9294 34.7981 45.1827 34.5448 45.1827 34.2328V31.6817C45.1827 31.3696 44.9294 31.1163 44.6174 31.1163H44.3818C43.7362 31.1163 43.1728 30.6803 43.0115 30.0558L42.5068 28.0982C42.4623 27.9264 42.3399 27.785 42.1755 27.7172C42.1062 27.6886 42.0327 27.6742 41.9592 27.6742C41.8593 27.6742 41.7598 27.7006 41.6716 27.7526L39.9319 28.7796C39.7141 28.9078 39.4657 28.9756 39.2136 28.9756C38.8348 28.9756 38.479 28.8283 38.2115 28.5603L36.5456 26.8945C36.0896 26.4388 35.9991 25.7322 36.3259 25.1766L37.354 23.435C37.4445 23.282 37.4573 23.0955 37.3895 22.9315C37.3216 22.7672 37.1803 22.6447 37.0081 22.6002L35.0517 22.096C34.4268 21.9347 33.99 21.3708 33.99 20.7256V18.3697C33.99 17.7245 34.426 17.1607 35.0502 16.9994L37.0088 16.4955Z" fill="#064C40"/>
<path d="M50.309 19.549C50.309 16.9285 48.1773 14.7969 45.5568 14.7969C42.9363 14.7969 40.8047 16.9285 40.8047 19.549C40.8047 22.1695 42.9363 24.3015 45.5568 24.3015C48.1773 24.3015 50.309 22.1699 50.309 19.549ZM42.6891 19.549C42.6891 17.9676 43.9754 16.6813 45.5568 16.6813C47.1382 16.6813 48.4245 17.9676 48.4245 19.549C48.4245 21.1304 47.1382 22.4167 45.5568 22.4167C43.9754 22.4167 42.6891 21.1308 42.6891 19.549Z" fill="#FCFFFF"/>
<path d="M50.309 19.549C50.309 16.9285 48.1773 14.7969 45.5568 14.7969C42.9363 14.7969 40.8047 16.9285 40.8047 19.549C40.8047 22.1695 42.9363 24.3015 45.5568 24.3015C48.1773 24.3015 50.309 22.1699 50.309 19.549ZM41.37 19.549C41.37 17.2402 43.2484 15.3622 45.5568 15.3622C47.8652 15.3622 49.7436 17.2406 49.7436 19.549C49.7436 21.8574 47.8656 23.7362 45.5568 23.7362C43.248 23.7362 41.37 21.8578 41.37 19.549Z" fill="#FCFFFF"/>
<path d="M48.9911 19.5502C48.9911 17.6571 47.4511 16.1172 45.558 16.1172C43.665 16.1172 42.125 17.6571 42.125 19.5502C42.125 21.4433 43.665 22.9833 45.558 22.9833C47.4511 22.9833 48.9911 21.4433 48.9911 19.5502ZM42.6903 19.5502C42.6903 17.9688 43.9766 16.6825 45.558 16.6825C47.1394 16.6825 48.4258 17.9688 48.4258 19.5502C48.4258 21.1316 47.1394 22.4179 45.558 22.4179C43.9766 22.4179 42.6903 21.132 42.6903 19.5502Z" fill="#FCFFFF"/>
<path d="M52.886 65.5699C52.886 61.5294 49.5984 58.2422 45.5582 58.2422C41.518 58.2422 38.2305 61.5297 38.2305 65.5699C38.2305 69.6102 41.518 72.8977 45.5582 72.8977C49.5984 72.8977 52.886 69.6105 52.886 65.5699ZM38.7958 65.5699C38.7958 61.8411 41.8293 58.8075 45.5582 58.8075C49.2871 58.8075 52.3207 61.8411 52.3207 65.5699C52.3207 69.2988 49.2871 72.3324 45.5582 72.3324C41.8293 72.3324 38.7958 69.2988 38.7958 65.5699Z" fill="#064C40"/>
<path d="M51.5681 65.5712C51.5681 62.258 48.8726 59.5625 45.5595 59.5625C42.2463 59.5625 39.5508 62.258 39.5508 65.5712C39.5508 68.8844 42.2463 71.5798 45.5595 71.5798C48.8726 71.5798 51.5681 68.8844 51.5681 65.5712ZM40.1161 65.5712C40.1161 62.5697 42.5579 60.1278 45.5595 60.1278C48.561 60.1278 51.0028 62.5697 51.0028 65.5712C51.0028 68.5727 48.561 71.0145 45.5595 71.0145C42.5579 71.0145 40.1161 68.5727 40.1161 65.5712Z" fill="#064C40"/>
<path d="M45.5581 64.7711C46.0786 64.7711 46.5003 64.3494 46.5003 63.8289C46.5003 63.3085 46.0786 62.8867 45.5581 62.8867H43.2078C42.6874 62.8867 42.2656 63.3085 42.2656 63.8289C42.2656 64.3494 42.6874 64.7711 43.2078 64.7711H45.5581ZM42.831 63.8289C42.831 63.6209 43.0002 63.452 43.2078 63.452H45.5581C45.7658 63.452 45.935 63.6209 45.935 63.8289C45.935 64.037 45.7658 64.2058 45.5581 64.2058H43.2078C42.9998 64.2058 42.831 64.0366 42.831 63.8289Z" fill="#064C40"/>
<path d="M47.9087 68.1227C48.4292 68.1227 48.8509 67.701 48.8509 67.1805C48.8509 66.66 48.4292 66.2383 47.9087 66.2383H43.2078C42.6874 66.2383 42.2656 66.66 42.2656 67.1805C42.2656 67.701 42.6874 68.1227 43.2078 68.1227H47.9087ZM42.8313 67.1805C42.8313 66.9725 43.0005 66.8036 43.2082 66.8036H47.9091C48.1168 66.8036 48.286 66.9725 48.286 67.1805C48.286 67.3885 48.1168 67.5574 47.9091 67.5574H43.2082C43.0002 67.5574 42.8313 67.3885 42.8313 67.1805Z" fill="#064C40"/>
<path d="M73.0853 72.8942C74.2808 72.8942 75.2536 71.9214 75.2536 70.726V60.4065C75.2536 59.211 74.2808 58.2383 73.0853 58.2383H62.7662C61.5704 58.2383 60.5977 59.211 60.5977 60.4065V70.726C60.5977 71.9214 61.5704 72.8942 62.7662 72.8942H73.0853ZM61.163 70.726V60.4065C61.163 59.5227 61.8821 58.8036 62.7662 58.8036H73.0853C73.9691 58.8036 74.6882 59.5227 74.6882 60.4065V70.726C74.6882 71.6098 73.9691 72.3289 73.0853 72.3289H62.7662C61.8825 72.3289 61.163 71.6098 61.163 70.726Z" fill="#064C40"/>
<path d="M73.0866 71.5763C73.5547 71.5763 73.9357 71.1953 73.9357 70.7272V60.4077C73.9357 59.9396 73.5547 59.5586 73.0866 59.5586H62.7675C62.299 59.5586 61.918 59.9396 61.918 60.4077V70.7272C61.918 71.1953 62.299 71.5763 62.7675 71.5763H73.0866ZM62.4833 70.7272V60.4077C62.4833 60.2513 62.6107 60.1239 62.7675 60.1239H73.0866C73.243 60.1239 73.3704 60.2513 73.3704 60.4077V70.7272C73.3704 70.8836 73.243 71.011 73.0866 71.011H62.7675C62.6107 71.011 62.4833 70.8836 62.4833 70.7272Z" fill="#064C40"/>
<path d="M67.9253 64.7711C68.4457 64.7711 68.8675 64.3494 68.8675 63.8289C68.8675 63.3085 68.4457 62.8867 67.9253 62.8867H65.575C65.0545 62.8867 64.6328 63.3085 64.6328 63.8289C64.6328 64.3494 65.0545 64.7711 65.575 64.7711H67.9253ZM65.1978 63.8289C65.1978 63.6209 65.367 63.452 65.5746 63.452H67.9249C68.1326 63.452 68.3018 63.6209 68.3018 63.8289C68.3018 64.037 68.1326 64.2058 67.9249 64.2058H65.5746C65.367 64.2058 65.1978 64.0366 65.1978 63.8289Z" fill="#064C40"/>
<path d="M70.2759 68.1227C70.7964 68.1227 71.2181 67.701 71.2181 67.1805C71.2181 66.66 70.7964 66.2383 70.2759 66.2383H65.575C65.0545 66.2383 64.6328 66.66 64.6328 67.1805C64.6328 67.701 65.0545 68.1227 65.575 68.1227H70.2759ZM65.1981 67.1805C65.1981 66.9725 65.3674 66.8036 65.575 66.8036H70.2759C70.4836 66.8036 70.6528 66.9725 70.6528 67.1805C70.6528 67.3885 70.4836 67.5574 70.2759 67.5574H65.575C65.3674 67.5574 65.1981 67.3885 65.1981 67.1805Z" fill="#064C40"/>
<path d="M28.3506 72.8942C29.5464 72.8942 30.5192 71.9214 30.5192 70.726V60.4065C30.5192 59.211 29.5464 58.2383 28.3506 58.2383H18.0315C16.836 58.2383 15.8633 59.211 15.8633 60.4065V70.726C15.8633 71.9214 16.836 72.8942 18.0315 72.8942H28.3506ZM16.4286 70.726V60.4065C16.4286 59.5227 17.1477 58.8036 18.0315 58.8036H28.3506C29.2348 58.8036 29.9539 59.5227 29.9539 60.4065V70.726C29.9539 71.6098 29.2348 72.3289 28.3506 72.3289H18.0315C17.1477 72.3289 16.4286 71.6098 16.4286 70.726Z" fill="#064C40"/>
<path d="M28.3518 71.5763C28.8203 71.5763 29.2013 71.1953 29.2013 70.7272V60.4077C29.2013 59.9396 28.8203 59.5586 28.3518 59.5586H18.0327C17.5646 59.5586 17.1836 59.9396 17.1836 60.4077V70.7272C17.1836 71.1953 17.5646 71.5763 18.0327 71.5763H28.3518ZM17.7489 70.7272V60.4077C17.7489 60.2513 17.8763 60.1239 18.0327 60.1239H28.3518C28.5086 60.1239 28.636 60.2513 28.636 60.4077V70.7272C28.636 70.8836 28.5086 71.011 28.3518 71.011H18.0327C17.8763 71.011 17.7489 70.8836 17.7489 70.7272Z" fill="#064C40"/>
<path d="M23.1909 64.7711C23.7114 64.7711 24.1331 64.3494 24.1331 63.8289C24.1331 63.3085 23.7114 62.8867 23.1909 62.8867H20.8406C20.3202 62.8867 19.8984 63.3085 19.8984 63.8289C19.8984 64.3494 20.3202 64.7711 20.8406 64.7711H23.1909ZM20.4638 63.8289C20.4638 63.6209 20.633 63.452 20.8406 63.452H23.1909C23.3986 63.452 23.5678 63.6209 23.5678 63.8289C23.5678 64.037 23.3986 64.2058 23.1909 64.2058H20.8406C20.633 64.2058 20.4638 64.0366 20.4638 63.8289Z" fill="#064C40"/>
<path d="M25.5415 68.1227C26.062 68.1227 26.4837 67.701 26.4837 67.1805C26.4837 66.66 26.062 66.2383 25.5415 66.2383H20.8406C20.3202 66.2383 19.8984 66.66 19.8984 67.1805C19.8984 67.701 20.3202 68.1227 20.8406 68.1227H25.5415ZM20.4638 67.1805C20.4638 66.9725 20.633 66.8036 20.8406 66.8036H25.5415C25.7492 66.8036 25.9184 66.9725 25.9184 67.1805C25.9184 67.3885 25.7492 67.5574 25.5415 67.5574H20.8406C20.633 67.5574 20.4638 67.3885 20.4638 67.1805Z" fill="#064C40"/>
<path d="M50.7178 53.4411C51.9133 53.4411 52.886 52.4683 52.886 51.2728V40.9534C52.886 39.7579 51.9133 38.7852 50.7178 38.7852H40.3987C39.2032 38.7852 38.2305 39.7579 38.2305 40.9534V51.2728C38.2305 52.4683 39.2032 53.4411 40.3987 53.4411H50.7178ZM38.7958 51.2728V40.9534C38.7958 40.0696 39.5149 39.3505 40.3987 39.3505H50.7182C51.602 39.3505 52.321 40.0696 52.321 40.9534V51.2728C52.321 52.1566 51.602 52.8757 50.7182 52.8757H40.3987C39.5145 52.8757 38.7958 52.1566 38.7958 51.2728Z" fill="#064C40"/>
<path d="M50.719 52.1232C51.1871 52.1232 51.5681 51.7422 51.5681 51.2741V40.9546C51.5681 40.4865 51.1871 40.1055 50.719 40.1055H40.3999C39.9318 40.1055 39.5508 40.4865 39.5508 40.9546V51.2741C39.5508 51.7422 39.9318 52.1232 40.3999 52.1232H50.719ZM40.1161 51.2741V40.9546C40.1161 40.7982 40.2435 40.6708 40.3999 40.6708H50.7194C50.8758 40.6708 51.0032 40.7982 51.0032 40.9546V51.2741C51.0032 51.4305 50.8758 51.5579 50.7194 51.5579H40.3999C40.2435 51.5579 40.1161 51.4305 40.1161 51.2741Z" fill="#064C40"/>
<path d="M45.5581 45.3141C46.0786 45.3141 46.5003 44.8924 46.5003 44.3719C46.5003 43.8514 46.0786 43.4297 45.5581 43.4297H43.2078C42.6874 43.4297 42.2656 43.8514 42.2656 44.3719C42.2656 44.8924 42.6874 45.3141 43.2078 45.3141H45.5581ZM42.831 44.3719C42.831 44.1639 43.0002 43.995 43.2078 43.995H45.5581C45.7658 43.995 45.935 44.1639 45.935 44.3719C45.935 44.5799 45.7658 44.7488 45.5581 44.7488H43.2078C42.9998 44.7488 42.831 44.5796 42.831 44.3719Z" fill="#064C40"/>
<path d="M47.9087 48.6657C48.4292 48.6657 48.8509 48.2439 48.8509 47.7235C48.8509 47.203 48.4292 46.7812 47.9087 46.7812H43.2078C42.6874 46.7812 42.2656 47.203 42.2656 47.7235C42.2656 48.2439 42.6874 48.6657 43.2078 48.6657H47.9087ZM42.8313 47.7235C42.8313 47.5154 43.0005 47.3466 43.2082 47.3466H47.9091C48.1168 47.3466 48.286 47.5154 48.286 47.7235C48.286 47.9315 48.1168 48.1003 47.9091 48.1003H43.2082C43.0002 48.1003 42.8313 47.9315 42.8313 47.7235Z" fill="#064C40"/>
<path d="M73.9353 46.1141C73.9353 42.8009 71.2398 40.1055 67.9266 40.1055C64.6134 40.1055 61.918 42.8009 61.918 46.1141C61.918 49.4273 64.6134 52.1228 67.9266 52.1228C71.2398 52.1228 73.9353 49.4273 73.9353 46.1141ZM62.4829 46.1141C62.4829 43.1126 64.9248 40.6708 67.9263 40.6708C70.9278 40.6708 73.3696 43.1126 73.3696 46.1141C73.3696 49.1156 70.9278 51.5575 67.9263 51.5575C64.9248 51.5575 62.4829 49.1156 62.4829 46.1141Z" fill="#064C40"/>
<path d="M75.2532 46.1129C75.2532 42.0723 71.9656 38.7852 67.9254 38.7852C63.8852 38.7852 60.5977 42.0727 60.5977 46.1129C60.5977 50.1531 63.8852 53.4407 67.9254 53.4407C71.9656 53.4407 75.2532 50.1531 75.2532 46.1129ZM61.1626 46.1129C61.1626 42.384 64.1961 39.3505 67.925 39.3505C71.6539 39.3505 74.6875 42.384 74.6875 46.1129C74.6875 49.8418 71.6539 52.8754 67.925 52.8754C64.1961 52.8754 61.1626 49.8418 61.1626 46.1129Z" fill="#064C40"/>
<path d="M67.9253 45.3141C68.4457 45.3141 68.8675 44.8924 68.8675 44.3719C68.8675 43.8514 68.4457 43.4297 67.9253 43.4297H65.575C65.0545 43.4297 64.6328 43.8514 64.6328 44.3719C64.6328 44.8924 65.0545 45.3141 65.575 45.3141H67.9253ZM65.1978 44.3719C65.1978 44.1639 65.367 43.995 65.5746 43.995H67.9249C68.1326 43.995 68.3018 44.1639 68.3018 44.3719C68.3018 44.5799 68.1326 44.7488 67.9249 44.7488H65.5746C65.367 44.7488 65.1978 44.5796 65.1978 44.3719Z" fill="#064C40"/>
<path d="M70.2759 48.6657C70.7964 48.6657 71.2181 48.2439 71.2181 47.7235C71.2181 47.203 70.7964 46.7812 70.2759 46.7812H65.575C65.0545 46.7812 64.6328 47.203 64.6328 47.7235C64.6328 48.2439 65.0545 48.6657 65.575 48.6657H70.2759ZM65.1981 47.7235C65.1981 47.5154 65.3674 47.3466 65.575 47.3466H70.2759C70.4836 47.3466 70.6528 47.5154 70.6528 47.7235C70.6528 47.9315 70.4836 48.1003 70.2759 48.1003H65.575C65.3674 48.1003 65.1981 47.9315 65.1981 47.7235Z" fill="#064C40"/>
<path d="M30.5188 46.1129C30.5188 42.0723 27.2312 38.7852 23.191 38.7852C19.1508 38.7852 15.8633 42.0727 15.8633 46.1129C15.8633 50.1531 19.1508 53.4407 23.191 53.4407C27.2312 53.4407 30.5188 50.1531 30.5188 46.1129ZM16.4282 46.1129C16.4282 42.384 19.4618 39.3505 23.1907 39.3505C26.9196 39.3505 29.9531 42.384 29.9531 46.1129C29.9531 49.8418 26.9196 52.8754 23.1907 52.8754C19.4618 52.8754 16.4282 49.8418 16.4282 46.1129Z" fill="#064C40"/>
<path d="M29.2009 46.1141C29.2009 42.8009 26.5055 40.1055 23.1923 40.1055C19.8791 40.1055 17.1836 42.8009 17.1836 46.1141C17.1836 49.4273 19.8791 52.1228 23.1923 52.1228C26.5055 52.1228 29.2009 49.4273 29.2009 46.1141ZM17.7485 46.1141C17.7485 43.1126 20.1904 40.6708 23.1919 40.6708C26.1934 40.6708 28.6352 43.1126 28.6352 46.1141C28.6352 49.1156 26.1934 51.5575 23.1919 51.5575C20.1904 51.5575 17.7485 49.1156 17.7485 46.1141Z" fill="#064C40"/>
<path d="M23.1909 45.3141C23.7114 45.3141 24.1331 44.8924 24.1331 44.3719C24.1331 43.8514 23.7114 43.4297 23.1909 43.4297H20.8406C20.3202 43.4297 19.8984 43.8514 19.8984 44.3719C19.8984 44.8924 20.3202 45.3141 20.8406 45.3141H23.1909ZM20.4638 44.3719C20.4638 44.1639 20.633 43.995 20.8406 43.995H23.1909C23.3986 43.995 23.5678 44.1639 23.5678 44.3719C23.5678 44.5799 23.3986 44.7488 23.1909 44.7488H20.8406C20.633 44.7488 20.4638 44.5796 20.4638 44.3719Z" fill="#064C40"/>
<path d="M25.5415 48.6657C26.062 48.6657 26.4837 48.2439 26.4837 47.7235C26.4837 47.203 26.062 46.7812 25.5415 46.7812H20.8406C20.3202 46.7812 19.8984 47.203 19.8984 47.7235C19.8984 48.2439 20.3202 48.6657 20.8406 48.6657H25.5415ZM20.4638 47.7235C20.4638 47.5154 20.633 47.3466 20.8406 47.3466H25.5415C25.7492 47.3466 25.9184 47.5154 25.9184 47.7235C25.9184 47.9315 25.7492 48.1003 25.5415 48.1003H20.8406C20.633 48.1003 20.4638 47.9315 20.4638 47.7235Z" fill="#064C40"/>
</svg>
