<svg width="65" height="65" viewBox="0 0 65 65" fill="none" xmlns="http://www.w3.org/2000/svg">
<path d="M0.988281 8.25C0.988281 3.83172 4.57 0.25 8.98828 0.25H56.9883C61.4066 0.25 64.9883 3.83172 64.9883 8.25V56.25C64.9883 60.6683 61.4066 64.25 56.9883 64.25H8.98828C4.57 64.25 0.988281 60.6683 0.988281 56.25V8.25Z" fill="#3B82F6"/>
<g clip-path="url(#clip0_1225_1978)">
<path d="M27.6432 44.2383V42.9049C27.6432 42.1977 27.9242 41.5194 28.4243 41.0193C28.9244 40.5192 29.6027 40.2383 30.3099 40.2383H35.6432C36.3505 40.2383 37.0288 40.5192 37.5288 41.0193C38.0289 41.5194 38.3099 42.1977 38.3099 42.9049V44.2383M39.6432 29.5716H42.3099C43.0171 29.5716 43.6954 29.8526 44.1955 30.3527C44.6956 30.8528 44.9766 31.531 44.9766 32.2383V33.5716M20.9766 33.5716V32.2383C20.9766 31.531 21.2575 30.8528 21.7576 30.3527C22.2577 29.8526 22.936 29.5716 23.6432 29.5716H26.3099M30.3099 33.5716C30.3099 34.2789 30.5908 34.9571 31.0909 35.4572C31.591 35.9573 32.2693 36.2383 32.9766 36.2383C33.6838 36.2383 34.3621 35.9573 34.8622 35.4572C35.3623 34.9571 35.6432 34.2789 35.6432 33.5716C35.6432 32.8644 35.3623 32.1861 34.8622 31.686C34.3621 31.1859 33.6838 30.9049 32.9766 30.9049C32.2693 30.9049 31.591 31.1859 31.0909 31.686C30.5908 32.1861 30.3099 32.8644 30.3099 33.5716ZM36.9766 22.9049C36.9766 23.6122 37.2575 24.2905 37.7576 24.7906C38.2577 25.2907 38.936 25.5716 39.6432 25.5716C40.3505 25.5716 41.0288 25.2907 41.5288 24.7906C42.0289 24.2905 42.3099 23.6122 42.3099 22.9049C42.3099 22.1977 42.0289 21.5194 41.5288 21.0193C41.0288 20.5192 40.3505 20.2383 39.6432 20.2383C38.936 20.2383 38.2577 20.5192 37.7576 21.0193C37.2575 21.5194 36.9766 22.1977 36.9766 22.9049ZM23.6432 22.9049C23.6432 23.6122 23.9242 24.2905 24.4243 24.7906C24.9244 25.2907 25.6027 25.5716 26.3099 25.5716C27.0171 25.5716 27.6954 25.2907 28.1955 24.7906C28.6956 24.2905 28.9766 23.6122 28.9766 22.9049C28.9766 22.1977 28.6956 21.5194 28.1955 21.0193C27.6954 20.5192 27.0171 20.2383 26.3099 20.2383C25.6027 20.2383 24.9244 20.5192 24.4243 21.0193C23.9242 21.5194 23.6432 22.1977 23.6432 22.9049Z" stroke="white" stroke-width="1.5" stroke-linecap="round" stroke-linejoin="round"/>
</g>
<defs>
<clipPath id="clip0_1225_1978">
<rect width="32" height="32" fill="white" transform="translate(16.9766 16.2383)"/>
</clipPath>
</defs>
</svg>
