<svg width="50" height="50" viewBox="0 0 50 50" fill="none" xmlns="http://www.w3.org/2000/svg">
<rect width="49.4516" height="49.4517" fill="white"/>
<path d="M24.7253 33.9975C29.8462 33.9975 33.9975 29.8462 33.9975 24.7253C33.9975 19.6044 29.8462 15.4531 24.7253 15.4531C19.6044 15.4531 15.4531 19.6044 15.4531 24.7253C15.4531 29.8462 19.6044 33.9975 24.7253 33.9975Z" fill="#454A53"/>
<path d="M24.7255 40.1838C19.0819 40.1806 13.6435 38.0668 9.47917 34.2578L4.02814 29.3018C3.39043 28.7227 2.88091 28.0165 2.53231 27.2288C2.1837 26.441 2.00371 25.5891 2.00391 24.7276C2.0041 23.8662 2.18447 23.0143 2.53343 22.2267C2.8824 21.4391 3.39223 20.7332 4.0302 20.1544L9.47917 15.1983C13.6422 11.3872 19.0815 9.27344 24.7255 9.27344C30.3695 9.27344 35.8089 11.3872 39.9719 15.1983L45.4229 20.1544C46.0606 20.7335 46.5701 21.4396 46.9188 22.2274C47.2674 23.0151 47.4473 23.8671 47.4472 24.7285C47.447 25.59 47.2666 26.4419 46.9176 27.2295C46.5687 28.017 46.0588 28.7229 45.4209 29.3018L39.9719 34.2578C35.8075 38.0668 30.3691 40.1806 24.7255 40.1838ZM24.7255 13.3995C20.108 13.4017 15.6584 15.1315 12.252 18.2488L6.80093 23.2048C6.58821 23.3974 6.41816 23.6324 6.30171 23.8947C6.18527 24.1569 6.12501 24.4407 6.12482 24.7276C6.12463 25.0146 6.1845 25.2984 6.30059 25.5608C6.41668 25.8232 6.58641 26.0584 6.79887 26.2513L12.2519 31.2073C15.6569 34.3272 20.1074 36.0577 24.7255 36.0577C29.3436 36.0577 33.7941 34.3272 37.1991 31.2073L42.6501 26.2513C42.8628 26.0587 43.0329 25.8237 43.1493 25.5615C43.2657 25.2992 43.326 25.0155 43.3262 24.7285C43.3264 24.4416 43.2665 24.1578 43.1504 23.8954C43.0343 23.6329 42.8646 23.3977 42.6521 23.2048L37.1991 18.2488C33.7927 15.1315 29.3431 13.4017 24.7255 13.3995Z" fill="black"/>
<path d="M24.7253 33.9975C22.8914 33.9975 21.0988 33.4537 19.574 32.4349C18.0492 31.416 16.8607 29.9679 16.1589 28.2736C15.4571 26.5794 15.2735 24.715 15.6313 22.9164C15.9891 21.1178 16.8722 19.4656 18.1689 18.1689C19.4656 16.8722 21.1178 15.9891 22.9164 15.6313C24.715 15.2735 26.5793 15.4571 28.2736 16.1589C29.9679 16.8607 31.416 18.0492 32.4348 19.574C33.4537 21.0988 33.9975 22.8915 33.9975 24.7253C33.9948 27.1836 33.0171 29.5405 31.2788 31.2788C29.5405 33.0171 27.1836 33.9948 24.7253 33.9975ZM24.7253 19.5741C23.7065 19.5741 22.7106 19.8762 21.8634 20.4422C21.0163 21.0083 20.3561 21.8128 19.9662 22.754C19.5763 23.6953 19.4743 24.731 19.6731 25.7303C19.8718 26.7295 20.3624 27.6474 21.0828 28.3678C21.8033 29.0882 22.7211 29.5788 23.7204 29.7776C24.7196 29.9763 25.7553 29.8743 26.6966 29.4844C27.6378 29.0945 28.4424 28.4343 29.0084 27.5872C29.5744 26.7401 29.8765 25.7441 29.8765 24.7253C29.8753 23.3595 29.3321 22.05 28.3664 21.0842C27.4006 20.1185 26.0911 19.5754 24.7253 19.5741Z" fill="#828282"/>
</svg>
