<svg width="25" height="25" viewBox="0 0 25 25" fill="none" xmlns="http://www.w3.org/2000/svg">
  <mask id="path-1-outside-1_1130_3490" maskUnits="userSpaceOnUse" x="-0.5" y="-0.5" width="26" height="26"
    fill="black">
    <rect fill="white" x="-0.5" y="-0.5" width="26" height="26" />
    <path
      d="M14.1552 0.629612C14.1903 0.634447 14.2254 0.639283 14.2616 0.644265C15.1194 0.764359 15.9569 0.979713 16.7654 1.28954C16.7985 1.30219 16.8317 1.31485 16.8658 1.32789C17.8856 1.72245 18.8641 2.24372 19.7236 2.922C19.763 2.95221 19.8026 2.98237 19.8421 3.01249C20.0838 3.19769 20.313 3.39168 20.5353 3.59956C20.6136 3.6723 20.693 3.74265 20.7742 3.81203C20.9958 4.0043 21.2009 4.21331 21.3916 4.43601C21.4499 4.50369 21.5089 4.5705 21.5684 4.63708C22.0009 5.12331 22.4063 5.58345 22.3842 6.27279C22.3147 6.81768 21.9599 7.16094 21.5887 7.53096C21.548 7.5717 21.5074 7.61246 21.4669 7.65322C21.3557 7.76475 21.2444 7.87606 21.133 7.98733C21.0128 8.10756 20.8927 8.22798 20.7726 8.34838C20.4828 8.63877 20.1927 8.92884 19.9026 9.21888C19.7658 9.35562 19.6291 9.4924 19.4923 9.62917C19.0376 10.084 18.5828 10.5388 18.1277 10.9933C18.0986 11.0224 18.0695 11.0514 18.0396 11.0814C18.0104 11.1105 17.9812 11.1397 17.9512 11.1697C17.8921 11.2287 17.833 11.2877 17.7739 11.3467C17.7446 11.376 17.7153 11.4053 17.6851 11.4355C17.2101 11.9099 16.7357 12.3848 16.2615 12.86C15.7742 13.3483 15.2865 13.8361 14.7983 14.3235C14.5244 14.597 14.2506 14.8707 13.9774 15.1449C13.7448 15.3783 13.5117 15.6114 13.2781 15.8439C13.1591 15.9624 13.0402 16.0811 12.9219 16.2004C12.8133 16.3098 12.7042 16.4186 12.5947 16.527C12.5554 16.5661 12.5162 16.6054 12.4773 16.6449C12.1324 16.9951 11.7549 17.2673 11.2427 17.2754C10.695 17.2688 10.3275 16.976 9.95527 16.6023C9.91958 16.567 9.88386 16.5317 9.84812 16.4965C9.75195 16.4014 9.65622 16.3059 9.5606 16.2103C9.48038 16.1302 9.39996 16.0503 9.31954 15.9704C9.12966 15.7816 8.94015 15.5925 8.75086 15.4032C8.55634 15.2086 8.36119 15.0147 8.16573 14.8211C7.99719 14.6542 7.82907 14.4868 7.66126 14.3191C7.56136 14.2193 7.4613 14.1196 7.36085 14.0203C7.26633 13.9268 7.17235 13.8329 7.07873 13.7386C7.04454 13.7043 7.01017 13.6702 6.97561 13.6363C6.63276 13.2994 6.42248 12.9566 6.41816 12.4714C6.41774 12.0277 6.56118 11.7254 6.86951 11.4068C7.19742 11.1034 7.55144 11.0323 7.98332 11.04C8.58886 11.0665 8.98171 11.5729 9.37868 11.972C9.43128 12.0246 9.48389 12.0772 9.53651 12.1298C9.67415 12.2674 9.81158 12.4053 9.94896 12.5432C10.0895 12.6842 10.2303 12.8249 10.371 12.9658C10.6465 13.2415 10.9218 13.5174 11.197 13.7935C11.3101 13.7439 11.3853 13.6836 11.4723 13.5966C11.4992 13.57 11.526 13.5434 11.5536 13.5159C11.5975 13.4718 11.5975 13.4718 11.6423 13.4269C11.6735 13.3957 11.7048 13.3646 11.7369 13.3326C11.8237 13.2461 11.9102 13.1595 11.9967 13.0728C12.09 12.9794 12.1835 12.8862 12.277 12.793C12.4389 12.6314 12.6007 12.4697 12.7624 12.3079C12.9962 12.074 13.2302 11.8403 13.4643 11.6066C13.844 11.2275 14.2236 10.8482 14.603 10.4689C14.9717 10.1003 15.3404 9.73186 15.7092 9.36349C15.7319 9.34079 15.7547 9.31809 15.7781 9.2947C15.8921 9.18081 16.0061 9.06692 16.1202 8.95303C17.0663 8.00806 18.0122 7.06283 18.9579 6.11744C18.8049 5.79574 18.4689 5.56704 18.1923 5.35331C18.1692 5.33535 18.1461 5.31738 18.1224 5.29887C17.7031 4.97433 17.2693 4.6974 16.8002 4.45025C16.7547 4.42602 16.7547 4.42602 16.7084 4.40131C14.6035 3.29276 12.0677 3.11425 9.79808 3.78273C8.81354 4.08784 7.87883 4.56141 7.05548 5.17965C7.03387 5.19577 7.01226 5.21188 6.98999 5.22849C6.68113 5.46021 6.39405 5.71113 6.11582 5.97851C6.08848 6.00465 6.08848 6.00465 6.06059 6.03132C5.81624 6.26612 5.59389 6.51008 5.38496 6.77737C5.35751 6.81153 5.33005 6.84569 5.30177 6.88089C4.34376 8.08329 3.75256 9.501 3.48483 11.0063C3.46739 11.1034 3.44833 11.2002 3.4295 11.297C3.04745 13.4667 3.71167 15.9072 4.96129 17.6918C5.25 18.0961 5.56175 18.4724 5.907 18.8298C5.93913 18.8632 5.93913 18.8632 5.9719 18.8974C6.26079 19.1971 6.55496 19.4754 6.89041 19.7226C6.95229 19.7684 7.01329 19.8153 7.07424 19.8624C8.92942 21.2783 11.3661 21.8482 13.6679 21.5628C13.7959 21.5452 13.9234 21.5255 14.0508 21.5042C14.0747 21.5005 14.0986 21.4968 14.1232 21.493C14.2749 21.4691 14.4239 21.437 14.5728 21.4C14.6033 21.3925 14.6337 21.385 14.6651 21.3773C15.9102 21.064 17.078 20.5289 18.0879 19.7328C18.1169 19.7105 18.1459 19.6882 18.1758 19.6652C18.7174 19.2434 19.237 18.7502 19.654 18.2046C19.6719 18.1814 19.6898 18.1583 19.7083 18.1345C20.1433 17.5715 20.5025 16.9736 20.8024 16.329C20.8138 16.3047 20.8251 16.2804 20.8368 16.2553C21.3433 15.1526 21.5947 13.96 21.6361 12.752C21.6557 12.2027 21.762 11.8061 22.1728 11.4229C22.466 11.173 22.7842 11.0641 23.1694 11.0737C23.5657 11.114 23.9023 11.2797 24.1739 11.5711C24.3899 11.8448 24.4963 12.1048 24.4986 12.4523C24.4988 12.4775 24.4991 12.5027 24.4993 12.5286C24.5038 13.1312 24.4881 13.7188 24.3871 14.3144C24.38 14.3566 24.3729 14.3988 24.3656 14.4423C24.0334 16.3675 23.2741 18.1729 22.0901 19.7328C22.074 19.7544 22.0578 19.776 22.0411 19.7982C21.8237 20.0879 21.5874 20.3544 21.337 20.6161C21.2555 20.7014 21.1774 20.7888 21.1004 20.8783C20.9771 21.02 20.8446 21.1488 20.7067 21.2763C20.6701 21.3103 20.6701 21.3103 20.6328 21.3449C20.4404 21.5224 20.2434 21.6907 20.0368 21.8515C19.9833 21.8936 19.9833 21.8936 19.9287 21.9366C18.8494 22.7804 17.6661 23.3947 16.3825 23.866C16.3576 23.8754 16.3327 23.8847 16.3071 23.8943C15.6545 24.1365 14.9662 24.2799 14.2792 24.3827C14.2553 24.3863 14.2314 24.3899 14.2069 24.3936C13.6489 24.4764 13.1 24.4996 12.5369 24.4999C12.5022 24.5 12.4676 24.5 12.4319 24.5C10.2404 24.4977 8.04035 23.9026 6.18542 22.7199C6.16425 22.7065 6.14307 22.6931 6.12125 22.6793C5.54022 22.3095 4.99067 21.8965 4.4801 21.4347C4.4601 21.4167 4.4401 21.3987 4.41949 21.3802C4.07093 21.0656 3.73414 20.747 3.44051 20.3796C3.37558 20.2998 3.3083 20.2247 3.23809 20.1496C2.69043 19.5399 2.25284 18.8214 1.86992 18.1004C1.85184 18.0664 1.85184 18.0664 1.8334 18.0317C1.74885 17.8711 1.66893 17.7087 1.5915 17.5446C1.57805 17.5161 1.56459 17.4877 1.55073 17.4583C1.06259 16.4119 0.743163 15.2834 0.582229 14.1408C0.576007 14.0982 0.569785 14.0556 0.563375 14.0117C0.50329 13.5661 0.500838 13.1212 0.501638 12.6722C0.501747 12.5442 0.50093 12.4163 0.500049 12.2884C0.498064 11.5588 0.556527 10.8385 0.712738 10.1248C0.721649 10.0831 0.730559 10.0415 0.73974 9.99858C1.1321 8.21428 1.92053 6.54515 3.0532 5.11018C3.08025 5.07579 3.10731 5.04141 3.13518 5.00598C3.29964 4.80147 3.47415 4.60705 3.653 4.41511C3.74673 4.31451 3.83817 4.21195 3.92979 4.10943C4.04644 3.98133 4.16526 3.86399 4.29807 3.75288C4.3771 3.68492 4.45249 3.61375 4.52801 3.54196C4.7751 3.30849 5.0372 3.10309 5.31295 2.90448C5.38395 2.85326 5.45448 2.80143 5.52499 2.74955C5.91424 2.46621 6.32338 2.2212 6.74226 1.9842C6.78045 1.96238 6.78045 1.96238 6.81941 1.94012C8.12094 1.20181 9.58488 0.804453 11.0578 0.594879C11.0905 0.590217 11.1231 0.585555 11.1568 0.580751C12.1403 0.448655 13.176 0.488288 14.1552 0.629612Z" />
  </mask>
  <path
    d="M14.1552 0.629612C14.1903 0.634447 14.2254 0.639283 14.2616 0.644265C15.1194 0.764359 15.9569 0.979713 16.7654 1.28954C16.7985 1.30219 16.8317 1.31485 16.8658 1.32789C17.8856 1.72245 18.8641 2.24372 19.7236 2.922C19.763 2.95221 19.8026 2.98237 19.8421 3.01249C20.0838 3.19769 20.313 3.39168 20.5353 3.59956C20.6136 3.6723 20.693 3.74265 20.7742 3.81203C20.9958 4.0043 21.2009 4.21331 21.3916 4.43601C21.4499 4.50369 21.5089 4.5705 21.5684 4.63708C22.0009 5.12331 22.4063 5.58345 22.3842 6.27279C22.3147 6.81768 21.9599 7.16094 21.5887 7.53096C21.548 7.5717 21.5074 7.61246 21.4669 7.65322C21.3557 7.76475 21.2444 7.87606 21.133 7.98733C21.0128 8.10756 20.8927 8.22798 20.7726 8.34838C20.4828 8.63877 20.1927 8.92884 19.9026 9.21888C19.7658 9.35562 19.6291 9.4924 19.4923 9.62917C19.0376 10.084 18.5828 10.5388 18.1277 10.9933C18.0986 11.0224 18.0695 11.0514 18.0396 11.0814C18.0104 11.1105 17.9812 11.1397 17.9512 11.1697C17.8921 11.2287 17.833 11.2877 17.7739 11.3467C17.7446 11.376 17.7153 11.4053 17.6851 11.4355C17.2101 11.9099 16.7357 12.3848 16.2615 12.86C15.7742 13.3483 15.2865 13.8361 14.7983 14.3235C14.5244 14.597 14.2506 14.8707 13.9774 15.1449C13.7448 15.3783 13.5117 15.6114 13.2781 15.8439C13.1591 15.9624 13.0402 16.0811 12.9219 16.2004C12.8133 16.3098 12.7042 16.4186 12.5947 16.527C12.5554 16.5661 12.5162 16.6054 12.4773 16.6449C12.1324 16.9951 11.7549 17.2673 11.2427 17.2754C10.695 17.2688 10.3275 16.976 9.95527 16.6023C9.91958 16.567 9.88386 16.5317 9.84812 16.4965C9.75195 16.4014 9.65622 16.3059 9.5606 16.2103C9.48038 16.1302 9.39996 16.0503 9.31954 15.9704C9.12966 15.7816 8.94015 15.5925 8.75086 15.4032C8.55634 15.2086 8.36119 15.0147 8.16573 14.8211C7.99719 14.6542 7.82907 14.4868 7.66126 14.3191C7.56136 14.2193 7.4613 14.1196 7.36085 14.0203C7.26633 13.9268 7.17235 13.8329 7.07873 13.7386C7.04454 13.7043 7.01017 13.6702 6.97561 13.6363C6.63276 13.2994 6.42248 12.9566 6.41816 12.4714C6.41774 12.0277 6.56118 11.7254 6.86951 11.4068C7.19742 11.1034 7.55144 11.0323 7.98332 11.04C8.58886 11.0665 8.98171 11.5729 9.37868 11.972C9.43128 12.0246 9.48389 12.0772 9.53651 12.1298C9.67415 12.2674 9.81158 12.4053 9.94896 12.5432C10.0895 12.6842 10.2303 12.8249 10.371 12.9658C10.6465 13.2415 10.9218 13.5174 11.197 13.7935C11.3101 13.7439 11.3853 13.6836 11.4723 13.5966C11.4992 13.57 11.526 13.5434 11.5536 13.5159C11.5975 13.4718 11.5975 13.4718 11.6423 13.4269C11.6735 13.3957 11.7048 13.3646 11.7369 13.3326C11.8237 13.2461 11.9102 13.1595 11.9967 13.0728C12.09 12.9794 12.1835 12.8862 12.277 12.793C12.4389 12.6314 12.6007 12.4697 12.7624 12.3079C12.9962 12.074 13.2302 11.8403 13.4643 11.6066C13.844 11.2275 14.2236 10.8482 14.603 10.4689C14.9717 10.1003 15.3404 9.73186 15.7092 9.36349C15.7319 9.34079 15.7547 9.31809 15.7781 9.2947C15.8921 9.18081 16.0061 9.06692 16.1202 8.95303C17.0663 8.00806 18.0122 7.06283 18.9579 6.11744C18.8049 5.79574 18.4689 5.56704 18.1923 5.35331C18.1692 5.33535 18.1461 5.31738 18.1224 5.29887C17.7031 4.97433 17.2693 4.6974 16.8002 4.45025C16.7547 4.42602 16.7547 4.42602 16.7084 4.40131C14.6035 3.29276 12.0677 3.11425 9.79808 3.78273C8.81354 4.08784 7.87883 4.56141 7.05548 5.17965C7.03387 5.19577 7.01226 5.21188 6.98999 5.22849C6.68113 5.46021 6.39405 5.71113 6.11582 5.97851C6.08848 6.00465 6.08848 6.00465 6.06059 6.03132C5.81624 6.26612 5.59389 6.51008 5.38496 6.77737C5.35751 6.81153 5.33005 6.84569 5.30177 6.88089C4.34376 8.08329 3.75256 9.501 3.48483 11.0063C3.46739 11.1034 3.44833 11.2002 3.4295 11.297C3.04745 13.4667 3.71167 15.9072 4.96129 17.6918C5.25 18.0961 5.56175 18.4724 5.907 18.8298C5.93913 18.8632 5.93913 18.8632 5.9719 18.8974C6.26079 19.1971 6.55496 19.4754 6.89041 19.7226C6.95229 19.7684 7.01329 19.8153 7.07424 19.8624C8.92942 21.2783 11.3661 21.8482 13.6679 21.5628C13.7959 21.5452 13.9234 21.5255 14.0508 21.5042C14.0747 21.5005 14.0986 21.4968 14.1232 21.493C14.2749 21.4691 14.4239 21.437 14.5728 21.4C14.6033 21.3925 14.6337 21.385 14.6651 21.3773C15.9102 21.064 17.078 20.5289 18.0879 19.7328C18.1169 19.7105 18.1459 19.6882 18.1758 19.6652C18.7174 19.2434 19.237 18.7502 19.654 18.2046C19.6719 18.1814 19.6898 18.1583 19.7083 18.1345C20.1433 17.5715 20.5025 16.9736 20.8024 16.329C20.8138 16.3047 20.8251 16.2804 20.8368 16.2553C21.3433 15.1526 21.5947 13.96 21.6361 12.752C21.6557 12.2027 21.762 11.8061 22.1728 11.4229C22.466 11.173 22.7842 11.0641 23.1694 11.0737C23.5657 11.114 23.9023 11.2797 24.1739 11.5711C24.3899 11.8448 24.4963 12.1048 24.4986 12.4523C24.4988 12.4775 24.4991 12.5027 24.4993 12.5286C24.5038 13.1312 24.4881 13.7188 24.3871 14.3144C24.38 14.3566 24.3729 14.3988 24.3656 14.4423C24.0334 16.3675 23.2741 18.1729 22.0901 19.7328C22.074 19.7544 22.0578 19.776 22.0411 19.7982C21.8237 20.0879 21.5874 20.3544 21.337 20.6161C21.2555 20.7014 21.1774 20.7888 21.1004 20.8783C20.9771 21.02 20.8446 21.1488 20.7067 21.2763C20.6701 21.3103 20.6701 21.3103 20.6328 21.3449C20.4404 21.5224 20.2434 21.6907 20.0368 21.8515C19.9833 21.8936 19.9833 21.8936 19.9287 21.9366C18.8494 22.7804 17.6661 23.3947 16.3825 23.866C16.3576 23.8754 16.3327 23.8847 16.3071 23.8943C15.6545 24.1365 14.9662 24.2799 14.2792 24.3827C14.2553 24.3863 14.2314 24.3899 14.2069 24.3936C13.6489 24.4764 13.1 24.4996 12.5369 24.4999C12.5022 24.5 12.4676 24.5 12.4319 24.5C10.2404 24.4977 8.04035 23.9026 6.18542 22.7199C6.16425 22.7065 6.14307 22.6931 6.12125 22.6793C5.54022 22.3095 4.99067 21.8965 4.4801 21.4347C4.4601 21.4167 4.4401 21.3987 4.41949 21.3802C4.07093 21.0656 3.73414 20.747 3.44051 20.3796C3.37558 20.2998 3.3083 20.2247 3.23809 20.1496C2.69043 19.5399 2.25284 18.8214 1.86992 18.1004C1.85184 18.0664 1.85184 18.0664 1.8334 18.0317C1.74885 17.8711 1.66893 17.7087 1.5915 17.5446C1.57805 17.5161 1.56459 17.4877 1.55073 17.4583C1.06259 16.4119 0.743163 15.2834 0.582229 14.1408C0.576007 14.0982 0.569785 14.0556 0.563375 14.0117C0.50329 13.5661 0.500838 13.1212 0.501638 12.6722C0.501747 12.5442 0.50093 12.4163 0.500049 12.2884C0.498064 11.5588 0.556527 10.8385 0.712738 10.1248C0.721649 10.0831 0.730559 10.0415 0.73974 9.99858C1.1321 8.21428 1.92053 6.54515 3.0532 5.11018C3.08025 5.07579 3.10731 5.04141 3.13518 5.00598C3.29964 4.80147 3.47415 4.60705 3.653 4.41511C3.74673 4.31451 3.83817 4.21195 3.92979 4.10943C4.04644 3.98133 4.16526 3.86399 4.29807 3.75288C4.3771 3.68492 4.45249 3.61375 4.52801 3.54196C4.7751 3.30849 5.0372 3.10309 5.31295 2.90448C5.38395 2.85326 5.45448 2.80143 5.52499 2.74955C5.91424 2.46621 6.32338 2.2212 6.74226 1.9842C6.78045 1.96238 6.78045 1.96238 6.81941 1.94012C8.12094 1.20181 9.58488 0.804453 11.0578 0.594879C11.0905 0.590217 11.1231 0.585555 11.1568 0.580751C12.1403 0.448655 13.176 0.488288 14.1552 0.629612Z"
    fill="#38d32a" />
  <path
    d="M14.1552 0.629612C14.1903 0.634447 14.2254 0.639283 14.2616 0.644265C15.1194 0.764359 15.9569 0.979713 16.7654 1.28954C16.7985 1.30219 16.8317 1.31485 16.8658 1.32789C17.8856 1.72245 18.8641 2.24372 19.7236 2.922C19.763 2.95221 19.8026 2.98237 19.8421 3.01249C20.0838 3.19769 20.313 3.39168 20.5353 3.59956C20.6136 3.6723 20.693 3.74265 20.7742 3.81203C20.9958 4.0043 21.2009 4.21331 21.3916 4.43601C21.4499 4.50369 21.5089 4.5705 21.5684 4.63708C22.0009 5.12331 22.4063 5.58345 22.3842 6.27279C22.3147 6.81768 21.9599 7.16094 21.5887 7.53096C21.548 7.5717 21.5074 7.61246 21.4669 7.65322C21.3557 7.76475 21.2444 7.87606 21.133 7.98733C21.0128 8.10756 20.8927 8.22798 20.7726 8.34838C20.4828 8.63877 20.1927 8.92884 19.9026 9.21888C19.7658 9.35562 19.6291 9.4924 19.4923 9.62917C19.0376 10.084 18.5828 10.5388 18.1277 10.9933C18.0986 11.0224 18.0695 11.0514 18.0396 11.0814C18.0104 11.1105 17.9812 11.1397 17.9512 11.1697C17.8921 11.2287 17.833 11.2877 17.7739 11.3467C17.7446 11.376 17.7153 11.4053 17.6851 11.4355C17.2101 11.9099 16.7357 12.3848 16.2615 12.86C15.7742 13.3483 15.2865 13.8361 14.7983 14.3235C14.5244 14.597 14.2506 14.8707 13.9774 15.1449C13.7448 15.3783 13.5117 15.6114 13.2781 15.8439C13.1591 15.9624 13.0402 16.0811 12.9219 16.2004C12.8133 16.3098 12.7042 16.4186 12.5947 16.527C12.5554 16.5661 12.5162 16.6054 12.4773 16.6449C12.1324 16.9951 11.7549 17.2673 11.2427 17.2754C10.695 17.2688 10.3275 16.976 9.95527 16.6023C9.91958 16.567 9.88386 16.5317 9.84812 16.4965C9.75195 16.4014 9.65622 16.3059 9.5606 16.2103C9.48038 16.1302 9.39996 16.0503 9.31954 15.9704C9.12966 15.7816 8.94015 15.5925 8.75086 15.4032C8.55634 15.2086 8.36119 15.0147 8.16573 14.8211C7.99719 14.6542 7.82907 14.4868 7.66126 14.3191C7.56136 14.2193 7.4613 14.1196 7.36085 14.0203C7.26633 13.9268 7.17235 13.8329 7.07873 13.7386C7.04454 13.7043 7.01017 13.6702 6.97561 13.6363C6.63276 13.2994 6.42248 12.9566 6.41816 12.4714C6.41774 12.0277 6.56118 11.7254 6.86951 11.4068C7.19742 11.1034 7.55144 11.0323 7.98332 11.04C8.58886 11.0665 8.98171 11.5729 9.37868 11.972C9.43128 12.0246 9.48389 12.0772 9.53651 12.1298C9.67415 12.2674 9.81158 12.4053 9.94896 12.5432C10.0895 12.6842 10.2303 12.8249 10.371 12.9658C10.6465 13.2415 10.9218 13.5174 11.197 13.7935C11.3101 13.7439 11.3853 13.6836 11.4723 13.5966C11.4992 13.57 11.526 13.5434 11.5536 13.5159C11.5975 13.4718 11.5975 13.4718 11.6423 13.4269C11.6735 13.3957 11.7048 13.3646 11.7369 13.3326C11.8237 13.2461 11.9102 13.1595 11.9967 13.0728C12.09 12.9794 12.1835 12.8862 12.277 12.793C12.4389 12.6314 12.6007 12.4697 12.7624 12.3079C12.9962 12.074 13.2302 11.8403 13.4643 11.6066C13.844 11.2275 14.2236 10.8482 14.603 10.4689C14.9717 10.1003 15.3404 9.73186 15.7092 9.36349C15.7319 9.34079 15.7547 9.31809 15.7781 9.2947C15.8921 9.18081 16.0061 9.06692 16.1202 8.95303C17.0663 8.00806 18.0122 7.06283 18.9579 6.11744C18.8049 5.79574 18.4689 5.56704 18.1923 5.35331C18.1692 5.33535 18.1461 5.31738 18.1224 5.29887C17.7031 4.97433 17.2693 4.6974 16.8002 4.45025C16.7547 4.42602 16.7547 4.42602 16.7084 4.40131C14.6035 3.29276 12.0677 3.11425 9.79808 3.78273C8.81354 4.08784 7.87883 4.56141 7.05548 5.17965C7.03387 5.19577 7.01226 5.21188 6.98999 5.22849C6.68113 5.46021 6.39405 5.71113 6.11582 5.97851C6.08848 6.00465 6.08848 6.00465 6.06059 6.03132C5.81624 6.26612 5.59389 6.51008 5.38496 6.77737C5.35751 6.81153 5.33005 6.84569 5.30177 6.88089C4.34376 8.08329 3.75256 9.501 3.48483 11.0063C3.46739 11.1034 3.44833 11.2002 3.4295 11.297C3.04745 13.4667 3.71167 15.9072 4.96129 17.6918C5.25 18.0961 5.56175 18.4724 5.907 18.8298C5.93913 18.8632 5.93913 18.8632 5.9719 18.8974C6.26079 19.1971 6.55496 19.4754 6.89041 19.7226C6.95229 19.7684 7.01329 19.8153 7.07424 19.8624C8.92942 21.2783 11.3661 21.8482 13.6679 21.5628C13.7959 21.5452 13.9234 21.5255 14.0508 21.5042C14.0747 21.5005 14.0986 21.4968 14.1232 21.493C14.2749 21.4691 14.4239 21.437 14.5728 21.4C14.6033 21.3925 14.6337 21.385 14.6651 21.3773C15.9102 21.064 17.078 20.5289 18.0879 19.7328C18.1169 19.7105 18.1459 19.6882 18.1758 19.6652C18.7174 19.2434 19.237 18.7502 19.654 18.2046C19.6719 18.1814 19.6898 18.1583 19.7083 18.1345C20.1433 17.5715 20.5025 16.9736 20.8024 16.329C20.8138 16.3047 20.8251 16.2804 20.8368 16.2553C21.3433 15.1526 21.5947 13.96 21.6361 12.752C21.6557 12.2027 21.762 11.8061 22.1728 11.4229C22.466 11.173 22.7842 11.0641 23.1694 11.0737C23.5657 11.114 23.9023 11.2797 24.1739 11.5711C24.3899 11.8448 24.4963 12.1048 24.4986 12.4523C24.4988 12.4775 24.4991 12.5027 24.4993 12.5286C24.5038 13.1312 24.4881 13.7188 24.3871 14.3144C24.38 14.3566 24.3729 14.3988 24.3656 14.4423C24.0334 16.3675 23.2741 18.1729 22.0901 19.7328C22.074 19.7544 22.0578 19.776 22.0411 19.7982C21.8237 20.0879 21.5874 20.3544 21.337 20.6161C21.2555 20.7014 21.1774 20.7888 21.1004 20.8783C20.9771 21.02 20.8446 21.1488 20.7067 21.2763C20.6701 21.3103 20.6701 21.3103 20.6328 21.3449C20.4404 21.5224 20.2434 21.6907 20.0368 21.8515C19.9833 21.8936 19.9833 21.8936 19.9287 21.9366C18.8494 22.7804 17.6661 23.3947 16.3825 23.866C16.3576 23.8754 16.3327 23.8847 16.3071 23.8943C15.6545 24.1365 14.9662 24.2799 14.2792 24.3827C14.2553 24.3863 14.2314 24.3899 14.2069 24.3936C13.6489 24.4764 13.1 24.4996 12.5369 24.4999C12.5022 24.5 12.4676 24.5 12.4319 24.5C10.2404 24.4977 8.04035 23.9026 6.18542 22.7199C6.16425 22.7065 6.14307 22.6931 6.12125 22.6793C5.54022 22.3095 4.99067 21.8965 4.4801 21.4347C4.4601 21.4167 4.4401 21.3987 4.41949 21.3802C4.07093 21.0656 3.73414 20.747 3.44051 20.3796C3.37558 20.2998 3.3083 20.2247 3.23809 20.1496C2.69043 19.5399 2.25284 18.8214 1.86992 18.1004C1.85184 18.0664 1.85184 18.0664 1.8334 18.0317C1.74885 17.8711 1.66893 17.7087 1.5915 17.5446C1.57805 17.5161 1.56459 17.4877 1.55073 17.4583C1.06259 16.4119 0.743163 15.2834 0.582229 14.1408C0.576007 14.0982 0.569785 14.0556 0.563375 14.0117C0.50329 13.5661 0.500838 13.1212 0.501638 12.6722C0.501747 12.5442 0.50093 12.4163 0.500049 12.2884C0.498064 11.5588 0.556527 10.8385 0.712738 10.1248C0.721649 10.0831 0.730559 10.0415 0.73974 9.99858C1.1321 8.21428 1.92053 6.54515 3.0532 5.11018C3.08025 5.07579 3.10731 5.04141 3.13518 5.00598C3.29964 4.80147 3.47415 4.60705 3.653 4.41511C3.74673 4.31451 3.83817 4.21195 3.92979 4.10943C4.04644 3.98133 4.16526 3.86399 4.29807 3.75288C4.3771 3.68492 4.45249 3.61375 4.52801 3.54196C4.7751 3.30849 5.0372 3.10309 5.31295 2.90448C5.38395 2.85326 5.45448 2.80143 5.52499 2.74955C5.91424 2.46621 6.32338 2.2212 6.74226 1.9842C6.78045 1.96238 6.78045 1.96238 6.81941 1.94012C8.12094 1.20181 9.58488 0.804453 11.0578 0.594879C11.0905 0.590217 11.1231 0.585555 11.1568 0.580751C12.1403 0.448655 13.176 0.488288 14.1552 0.629612Z"
    stroke="black" mask="url(#path-1-outside-1_1130_3490)" />
</svg>