<svg width="41" height="41" viewBox="0 0 41 41" fill="none" xmlns="http://www.w3.org/2000/svg">
<path d="M0.96875 8.39844C0.96875 3.98016 4.55047 0.398438 8.96875 0.398438H32.9688C37.387 0.398438 40.9688 3.98016 40.9688 8.39844V32.3984C40.9688 36.8167 37.387 40.3984 32.9688 40.3984H8.96875C4.55047 40.3984 0.96875 36.8167 0.96875 32.3984V8.39844Z" fill="#0F6E5D"/>
<g clip-path="url(#clip0_1225_2125)">
<path d="M14.3008 17.0638C14.3008 16.1797 14.652 15.3319 15.2771 14.7068C15.9022 14.0817 16.7501 13.7305 17.6341 13.7305H24.3008C25.1848 13.7305 26.0327 14.0817 26.6578 14.7068C27.2829 15.3319 27.6341 16.1797 27.6341 17.0638V23.7305C27.6341 24.6145 27.2829 25.4624 26.6578 26.0875C26.0327 26.7126 25.1848 27.0638 24.3008 27.0638H17.6341C16.7501 27.0638 15.9022 26.7126 15.2771 26.0875C14.652 25.4624 14.3008 24.6145 14.3008 23.7305V17.0638Z" stroke="#10B981" stroke-width="1.5" stroke-linecap="round" stroke-linejoin="round"/>
<path d="M24.7187 16.6484V16.6568M18.4688 20.3984C18.4688 21.0615 18.7321 21.6974 19.201 22.1662C19.6698 22.635 20.3057 22.8984 20.9687 22.8984C21.6318 22.8984 22.2677 22.635 22.7365 22.1662C23.2054 21.6974 23.4687 21.0615 23.4687 20.3984C23.4687 19.7354 23.2054 19.0995 22.7365 18.6307C22.2677 18.1618 21.6318 17.8984 20.9687 17.8984C20.3057 17.8984 19.6698 18.1618 19.201 18.6307C18.7321 19.0995 18.4688 19.7354 18.4688 20.3984Z" stroke="#10B981" stroke-width="1.5" stroke-linecap="round" stroke-linejoin="round"/>
</g>
<defs>
<clipPath id="clip0_1225_2125">
<rect width="20" height="20" fill="white" transform="translate(10.9688 10.3984)"/>
</clipPath>
</defs>
</svg>
