<svg width="170" height="41" viewBox="0 0 170 41" fill="none" xmlns="http://www.w3.org/2000/svg">
<path d="M0.988281 8.98828C0.988281 4.57 4.57 0.988281 8.98828 0.988281H32.9883C37.4066 0.988281 40.9883 4.57 40.9883 8.98828V32.9883C40.9883 37.4066 37.4066 40.9883 32.9883 40.9883H8.98828C4.57 40.9883 0.988281 37.4066 0.988281 32.9883V8.98828Z" fill="#10B981"/>
<g clip-path="url(#clip0_1225_2187)">
<path d="M12 15.9883C12 17.0491 12.4214 18.0666 13.1716 18.8167C13.9217 19.5669 14.9391 19.9883 16 19.9883C17.0609 19.9883 18.0783 19.5669 18.8284 18.8167C19.5786 18.0666 20 17.0491 20 15.9883C20 14.9274 19.5786 13.91 18.8284 13.1599C18.0783 12.4097 17.0609 11.9883 16 11.9883C14.9391 11.9883 13.9217 12.4097 13.1716 13.1599C12.4214 13.91 12 14.9274 12 15.9883Z" stroke="white" stroke-width="1.5" stroke-linecap="round" stroke-linejoin="round"/>
<path d="M16 11.9883V15.9883H20M18 25.9883V29.9883M26 22.9883V29.9883M22 21.9883V29.9883M30 20.9883V29.9883" stroke="white" stroke-width="1.5" stroke-linecap="round" stroke-linejoin="round"/>
</g>
<path d="M50.0644 13.6033H54.3665L58.016 22.5024H58.1844L61.8339 13.6033H66.136V27.9766H62.7533V19.1477H62.6339L59.181 27.8853H57.0194L53.5665 19.0986H53.4471V27.9766H50.0644V13.6033ZM71.4119 27.9766H67.6783L72.5278 13.6033H77.1528L82.0024 27.9766H78.2687L74.893 17.2247H74.7807L71.4119 27.9766ZM70.9137 22.3199H78.7179V24.9587H70.9137V22.3199ZM81.2848 16.4246V13.6033H93.4333V16.4246H89.075V27.9766H85.6501V16.4246H81.2848ZM107.521 18.8108H104.011C103.965 18.4505 103.869 18.1254 103.724 17.8353C103.579 17.5452 103.387 17.2972 103.148 17.0914C102.91 16.8855 102.626 16.7288 102.299 16.6211C101.976 16.5088 101.618 16.4527 101.225 16.4527C100.528 16.4527 99.9268 16.6235 99.4215 16.965C98.9209 17.3066 98.5349 17.8002 98.2635 18.4459C97.9968 19.0915 97.8635 19.8729 97.8635 20.7899C97.8635 21.7444 97.9992 22.5445 98.2705 23.1902C98.5466 23.8312 98.9326 24.3154 99.4285 24.6429C99.9292 24.9658 100.521 25.1272 101.204 25.1272C101.588 25.1272 101.936 25.0781 102.25 24.9798C102.568 24.8815 102.846 24.7388 103.085 24.5517C103.328 24.3599 103.527 24.1283 103.682 23.8569C103.841 23.5808 103.951 23.2697 104.011 22.9235L107.521 22.9445C107.46 23.5808 107.275 24.2078 106.966 24.8254C106.662 25.443 106.243 26.0068 105.71 26.5168C105.176 27.0221 104.526 27.4245 103.759 27.7239C102.996 28.0234 102.121 28.1731 101.134 28.1731C99.8333 28.1731 98.6682 27.8877 97.6389 27.3169C96.6142 26.7414 95.8048 25.9039 95.2106 24.8043C94.6164 23.7048 94.3193 22.3667 94.3193 20.7899C94.3193 19.2085 94.6211 17.868 95.2246 16.7685C95.8282 15.669 96.6447 14.8338 97.674 14.263C98.7033 13.6922 99.8566 13.4068 101.134 13.4068C102.004 13.4068 102.809 13.5285 103.548 13.7718C104.287 14.0104 104.938 14.3613 105.499 14.8245C106.061 15.283 106.517 15.8468 106.868 16.5159C107.219 17.1849 107.436 17.9499 107.521 18.8108ZM109.508 27.9766V13.6033H112.982V19.3723H118.646V13.6033H122.113V27.9766H118.646V22.2006H112.982V27.9766H109.508ZM133.851 27.9766H128.538V13.6033H133.844C135.308 13.6033 136.569 13.8911 137.627 14.4666C138.689 15.0374 139.508 15.8608 140.083 16.937C140.659 18.0084 140.946 19.2904 140.946 20.7829C140.946 22.2801 140.659 23.5668 140.083 24.6429C139.512 25.719 138.696 26.5449 137.634 27.1203C136.572 27.6912 135.311 27.9766 133.851 27.9766ZM132.012 25.0149H133.718C134.522 25.0149 135.203 24.8792 135.76 24.6078C136.321 24.3318 136.745 23.885 137.03 23.2674C137.32 22.6451 137.465 21.8169 137.465 20.7829C137.465 19.7489 137.32 18.9254 137.03 18.3125C136.74 17.6949 136.312 17.2504 135.746 16.9791C135.184 16.703 134.492 16.565 133.668 16.565H132.012V25.0149ZM145.234 27.9766H141.501L146.35 13.6033H150.975L155.825 27.9766H152.091L148.715 17.2247H148.603L145.234 27.9766ZM144.736 22.3199H152.54V24.9587H144.736V22.3199ZM155.19 13.6033H159.071L162.11 19.6179H162.236L165.275 13.6033H169.156L163.899 23.1761V27.9766H160.446V23.1761L155.19 13.6033Z" fill="white"/>
<defs>
<clipPath id="clip0_1225_2187">
<rect width="24" height="24" fill="white" transform="translate(9 8.98828)"/>
</clipPath>
</defs>
</svg>
