<svg width="32" height="32" viewBox="0 0 25 25" fill="currentColor" xmlns="http://www.w3.org/2000/svg">
  <mask id="path-1-outside-1_1130_3733" maskUnits="userSpaceOnUse" x="-0.5" y="-0.5" width="26" height="26"
    fill="black">
    <rect fill="white" x="-0.5" y="-0.5" width="26" height="26" />
    <path
      d="M16.0345 1.04739C16.088 1.06456 16.088 1.06456 16.1426 1.08207C17.3408 1.46804 18.4591 2.00986 19.48 2.74924C19.5052 2.76743 19.5305 2.78562 19.5565 2.80436C19.8473 3.01471 20.122 3.2339 20.3848 3.47861C20.4303 3.5186 20.476 3.5584 20.5219 3.598C20.544 3.61747 20.5662 3.63695 20.589 3.65701C20.6445 3.70542 20.7007 3.75316 20.757 3.80055C20.9828 3.99542 21.1487 4.18819 21.2897 4.45109C21.3085 4.48333 21.3085 4.48333 21.3276 4.51622C21.4662 4.80165 21.4371 5.23304 21.3375 5.52777C21.2179 5.82989 21.0036 6.07172 20.7752 6.29686C20.7353 6.33683 20.7353 6.33683 20.6946 6.37761C20.606 6.46616 20.5171 6.55434 20.4281 6.64252C20.3643 6.70619 20.3005 6.76988 20.2367 6.83359C20.0997 6.97038 19.9625 7.10698 19.8252 7.24345C19.6266 7.44075 19.4283 7.63835 19.2301 7.83601C18.9085 8.15676 18.5867 8.47728 18.2646 8.79764C17.952 9.10872 17.6394 9.4199 17.327 9.73123C17.3077 9.75044 17.2885 9.76965 17.2686 9.78945C17.1719 9.88585 17.0751 9.98225 16.9784 10.0787C16.1769 10.8775 15.375 11.6759 14.5728 12.4741C14.627 12.5879 14.6846 12.6636 14.7747 12.7527C14.8022 12.7801 14.8298 12.8076 14.8582 12.8358C14.8885 12.8657 14.9188 12.8955 14.95 12.9262C14.9989 12.9747 15.0478 13.0233 15.0967 13.0719C15.1493 13.1241 15.202 13.1761 15.2546 13.2282C15.3647 13.3369 15.4745 13.4459 15.5842 13.555C15.857 13.826 16.1301 14.0967 16.4033 14.3673C16.6154 14.5772 16.8274 14.7874 17.0391 14.9978C17.1479 15.106 17.2569 15.2139 17.3661 15.3217C17.4505 15.4051 17.5345 15.4888 17.6186 15.5724C17.6485 15.6018 17.6785 15.6312 17.7093 15.6615C18.0713 16.0233 18.3273 16.3938 18.3489 16.9197C18.3309 17.372 18.1573 17.6966 17.8377 18.0029C17.6258 18.1844 17.3613 18.3261 17.0786 18.3437C17.0375 18.347 17.0375 18.347 16.9957 18.3503C16.5628 18.3699 16.2015 18.2059 15.8814 17.9225C15.7906 17.8353 15.7016 17.7466 15.6131 17.6571C15.5791 17.6232 15.5451 17.5893 15.5111 17.5554C15.4196 17.4642 15.3285 17.3726 15.2374 17.281C15.1419 17.185 15.046 17.0893 14.9502 16.9935C14.7692 16.8126 14.5885 16.6313 14.4078 16.45C14.202 16.2434 13.9958 16.0371 13.7897 15.8309C13.366 15.4069 12.9426 14.9826 12.5195 14.558C12.3191 14.724 12.1355 14.9024 11.9523 15.087C11.904 15.1355 11.8556 15.184 11.8073 15.2325C11.7557 15.2842 11.7042 15.336 11.6527 15.3877C11.545 15.496 11.4372 15.6042 11.3292 15.7123C11.0225 16.0195 10.716 16.3269 10.4097 16.6346C10.2403 16.8049 10.0707 16.9751 9.90083 17.145C9.79368 17.2522 9.68676 17.3596 9.58001 17.4672C9.49771 17.5501 9.41506 17.6325 9.33247 17.7151C9.30326 17.7446 9.27406 17.7742 9.24397 17.8047C8.90635 18.1405 8.56162 18.3314 8.07998 18.3546C7.68541 18.3481 7.34216 18.1934 7.05549 17.927C6.72187 17.5373 6.63734 17.1456 6.67266 16.6419C6.76481 16.1862 7.10826 15.8441 7.42859 15.5284C7.46157 15.4955 7.49453 15.4626 7.52746 15.4296C7.6158 15.3415 7.70445 15.2536 7.79317 15.1658C7.88625 15.0735 7.97904 14.981 8.07186 14.8885C8.24715 14.7139 8.42272 14.5395 8.59838 14.3653C8.79857 14.1667 8.99845 13.9678 9.19832 13.7688C9.60899 13.3601 10.02 12.9517 10.4313 12.5436C10.3805 12.4266 10.3162 12.3511 10.2255 12.262C10.1971 12.2339 10.1686 12.2057 10.1393 12.1768C10.1081 12.1462 10.0768 12.1156 10.0446 12.0841C10.0114 12.0514 9.97815 12.0186 9.94494 11.9858C9.87344 11.9153 9.80184 11.8448 9.73017 11.7745C9.61653 11.6628 9.50326 11.5508 9.39005 11.4388C9.0681 11.1201 8.74594 10.8017 8.42282 10.4842C8.24433 10.3088 8.0663 10.133 7.88874 9.95674C7.79494 9.86364 7.70092 9.77077 7.60634 9.67845C7.51711 9.59135 7.42849 9.50367 7.34026 9.41555C7.29293 9.36859 7.24501 9.32222 7.19706 9.2759C6.84789 8.92462 6.66221 8.53402 6.66171 8.03821C6.6694 7.63549 6.83717 7.35101 7.11313 7.06587C7.44108 6.76251 7.79524 6.69124 8.22721 6.69929C8.75638 6.7225 9.14064 7.10619 9.49379 7.46305C9.52674 7.49596 9.55971 7.52885 9.59271 7.56172C9.68107 7.64987 9.76912 7.73834 9.8571 7.82688C9.94953 7.91978 10.0423 8.01237 10.1349 8.105C10.3099 8.27994 10.4846 8.45515 10.6592 8.63045C10.8583 8.83023 11.0576 9.02971 11.2569 9.22917C11.6665 9.639 12.0757 10.0492 12.4847 10.4597C12.6474 10.3239 12.8019 10.1828 12.9516 10.0329C12.9726 10.0119 12.9937 9.9909 13.0154 9.96929C13.0854 9.89962 13.1552 9.82984 13.225 9.76005C13.2754 9.70982 13.3258 9.6596 13.3762 9.60939C13.5125 9.4735 13.6487 9.3375 13.7849 9.20148C13.9275 9.0591 14.0701 8.91682 14.2128 8.77452C14.4521 8.53576 14.6913 8.29692 14.9305 8.05804C15.2073 7.78161 15.4843 7.50531 15.7613 7.22907C15.9991 6.99189 16.2368 6.75465 16.4745 6.51735C16.6165 6.37561 16.7585 6.23389 16.9006 6.09223C17.0339 5.95923 17.1672 5.82615 17.3004 5.69301C17.3494 5.64406 17.3985 5.59514 17.4475 5.54625C17.5143 5.47974 17.5809 5.41314 17.6475 5.3465C17.6769 5.31722 17.6769 5.31722 17.707 5.28735C17.8052 5.19097 17.8052 5.19097 17.879 5.07626C17.8427 5.0637 17.8427 5.0637 17.8056 5.05089C17.711 5.00942 17.6324 4.95977 17.5484 4.90015C16.5165 4.16931 15.2823 3.75632 14.0508 3.51334C14.0077 3.50466 14.0077 3.50466 13.9637 3.4958C11.7586 3.07114 9.28767 3.67432 7.43831 4.90261C7.08183 5.14687 6.74348 5.40507 6.42904 5.70143C6.38496 5.73923 6.34073 5.77686 6.29636 5.81431C5.96112 6.10688 5.65819 6.42733 5.38497 6.77811C5.35756 6.81223 5.33015 6.84634 5.3019 6.88149C4.35045 8.075 3.74831 9.48525 3.48883 10.9825C3.47706 11.0494 3.46477 11.1163 3.45188 11.183C3.10651 12.9756 3.50875 14.956 4.30609 16.5724C4.31809 16.5972 4.33008 16.6219 4.34244 16.6474C4.73812 17.4568 5.28233 18.1834 5.907 18.83C5.93913 18.8635 5.93913 18.8635 5.9719 18.8976C6.2608 19.1974 6.55497 19.4756 6.89041 19.7228C6.95229 19.7686 7.01329 19.8155 7.07425 19.8626C7.38558 20.1002 7.71363 20.2991 8.05621 20.4886C8.1271 20.5278 8.19757 20.5677 8.268 20.6078C8.59078 20.7886 8.92751 20.9266 9.27329 21.0574C9.34063 21.083 9.40762 21.1096 9.47453 21.1362C10.2787 21.4449 11.1861 21.6095 12.0464 21.6168C12.0796 21.6171 12.1128 21.6175 12.1471 21.6178C12.8634 21.6236 13.5561 21.6196 14.2596 21.4696C14.2911 21.4633 14.3227 21.457 14.3552 21.4504C16.0561 21.1063 17.6078 20.2728 18.8535 19.0731C18.874 19.0534 18.8945 19.0338 18.9156 19.0135C19.1806 18.7575 19.4275 18.4961 19.654 18.2048C19.6805 18.1724 19.7071 18.1399 19.7345 18.1065C20.6641 16.9483 21.2154 15.5518 21.4985 14.1065C21.5039 14.08 21.5094 14.0536 21.515 14.0264C21.574 13.7349 21.6049 13.4454 21.6198 13.1487C21.6211 13.1219 21.6225 13.0952 21.6239 13.0677C21.6306 12.9329 21.6364 12.7981 21.6409 12.6633C21.6611 12.1455 21.79 11.7805 22.1728 11.4235C22.455 11.1833 22.7777 11.0636 23.1512 11.074C23.555 11.1241 23.9296 11.2878 24.1913 11.6015C24.3957 11.8751 24.4964 12.1115 24.4986 12.4528C24.4988 12.478 24.4991 12.5032 24.4993 12.5291C24.5038 13.1317 24.4878 13.7192 24.3871 14.3149C24.3802 14.3565 24.3733 14.3982 24.3662 14.4411C23.981 16.7051 22.978 18.8283 21.4289 20.5318C21.4097 20.5531 21.3905 20.5744 21.3708 20.5963C20.9363 21.0771 20.4735 21.5213 19.9556 21.9118C19.8982 21.9554 19.8415 21.9997 19.785 22.0443C18.0626 23.399 15.9128 24.2267 13.7376 24.4565C13.7089 24.4598 13.6802 24.4631 13.6506 24.4664C13.2806 24.5035 12.9084 24.4997 12.5369 24.4999C12.5005 24.5 12.464 24.5 12.4265 24.5C11.8479 24.4994 11.2822 24.4786 10.7097 24.387C10.6729 24.3813 10.6361 24.3755 10.5982 24.3695C8.61964 24.0483 6.71529 23.2328 5.14135 21.9906C5.10604 21.9627 5.07074 21.9349 5.03436 21.9062C4.84779 21.7561 4.66813 21.5994 4.49112 21.4383C4.4218 21.3756 4.35133 21.315 4.27999 21.2547C3.96344 20.9785 3.66606 20.678 3.4068 20.3476C3.34494 20.2706 3.28139 20.197 3.21566 20.1233C3.08638 19.9767 2.96868 19.8233 2.85309 19.6657C2.83204 19.637 2.81099 19.6084 2.7893 19.5788C2.44569 19.1068 2.14363 18.616 1.86992 18.1006C1.85184 18.0666 1.85184 18.0666 1.8334 18.0319C1.74885 17.8714 1.66904 17.7089 1.5915 17.5449C1.57823 17.517 1.56496 17.4891 1.55129 17.4603C1.1145 16.5298 0.826499 15.544 0.645308 14.5341C0.637208 14.489 0.637208 14.489 0.628944 14.443C0.611867 14.3426 0.596725 14.2421 0.582229 14.1412C0.575956 14.0985 0.569684 14.0557 0.563222 14.0117C0.503145 13.5663 0.500838 13.1215 0.501638 12.6727C0.501747 12.5447 0.50093 12.4168 0.500049 12.2889C0.498064 11.5594 0.556527 10.8391 0.712738 10.1254C0.721649 10.0837 0.73056 10.0421 0.73974 9.99919C1.1195 8.2723 1.87158 6.65345 2.9488 5.24992C2.97934 5.2094 3.00988 5.16888 3.04042 5.12836C3.24765 4.85659 3.47293 4.60642 3.70874 4.35911C3.79325 4.27043 3.87452 4.17989 3.95372 4.08641C4.04788 3.97756 4.14976 3.88476 4.25973 3.79201C4.33923 3.72317 4.41546 3.65151 4.49168 3.57911C4.77243 3.31401 5.07398 3.08194 5.38497 2.85344C5.40828 2.83607 5.43159 2.81871 5.45561 2.80082C6.05044 2.35899 6.69745 1.98622 7.36871 1.67256C7.39412 1.66046 7.41952 1.64836 7.4457 1.6359C10.069 0.39081 13.2617 0.130871 16.0345 1.04739Z" />
  </mask>
  <path
    d="M16.0345 1.04739C16.088 1.06456 16.088 1.06456 16.1426 1.08207C17.3408 1.46804 18.4591 2.00986 19.48 2.74924C19.5052 2.76743 19.5305 2.78562 19.5565 2.80436C19.8473 3.01471 20.122 3.2339 20.3848 3.47861C20.4303 3.5186 20.476 3.5584 20.5219 3.598C20.544 3.61747 20.5662 3.63695 20.589 3.65701C20.6445 3.70542 20.7007 3.75316 20.757 3.80055C20.9828 3.99542 21.1487 4.18819 21.2897 4.45109C21.3085 4.48333 21.3085 4.48333 21.3276 4.51622C21.4662 4.80165 21.4371 5.23304 21.3375 5.52777C21.2179 5.82989 21.0036 6.07172 20.7752 6.29686C20.7353 6.33683 20.7353 6.33683 20.6946 6.37761C20.606 6.46616 20.5171 6.55434 20.4281 6.64252C20.3643 6.70619 20.3005 6.76988 20.2367 6.83359C20.0997 6.97038 19.9625 7.10698 19.8252 7.24345C19.6266 7.44075 19.4283 7.63835 19.2301 7.83601C18.9085 8.15676 18.5867 8.47728 18.2646 8.79764C17.952 9.10872 17.6394 9.4199 17.327 9.73123C17.3077 9.75044 17.2885 9.76965 17.2686 9.78945C17.1719 9.88585 17.0751 9.98225 16.9784 10.0787C16.1769 10.8775 15.375 11.6759 14.5728 12.4741C14.627 12.5879 14.6846 12.6636 14.7747 12.7527C14.8022 12.7801 14.8298 12.8076 14.8582 12.8358C14.8885 12.8657 14.9188 12.8955 14.95 12.9262C14.9989 12.9747 15.0478 13.0233 15.0967 13.0719C15.1493 13.1241 15.202 13.1761 15.2546 13.2282C15.3647 13.3369 15.4745 13.4459 15.5842 13.555C15.857 13.826 16.1301 14.0967 16.4033 14.3673C16.6154 14.5772 16.8274 14.7874 17.0391 14.9978C17.1479 15.106 17.2569 15.2139 17.3661 15.3217C17.4505 15.4051 17.5345 15.4888 17.6186 15.5724C17.6485 15.6018 17.6785 15.6312 17.7093 15.6615C18.0713 16.0233 18.3273 16.3938 18.3489 16.9197C18.3309 17.372 18.1573 17.6966 17.8377 18.0029C17.6258 18.1844 17.3613 18.3261 17.0786 18.3437C17.0375 18.347 17.0375 18.347 16.9957 18.3503C16.5628 18.3699 16.2015 18.2059 15.8814 17.9225C15.7906 17.8353 15.7016 17.7466 15.6131 17.6571C15.5791 17.6232 15.5451 17.5893 15.5111 17.5554C15.4196 17.4642 15.3285 17.3726 15.2374 17.281C15.1419 17.185 15.046 17.0893 14.9502 16.9935C14.7692 16.8126 14.5885 16.6313 14.4078 16.45C14.202 16.2434 13.9958 16.0371 13.7897 15.8309C13.366 15.4069 12.9426 14.9826 12.5195 14.558C12.3191 14.724 12.1355 14.9024 11.9523 15.087C11.904 15.1355 11.8556 15.184 11.8073 15.2325C11.7557 15.2842 11.7042 15.336 11.6527 15.3877C11.545 15.496 11.4372 15.6042 11.3292 15.7123C11.0225 16.0195 10.716 16.3269 10.4097 16.6346C10.2403 16.8049 10.0707 16.9751 9.90083 17.145C9.79368 17.2522 9.68676 17.3596 9.58001 17.4672C9.49771 17.5501 9.41506 17.6325 9.33247 17.7151C9.30326 17.7446 9.27406 17.7742 9.24397 17.8047C8.90635 18.1405 8.56162 18.3314 8.07998 18.3546C7.68541 18.3481 7.34216 18.1934 7.05549 17.927C6.72187 17.5373 6.63734 17.1456 6.67266 16.6419C6.76481 16.1862 7.10826 15.8441 7.42859 15.5284C7.46157 15.4955 7.49453 15.4626 7.52746 15.4296C7.6158 15.3415 7.70445 15.2536 7.79317 15.1658C7.88625 15.0735 7.97904 14.981 8.07186 14.8885C8.24715 14.7139 8.42272 14.5395 8.59838 14.3653C8.79857 14.1667 8.99845 13.9678 9.19832 13.7688C9.60899 13.3601 10.02 12.9517 10.4313 12.5436C10.3805 12.4266 10.3162 12.3511 10.2255 12.262C10.1971 12.2339 10.1686 12.2057 10.1393 12.1768C10.1081 12.1462 10.0768 12.1156 10.0446 12.0841C10.0114 12.0514 9.97815 12.0186 9.94494 11.9858C9.87344 11.9153 9.80184 11.8448 9.73017 11.7745C9.61653 11.6628 9.50326 11.5508 9.39005 11.4388C9.0681 11.1201 8.74594 10.8017 8.42282 10.4842C8.24433 10.3088 8.0663 10.133 7.88874 9.95674C7.79494 9.86364 7.70092 9.77077 7.60634 9.67845C7.51711 9.59135 7.42849 9.50367 7.34026 9.41555C7.29293 9.36859 7.24501 9.32222 7.19706 9.2759C6.84789 8.92462 6.66221 8.53402 6.66171 8.03821C6.6694 7.63549 6.83717 7.35101 7.11313 7.06587C7.44108 6.76251 7.79524 6.69124 8.22721 6.69929C8.75638 6.7225 9.14064 7.10619 9.49379 7.46305C9.52674 7.49596 9.55971 7.52885 9.59271 7.56172C9.68107 7.64987 9.76912 7.73834 9.8571 7.82688C9.94953 7.91978 10.0423 8.01237 10.1349 8.105C10.3099 8.27994 10.4846 8.45515 10.6592 8.63045C10.8583 8.83023 11.0576 9.02971 11.2569 9.22917C11.6665 9.639 12.0757 10.0492 12.4847 10.4597C12.6474 10.3239 12.8019 10.1828 12.9516 10.0329C12.9726 10.0119 12.9937 9.9909 13.0154 9.96929C13.0854 9.89962 13.1552 9.82984 13.225 9.76005C13.2754 9.70982 13.3258 9.6596 13.3762 9.60939C13.5125 9.4735 13.6487 9.3375 13.7849 9.20148C13.9275 9.0591 14.0701 8.91682 14.2128 8.77452C14.4521 8.53576 14.6913 8.29692 14.9305 8.05804C15.2073 7.78161 15.4843 7.50531 15.7613 7.22907C15.9991 6.99189 16.2368 6.75465 16.4745 6.51735C16.6165 6.37561 16.7585 6.23389 16.9006 6.09223C17.0339 5.95923 17.1672 5.82615 17.3004 5.69301C17.3494 5.64406 17.3985 5.59514 17.4475 5.54625C17.5143 5.47974 17.5809 5.41314 17.6475 5.3465C17.6769 5.31722 17.6769 5.31722 17.707 5.28735C17.8052 5.19097 17.8052 5.19097 17.879 5.07626C17.8427 5.0637 17.8427 5.0637 17.8056 5.05089C17.711 5.00942 17.6324 4.95977 17.5484 4.90015C16.5165 4.16931 15.2823 3.75632 14.0508 3.51334C14.0077 3.50466 14.0077 3.50466 13.9637 3.4958C11.7586 3.07114 9.28767 3.67432 7.43831 4.90261C7.08183 5.14687 6.74348 5.40507 6.42904 5.70143C6.38496 5.73923 6.34073 5.77686 6.29636 5.81431C5.96112 6.10688 5.65819 6.42733 5.38497 6.77811C5.35756 6.81223 5.33015 6.84634 5.3019 6.88149C4.35045 8.075 3.74831 9.48525 3.48883 10.9825C3.47706 11.0494 3.46477 11.1163 3.45188 11.183C3.10651 12.9756 3.50875 14.956 4.30609 16.5724C4.31809 16.5972 4.33008 16.6219 4.34244 16.6474C4.73812 17.4568 5.28233 18.1834 5.907 18.83C5.93913 18.8635 5.93913 18.8635 5.9719 18.8976C6.2608 19.1974 6.55497 19.4756 6.89041 19.7228C6.95229 19.7686 7.01329 19.8155 7.07425 19.8626C7.38558 20.1002 7.71363 20.2991 8.05621 20.4886C8.1271 20.5278 8.19757 20.5677 8.268 20.6078C8.59078 20.7886 8.92751 20.9266 9.27329 21.0574C9.34063 21.083 9.40762 21.1096 9.47453 21.1362C10.2787 21.4449 11.1861 21.6095 12.0464 21.6168C12.0796 21.6171 12.1128 21.6175 12.1471 21.6178C12.8634 21.6236 13.5561 21.6196 14.2596 21.4696C14.2911 21.4633 14.3227 21.457 14.3552 21.4504C16.0561 21.1063 17.6078 20.2728 18.8535 19.0731C18.874 19.0534 18.8945 19.0338 18.9156 19.0135C19.1806 18.7575 19.4275 18.4961 19.654 18.2048C19.6805 18.1724 19.7071 18.1399 19.7345 18.1065C20.6641 16.9483 21.2154 15.5518 21.4985 14.1065C21.5039 14.08 21.5094 14.0536 21.515 14.0264C21.574 13.7349 21.6049 13.4454 21.6198 13.1487C21.6211 13.1219 21.6225 13.0952 21.6239 13.0677C21.6306 12.9329 21.6364 12.7981 21.6409 12.6633C21.6611 12.1455 21.79 11.7805 22.1728 11.4235C22.455 11.1833 22.7777 11.0636 23.1512 11.074C23.555 11.1241 23.9296 11.2878 24.1913 11.6015C24.3957 11.8751 24.4964 12.1115 24.4986 12.4528C24.4988 12.478 24.4991 12.5032 24.4993 12.5291C24.5038 13.1317 24.4878 13.7192 24.3871 14.3149C24.3802 14.3565 24.3733 14.3982 24.3662 14.4411C23.981 16.7051 22.978 18.8283 21.4289 20.5318C21.4097 20.5531 21.3905 20.5744 21.3708 20.5963C20.9363 21.0771 20.4735 21.5213 19.9556 21.9118C19.8982 21.9554 19.8415 21.9997 19.785 22.0443C18.0626 23.399 15.9128 24.2267 13.7376 24.4565C13.7089 24.4598 13.6802 24.4631 13.6506 24.4664C13.2806 24.5035 12.9084 24.4997 12.5369 24.4999C12.5005 24.5 12.464 24.5 12.4265 24.5C11.8479 24.4994 11.2822 24.4786 10.7097 24.387C10.6729 24.3813 10.6361 24.3755 10.5982 24.3695C8.61964 24.0483 6.71529 23.2328 5.14135 21.9906C5.10604 21.9627 5.07074 21.9349 5.03436 21.9062C4.84779 21.7561 4.66813 21.5994 4.49112 21.4383C4.4218 21.3756 4.35133 21.315 4.27999 21.2547C3.96344 20.9785 3.66606 20.678 3.4068 20.3476C3.34494 20.2706 3.28139 20.197 3.21566 20.1233C3.08638 19.9767 2.96868 19.8233 2.85309 19.6657C2.83204 19.637 2.81099 19.6084 2.7893 19.5788C2.44569 19.1068 2.14363 18.616 1.86992 18.1006C1.85184 18.0666 1.85184 18.0666 1.8334 18.0319C1.74885 17.8714 1.66904 17.7089 1.5915 17.5449C1.57823 17.517 1.56496 17.4891 1.55129 17.4603C1.1145 16.5298 0.826499 15.544 0.645308 14.5341C0.637208 14.489 0.637208 14.489 0.628944 14.443C0.611867 14.3426 0.596725 14.2421 0.582229 14.1412C0.575956 14.0985 0.569684 14.0557 0.563222 14.0117C0.503145 13.5663 0.500838 13.1215 0.501638 12.6727C0.501747 12.5447 0.50093 12.4168 0.500049 12.2889C0.498064 11.5594 0.556527 10.8391 0.712738 10.1254C0.721649 10.0837 0.73056 10.0421 0.73974 9.99919C1.1195 8.2723 1.87158 6.65345 2.9488 5.24992C2.97934 5.2094 3.00988 5.16888 3.04042 5.12836C3.24765 4.85659 3.47293 4.60642 3.70874 4.35911C3.79325 4.27043 3.87452 4.17989 3.95372 4.08641C4.04788 3.97756 4.14976 3.88476 4.25973 3.79201C4.33923 3.72317 4.41546 3.65151 4.49168 3.57911C4.77243 3.31401 5.07398 3.08194 5.38497 2.85344C5.40828 2.83607 5.43159 2.81871 5.45561 2.80082C6.05044 2.35899 6.69745 1.98622 7.36871 1.67256C7.39412 1.66046 7.41952 1.64836 7.4457 1.6359C10.069 0.39081 13.2617 0.130871 16.0345 1.04739Z"
    fill="#FE0807" />
  <path
    d="M16.0345 1.04739C16.088 1.06456 16.088 1.06456 16.1426 1.08207C17.3408 1.46804 18.4591 2.00986 19.48 2.74924C19.5052 2.76743 19.5305 2.78562 19.5565 2.80436C19.8473 3.01471 20.122 3.2339 20.3848 3.47861C20.4303 3.5186 20.476 3.5584 20.5219 3.598C20.544 3.61747 20.5662 3.63695 20.589 3.65701C20.6445 3.70542 20.7007 3.75316 20.757 3.80055C20.9828 3.99542 21.1487 4.18819 21.2897 4.45109C21.3085 4.48333 21.3085 4.48333 21.3276 4.51622C21.4662 4.80165 21.4371 5.23304 21.3375 5.52777C21.2179 5.82989 21.0036 6.07172 20.7752 6.29686C20.7353 6.33683 20.7353 6.33683 20.6946 6.37761C20.606 6.46616 20.5171 6.55434 20.4281 6.64252C20.3643 6.70619 20.3005 6.76988 20.2367 6.83359C20.0997 6.97038 19.9625 7.10698 19.8252 7.24345C19.6266 7.44075 19.4283 7.63835 19.2301 7.83601C18.9085 8.15676 18.5867 8.47728 18.2646 8.79764C17.952 9.10872 17.6394 9.4199 17.327 9.73123C17.3077 9.75044 17.2885 9.76965 17.2686 9.78945C17.1719 9.88585 17.0751 9.98225 16.9784 10.0787C16.1769 10.8775 15.375 11.6759 14.5728 12.4741C14.627 12.5879 14.6846 12.6636 14.7747 12.7527C14.8022 12.7801 14.8298 12.8076 14.8582 12.8358C14.8885 12.8657 14.9188 12.8955 14.95 12.9262C14.9989 12.9747 15.0478 13.0233 15.0967 13.0719C15.1493 13.1241 15.202 13.1761 15.2546 13.2282C15.3647 13.3369 15.4745 13.4459 15.5842 13.555C15.857 13.826 16.1301 14.0967 16.4033 14.3673C16.6154 14.5772 16.8274 14.7874 17.0391 14.9978C17.1479 15.106 17.2569 15.2139 17.3661 15.3217C17.4505 15.4051 17.5345 15.4888 17.6186 15.5724C17.6485 15.6018 17.6785 15.6312 17.7093 15.6615C18.0713 16.0233 18.3273 16.3938 18.3489 16.9197C18.3309 17.372 18.1573 17.6966 17.8377 18.0029C17.6258 18.1844 17.3613 18.3261 17.0786 18.3437C17.0375 18.347 17.0375 18.347 16.9957 18.3503C16.5628 18.3699 16.2015 18.2059 15.8814 17.9225C15.7906 17.8353 15.7016 17.7466 15.6131 17.6571C15.5791 17.6232 15.5451 17.5893 15.5111 17.5554C15.4196 17.4642 15.3285 17.3726 15.2374 17.281C15.1419 17.185 15.046 17.0893 14.9502 16.9935C14.7692 16.8126 14.5885 16.6313 14.4078 16.45C14.202 16.2434 13.9958 16.0371 13.7897 15.8309C13.366 15.4069 12.9426 14.9826 12.5195 14.558C12.3191 14.724 12.1355 14.9024 11.9523 15.087C11.904 15.1355 11.8556 15.184 11.8073 15.2325C11.7557 15.2842 11.7042 15.336 11.6527 15.3877C11.545 15.496 11.4372 15.6042 11.3292 15.7123C11.0225 16.0195 10.716 16.3269 10.4097 16.6346C10.2403 16.8049 10.0707 16.9751 9.90083 17.145C9.79368 17.2522 9.68676 17.3596 9.58001 17.4672C9.49771 17.5501 9.41506 17.6325 9.33247 17.7151C9.30326 17.7446 9.27406 17.7742 9.24397 17.8047C8.90635 18.1405 8.56162 18.3314 8.07998 18.3546C7.68541 18.3481 7.34216 18.1934 7.05549 17.927C6.72187 17.5373 6.63734 17.1456 6.67266 16.6419C6.76481 16.1862 7.10826 15.8441 7.42859 15.5284C7.46157 15.4955 7.49453 15.4626 7.52746 15.4296C7.6158 15.3415 7.70445 15.2536 7.79317 15.1658C7.88625 15.0735 7.97904 14.981 8.07186 14.8885C8.24715 14.7139 8.42272 14.5395 8.59838 14.3653C8.79857 14.1667 8.99845 13.9678 9.19832 13.7688C9.60899 13.3601 10.02 12.9517 10.4313 12.5436C10.3805 12.4266 10.3162 12.3511 10.2255 12.262C10.1971 12.2339 10.1686 12.2057 10.1393 12.1768C10.1081 12.1462 10.0768 12.1156 10.0446 12.0841C10.0114 12.0514 9.97815 12.0186 9.94494 11.9858C9.87344 11.9153 9.80184 11.8448 9.73017 11.7745C9.61653 11.6628 9.50326 11.5508 9.39005 11.4388C9.0681 11.1201 8.74594 10.8017 8.42282 10.4842C8.24433 10.3088 8.0663 10.133 7.88874 9.95674C7.79494 9.86364 7.70092 9.77077 7.60634 9.67845C7.51711 9.59135 7.42849 9.50367 7.34026 9.41555C7.29293 9.36859 7.24501 9.32222 7.19706 9.2759C6.84789 8.92462 6.66221 8.53402 6.66171 8.03821C6.6694 7.63549 6.83717 7.35101 7.11313 7.06587C7.44108 6.76251 7.79524 6.69124 8.22721 6.69929C8.75638 6.7225 9.14064 7.10619 9.49379 7.46305C9.52674 7.49596 9.55971 7.52885 9.59271 7.56172C9.68107 7.64987 9.76912 7.73834 9.8571 7.82688C9.94953 7.91978 10.0423 8.01237 10.1349 8.105C10.3099 8.27994 10.4846 8.45515 10.6592 8.63045C10.8583 8.83023 11.0576 9.02971 11.2569 9.22917C11.6665 9.639 12.0757 10.0492 12.4847 10.4597C12.6474 10.3239 12.8019 10.1828 12.9516 10.0329C12.9726 10.0119 12.9937 9.9909 13.0154 9.96929C13.0854 9.89962 13.1552 9.82984 13.225 9.76005C13.2754 9.70982 13.3258 9.6596 13.3762 9.60939C13.5125 9.4735 13.6487 9.3375 13.7849 9.20148C13.9275 9.0591 14.0701 8.91682 14.2128 8.77452C14.4521 8.53576 14.6913 8.29692 14.9305 8.05804C15.2073 7.78161 15.4843 7.50531 15.7613 7.22907C15.9991 6.99189 16.2368 6.75465 16.4745 6.51735C16.6165 6.37561 16.7585 6.23389 16.9006 6.09223C17.0339 5.95923 17.1672 5.82615 17.3004 5.69301C17.3494 5.64406 17.3985 5.59514 17.4475 5.54625C17.5143 5.47974 17.5809 5.41314 17.6475 5.3465C17.6769 5.31722 17.6769 5.31722 17.707 5.28735C17.8052 5.19097 17.8052 5.19097 17.879 5.07626C17.8427 5.0637 17.8427 5.0637 17.8056 5.05089C17.711 5.00942 17.6324 4.95977 17.5484 4.90015C16.5165 4.16931 15.2823 3.75632 14.0508 3.51334C14.0077 3.50466 14.0077 3.50466 13.9637 3.4958C11.7586 3.07114 9.28767 3.67432 7.43831 4.90261C7.08183 5.14687 6.74348 5.40507 6.42904 5.70143C6.38496 5.73923 6.34073 5.77686 6.29636 5.81431C5.96112 6.10688 5.65819 6.42733 5.38497 6.77811C5.35756 6.81223 5.33015 6.84634 5.3019 6.88149C4.35045 8.075 3.74831 9.48525 3.48883 10.9825C3.47706 11.0494 3.46477 11.1163 3.45188 11.183C3.10651 12.9756 3.50875 14.956 4.30609 16.5724C4.31809 16.5972 4.33008 16.6219 4.34244 16.6474C4.73812 17.4568 5.28233 18.1834 5.907 18.83C5.93913 18.8635 5.93913 18.8635 5.9719 18.8976C6.2608 19.1974 6.55497 19.4756 6.89041 19.7228C6.95229 19.7686 7.01329 19.8155 7.07425 19.8626C7.38558 20.1002 7.71363 20.2991 8.05621 20.4886C8.1271 20.5278 8.19757 20.5677 8.268 20.6078C8.59078 20.7886 8.92751 20.9266 9.27329 21.0574C9.34063 21.083 9.40762 21.1096 9.47453 21.1362C10.2787 21.4449 11.1861 21.6095 12.0464 21.6168C12.0796 21.6171 12.1128 21.6175 12.1471 21.6178C12.8634 21.6236 13.5561 21.6196 14.2596 21.4696C14.2911 21.4633 14.3227 21.457 14.3552 21.4504C16.0561 21.1063 17.6078 20.2728 18.8535 19.0731C18.874 19.0534 18.8945 19.0338 18.9156 19.0135C19.1806 18.7575 19.4275 18.4961 19.654 18.2048C19.6805 18.1724 19.7071 18.1399 19.7345 18.1065C20.6641 16.9483 21.2154 15.5518 21.4985 14.1065C21.5039 14.08 21.5094 14.0536 21.515 14.0264C21.574 13.7349 21.6049 13.4454 21.6198 13.1487C21.6211 13.1219 21.6225 13.0952 21.6239 13.0677C21.6306 12.9329 21.6364 12.7981 21.6409 12.6633C21.6611 12.1455 21.79 11.7805 22.1728 11.4235C22.455 11.1833 22.7777 11.0636 23.1512 11.074C23.555 11.1241 23.9296 11.2878 24.1913 11.6015C24.3957 11.8751 24.4964 12.1115 24.4986 12.4528C24.4988 12.478 24.4991 12.5032 24.4993 12.5291C24.5038 13.1317 24.4878 13.7192 24.3871 14.3149C24.3802 14.3565 24.3733 14.3982 24.3662 14.4411C23.981 16.7051 22.978 18.8283 21.4289 20.5318C21.4097 20.5531 21.3905 20.5744 21.3708 20.5963C20.9363 21.0771 20.4735 21.5213 19.9556 21.9118C19.8982 21.9554 19.8415 21.9997 19.785 22.0443C18.0626 23.399 15.9128 24.2267 13.7376 24.4565C13.7089 24.4598 13.6802 24.4631 13.6506 24.4664C13.2806 24.5035 12.9084 24.4997 12.5369 24.4999C12.5005 24.5 12.464 24.5 12.4265 24.5C11.8479 24.4994 11.2822 24.4786 10.7097 24.387C10.6729 24.3813 10.6361 24.3755 10.5982 24.3695C8.61964 24.0483 6.71529 23.2328 5.14135 21.9906C5.10604 21.9627 5.07074 21.9349 5.03436 21.9062C4.84779 21.7561 4.66813 21.5994 4.49112 21.4383C4.4218 21.3756 4.35133 21.315 4.27999 21.2547C3.96344 20.9785 3.66606 20.678 3.4068 20.3476C3.34494 20.2706 3.28139 20.197 3.21566 20.1233C3.08638 19.9767 2.96868 19.8233 2.85309 19.6657C2.83204 19.637 2.81099 19.6084 2.7893 19.5788C2.44569 19.1068 2.14363 18.616 1.86992 18.1006C1.85184 18.0666 1.85184 18.0666 1.8334 18.0319C1.74885 17.8714 1.66904 17.7089 1.5915 17.5449C1.57823 17.517 1.56496 17.4891 1.55129 17.4603C1.1145 16.5298 0.826499 15.544 0.645308 14.5341C0.637208 14.489 0.637208 14.489 0.628944 14.443C0.611867 14.3426 0.596725 14.2421 0.582229 14.1412C0.575956 14.0985 0.569684 14.0557 0.563222 14.0117C0.503145 13.5663 0.500838 13.1215 0.501638 12.6727C0.501747 12.5447 0.50093 12.4168 0.500049 12.2889C0.498064 11.5594 0.556527 10.8391 0.712738 10.1254C0.721649 10.0837 0.73056 10.0421 0.73974 9.99919C1.1195 8.2723 1.87158 6.65345 2.9488 5.24992C2.97934 5.2094 3.00988 5.16888 3.04042 5.12836C3.24765 4.85659 3.47293 4.60642 3.70874 4.35911C3.79325 4.27043 3.87452 4.17989 3.95372 4.08641C4.04788 3.97756 4.14976 3.88476 4.25973 3.79201C4.33923 3.72317 4.41546 3.65151 4.49168 3.57911C4.77243 3.31401 5.07398 3.08194 5.38497 2.85344C5.40828 2.83607 5.43159 2.81871 5.45561 2.80082C6.05044 2.35899 6.69745 1.98622 7.36871 1.67256C7.39412 1.66046 7.41952 1.64836 7.4457 1.6359C10.069 0.39081 13.2617 0.130871 16.0345 1.04739Z"
    stroke="black" mask="url(#path-1-outside-1_1130_3733)" />
</svg>