<svg width="92" height="92" viewBox="0 0 92 92" fill="none" xmlns="http://www.w3.org/2000/svg">
<path d="M91.9239 45.9619C91.9239 20.5779 71.346 7.12217e-06 45.9619 8.23174e-06C20.5779 9.34132e-06 -3.11863e-06 20.5779 -2.00906e-06 45.9619C-8.99487e-07 71.346 20.5779 91.9239 45.9619 91.9239C71.346 91.9239 91.9239 71.346 91.9239 45.9619Z" fill="#37AB87"/>
<path d="M72.9985 22.5827C75.0653 22.5827 76.7467 20.9012 76.7467 18.8345C76.7467 16.7677 75.0653 15.0863 72.9985 15.0863H18.9269C16.8601 15.0863 15.1787 16.7677 15.1787 18.8345C15.1787 20.9012 16.8601 22.5827 18.9269 22.5827H72.9985ZM17.103 18.8341C17.103 17.8286 17.9211 17.0106 18.9265 17.0106H72.9985C74.004 17.0106 74.822 17.8286 74.822 18.8341C74.822 19.8396 74.004 20.6576 72.9985 20.6576H18.9269C17.9211 20.658 17.103 19.84 17.103 18.8341Z" fill="#064C40"/>
<path d="M72.9985 73.5583C75.0653 73.5583 76.7467 71.8769 76.7467 69.8101C76.7467 67.7434 75.0653 66.0619 72.9985 66.0619H18.9269C16.8601 66.0619 15.1787 67.7434 15.1787 69.8101C15.1787 71.8769 16.8601 73.5583 18.9269 73.5583H72.9985ZM17.103 69.8101C17.103 68.8047 17.9211 67.9866 18.9265 67.9866H72.9985C74.004 67.9866 74.822 68.8047 74.822 69.8101C74.822 70.8156 74.004 71.6336 72.9985 71.6336H18.9269C17.9211 71.6336 17.103 70.8156 17.103 69.8101Z" fill="#064C40"/>
<path d="M73.1777 67.0238V21.6204C73.1777 21.0887 72.7469 20.658 72.2153 20.658C71.6837 20.658 71.2529 21.0887 71.2529 21.6204V67.0242C71.2529 67.5558 71.6837 67.9865 72.2153 67.9865C72.7469 67.9865 73.1777 67.5554 73.1777 67.0238Z" fill="#064C40"/>
<path d="M20.6728 67.0238V21.6204C20.6728 21.0887 20.242 20.658 19.7104 20.658C19.1788 20.658 18.748 21.0887 18.748 21.6204V67.0242C18.748 67.5558 19.1788 67.9865 19.7104 67.9865C20.242 67.9865 20.6728 67.5554 20.6728 67.0238Z" fill="#064C40"/>
<path d="M46.9257 77.6942V72.596C46.9257 72.0644 46.4949 71.6336 45.9633 71.6336C45.4317 71.6336 45.001 72.0644 45.001 72.596V77.6942C45.001 78.2258 45.4317 78.6566 45.9633 78.6566C46.4949 78.6566 46.9257 78.2254 46.9257 77.6942Z" fill="#064C40"/>
<path d="M49.8657 80.6344C49.8657 78.4826 48.115 76.7318 45.9631 76.7318C43.8113 76.7318 42.0605 78.4826 42.0605 80.6344C42.0605 82.7863 43.8113 84.537 45.9631 84.537C48.115 84.537 49.8657 82.7863 49.8657 80.6344ZM43.9853 80.6344C43.9853 79.5439 44.8726 78.6566 45.9631 78.6566C47.0537 78.6566 47.941 79.5439 47.941 80.6344C47.941 81.725 47.0537 82.6123 45.9631 82.6123C44.8726 82.6123 43.9853 81.725 43.9853 80.6344Z" fill="#064C40"/>
<path d="M20.6731 22.0054C20.3544 22.0054 20.0957 22.2641 20.0957 22.5828V66.0619C20.0957 66.3806 20.3544 66.6393 20.6731 66.6393H71.2533C71.572 66.6393 71.8307 66.3806 71.8307 66.0619V22.5828C71.8307 22.2641 71.572 22.0054 71.2533 22.0054H20.6731ZM71.2533 66.0615H20.6731V22.5828H71.2533V66.0615Z" fill="#064C40"/>
<path d="M16.5254 69.8102C16.5254 71.1341 17.6025 72.2111 18.9263 72.2111H72.9983C74.3221 72.2111 75.3992 71.1341 75.3992 69.8102C75.3992 68.4864 74.3221 67.4093 72.9983 67.4093H18.9267C17.6025 67.4089 16.5254 68.486 16.5254 69.8102ZM74.8222 69.8102C74.8222 70.8157 74.0042 71.6337 72.9987 71.6337H18.9267C17.9212 71.6337 17.1032 70.8157 17.1032 69.8102C17.1032 68.8048 17.9212 67.9867 18.9267 67.9867H72.9987C74.0042 67.9864 74.8222 68.8044 74.8222 69.8102Z" fill="#064C40"/>
<path d="M43.4072 80.6344C43.4072 82.0433 44.5536 83.1896 45.9625 83.1896C47.3714 83.1896 48.5178 82.0433 48.5178 80.6344C48.5178 79.2255 47.3714 78.0791 45.9625 78.0791C44.5536 78.0791 43.4072 79.2255 43.4072 80.6344ZM47.9403 80.6344C47.9403 81.7249 47.053 82.6122 45.9625 82.6122C44.8719 82.6122 43.9846 81.7249 43.9846 80.6344C43.9846 79.5438 44.8719 78.6565 45.9625 78.6565C47.053 78.6565 47.9403 79.5438 47.9403 80.6344Z" fill="#064C40"/>
<path d="M15.1787 69.8102C15.1787 71.877 16.8601 73.5584 18.9269 73.5584H45.0008V76.8566C43.3135 77.287 42.0605 78.8148 42.0605 80.6341C42.0605 82.7859 43.8113 84.5366 45.9631 84.5366C48.115 84.5366 49.8657 82.7859 49.8657 80.6341C49.8657 78.8148 48.6127 77.2866 46.9255 76.8566V73.5584H72.9989C75.0657 73.5584 76.7471 71.877 76.7471 69.8102C76.7471 67.8039 75.1612 66.1652 73.1779 66.0709V22.5736C75.1615 22.4793 76.7471 20.8406 76.7471 18.8343C76.7471 16.7675 75.0657 15.0861 72.9989 15.0861H18.9273C16.8605 15.0861 15.1791 16.7675 15.1791 18.8343C15.1791 20.8406 16.7651 22.4793 18.7483 22.5736V66.0709C16.7647 66.1652 15.1787 67.8039 15.1787 69.8102ZM18.7756 21.997C17.0826 21.9165 15.7561 20.5273 15.7561 18.8347C15.7561 17.0863 17.1785 15.6639 18.9269 15.6639H72.9989C74.7473 15.6639 76.1697 17.0863 76.1697 18.8347C76.1697 20.5277 74.8436 21.9165 73.1502 21.997C72.8423 22.0116 72.6001 22.2657 72.6001 22.5736V66.0709C72.6001 66.3792 72.8423 66.6329 73.1502 66.6475C74.8432 66.728 76.1697 68.1172 76.1697 69.8098C76.1697 71.5582 74.7473 72.9806 72.9989 72.9806H46.9255C46.6067 72.9806 46.3481 73.2393 46.3481 73.558V76.8562C46.3481 77.1203 46.5271 77.3505 46.7827 77.4156C48.2578 77.7916 49.2879 79.1151 49.2879 80.6337C49.2879 82.4672 47.7962 83.9588 45.9627 83.9588C44.1292 83.9588 42.6376 82.4672 42.6376 80.6337C42.6376 79.1151 43.6677 77.7916 45.1428 77.4156C45.3984 77.3501 45.5774 77.1199 45.5774 76.8562V73.558C45.5774 73.2393 45.3187 72.9806 45 72.9806H18.9273C17.1789 72.9806 15.7565 71.5582 15.7565 69.8098C15.7565 68.1168 17.0826 66.728 18.776 66.6475C19.084 66.6329 19.3261 66.3788 19.3261 66.0709V22.5736C19.3257 22.2653 19.0836 22.0116 18.7756 21.997Z" fill="#064C40"/>
<path d="M75.4002 18.8341C75.4002 17.5103 74.3231 16.4332 72.9993 16.4332H18.9273C17.6034 16.4332 16.5264 17.5103 16.5264 18.8341C16.5264 20.1579 17.6034 21.235 18.9273 21.235H72.9993C74.3231 21.2354 75.4002 20.1583 75.4002 18.8341ZM17.1034 18.8341C17.1034 17.8286 17.9214 17.0106 18.9269 17.0106H72.9989C74.0044 17.0106 74.8224 17.8286 74.8224 18.8341C74.8224 19.8396 74.0044 20.6576 72.9989 20.6576H18.9273C17.9214 20.658 17.1034 19.84 17.1034 18.8341Z" fill="#064C40"/>
<path d="M55.768 35.327C55.768 29.9209 51.3697 25.5225 45.9631 25.5225C40.5566 25.5225 36.1582 29.9209 36.1582 35.327C36.1582 40.7332 40.5566 45.132 45.9631 45.132C51.3697 45.132 55.768 40.7332 55.768 35.327ZM38.0829 35.327C38.0829 30.9822 41.6183 27.4472 45.9631 27.4472C50.308 27.4472 53.8433 30.9822 53.8433 35.327C53.8433 39.6723 50.308 43.2072 45.9631 43.2072C41.6183 43.2072 38.0829 39.6723 38.0829 35.327Z" fill="#48766F"/>
<path d="M46.9257 43.7025V35.9066L53.9679 32.1753C54.4379 31.9267 54.6169 31.3442 54.3678 30.8746C54.1192 30.405 53.5356 30.226 53.0671 30.4747L45.513 34.4769C45.1981 34.6436 45.001 34.9708 45.001 35.3273V43.7025C45.001 44.2341 45.4317 44.6649 45.9633 44.6649C46.4949 44.6649 46.9257 44.2341 46.9257 43.7025Z" fill="#48766F"/>
<path d="M46.9257 35.327V26.4849C46.9257 25.9532 46.4949 25.5225 45.9633 25.5225C45.4317 25.5225 45.001 25.9532 45.001 26.4849V35.327C45.001 35.8586 45.4317 36.2894 45.9633 36.2894C46.4949 36.2894 46.9257 35.8586 46.9257 35.327Z" fill="#48766F"/>
<path d="M31.9474 50.5994C31.9474 48.6204 30.3376 47.0106 28.359 47.0106C26.3803 47.0106 24.7705 48.6204 24.7705 50.5994C24.7705 52.5784 26.3803 54.1883 28.359 54.1883C30.3376 54.1883 31.9474 52.5784 31.9474 50.5994ZM26.6948 50.5994C26.6948 49.6817 27.4409 48.9353 28.3586 48.9353C29.2763 48.9353 30.0223 49.6817 30.0223 50.5994C30.0223 51.5171 29.2763 52.2635 28.3586 52.2635C27.4409 52.2635 26.6948 51.5171 26.6948 50.5994Z" fill="#2F796C"/>
<path d="M43.0236 51.5616C43.5552 51.5616 43.9859 51.1308 43.9859 50.5992C43.9859 50.0676 43.5552 49.6369 43.0236 49.6369H34.5971C34.0655 49.6369 33.6348 50.0676 33.6348 50.5992C33.6348 51.1308 34.0655 51.5616 34.5971 51.5616H43.0236Z" fill="#48766F"/>
<path d="M31.9474 60.229C31.9474 58.2504 30.3376 56.6405 28.359 56.6405C26.3803 56.6405 24.7705 58.2504 24.7705 60.229C24.7705 62.208 26.3803 63.8178 28.359 63.8178C30.3376 63.8178 31.9474 62.208 31.9474 60.229ZM26.6948 60.229C26.6948 59.3117 27.4409 58.5653 28.3586 58.5653C29.2763 58.5653 30.0223 59.3117 30.0223 60.229C30.0223 61.1467 29.2763 61.8931 28.3586 61.8931C27.4409 61.8931 26.6948 61.1467 26.6948 60.229Z" fill="#2F796C"/>
<path d="M43.0236 61.1915C43.5552 61.1915 43.9859 60.7607 43.9859 60.2291C43.9859 59.6975 43.5552 59.2668 43.0236 59.2668H34.5971C34.0655 59.2668 33.6348 59.6975 33.6348 60.2291C33.6348 60.7607 34.0655 61.1915 34.5971 61.1915H43.0236Z" fill="#48766F"/>
<path d="M55.7701 50.5994C55.7701 48.6204 54.1602 47.0106 52.1816 47.0106C50.203 47.0106 48.5928 48.6204 48.5928 50.5994C48.5928 52.5784 50.203 54.1883 52.1816 54.1883C54.1602 54.1883 55.7701 52.5784 55.7701 50.5994ZM50.5171 50.5994C50.5171 49.6817 51.2635 48.9353 52.1812 48.9353C53.0989 48.9353 53.845 49.6817 53.845 50.5994C53.845 51.5171 53.0989 52.2635 52.1812 52.2635C51.2635 52.2635 50.5171 51.5171 50.5171 50.5994Z" fill="#2F796C"/>
<path d="M66.8449 51.5616C67.3765 51.5616 67.8072 51.1308 67.8072 50.5992C67.8072 50.0676 67.3765 49.6369 66.8449 49.6369H58.4184C57.8868 49.6369 57.4561 50.0676 57.4561 50.5992C57.4561 51.1308 57.8868 51.5616 58.4184 51.5616H66.8449Z" fill="#48766F"/>
<path d="M55.7701 60.229C55.7701 58.2504 54.1602 56.6405 52.1816 56.6405C50.203 56.6405 48.5928 58.2504 48.5928 60.229C48.5928 62.208 50.203 63.8178 52.1816 63.8178C54.1602 63.8178 55.7701 62.208 55.7701 60.229ZM50.5171 60.229C50.5171 59.3117 51.2635 58.5653 52.1812 58.5653C53.0989 58.5653 53.845 59.3117 53.845 60.229C53.845 61.1467 53.0989 61.8931 52.1812 61.8931C51.2635 61.8931 50.5171 61.1467 50.5171 60.229Z" fill="#2F796C"/>
<path d="M66.8449 61.1915C67.3765 61.1915 67.8072 60.7607 67.8072 60.2291C67.8072 59.6975 67.3765 59.2668 66.8449 59.2668H58.4184C57.8868 59.2668 57.4561 59.6975 57.4561 60.2291C57.4561 60.7607 57.8868 61.1915 58.4184 61.1915H66.8449Z" fill="#48766F"/>
<path d="M46.6275 34.2231C46.7187 34.2782 46.8219 34.3059 46.9255 34.3059C47.0182 34.3059 47.111 34.2836 47.1957 34.2385L52.6869 31.3291C52.8332 31.2518 52.9391 31.1151 52.9779 30.9542C53.0168 30.7933 52.9845 30.6235 52.8894 30.4876C51.5125 28.5229 49.3645 27.2295 46.9955 26.9388C46.972 26.9361 46.9486 26.9346 46.9251 26.9346C46.785 26.9346 46.6487 26.9858 46.5424 27.0797C46.4185 27.1894 46.3477 27.3469 46.3477 27.512V33.7285C46.3477 33.931 46.4539 34.1188 46.6275 34.2231ZM46.9251 27.5124C49.1932 27.7903 51.1645 29.0329 52.4163 30.8195L46.9251 33.7285V27.5124Z" fill="#2F796C"/>
<path d="M45.0001 26.9348C44.9767 26.9348 44.9532 26.9364 44.9297 26.9391C40.6968 27.458 37.5049 31.0638 37.5049 35.327C37.5049 39.5903 40.6968 43.1964 44.9297 43.7154C44.9532 43.718 44.9767 43.7196 45.0001 43.7196C45.1403 43.7196 45.2765 43.6684 45.3828 43.5745C45.5067 43.4648 45.5776 43.3073 45.5776 43.1422V27.5123C45.5776 27.3467 45.5067 27.1893 45.3828 27.08C45.2765 26.9857 45.1403 26.9348 45.0001 26.9348ZM45.0001 43.1422C41.1083 42.6652 38.0823 39.3458 38.0823 35.327C38.0823 31.3086 41.1083 27.9888 45.0001 27.5119V43.1422Z" fill="#2F796C"/>
<path d="M55.768 35.327C55.768 29.9209 51.3697 25.5225 45.9631 25.5225C40.5566 25.5225 36.1582 29.9209 36.1582 35.327C36.1582 40.7332 40.5566 45.132 45.9631 45.132C51.3697 45.132 55.768 40.7332 55.768 35.327ZM36.7356 35.327C36.7356 30.2392 40.8749 26.0999 45.9631 26.0999C51.0513 26.0999 55.1906 30.2392 55.1906 35.327C55.1906 40.4152 51.0513 44.5545 45.9631 44.5545C40.8753 44.5545 36.7356 40.4152 36.7356 35.327Z" fill="#2F796C"/>
<path d="M46.9251 43.7196C46.9486 43.7196 46.972 43.7181 46.9955 43.7154C51.2284 43.1965 54.4203 39.5903 54.4203 35.3271C54.4203 34.3047 54.2306 33.2903 53.856 32.3133C53.7967 32.159 53.6743 32.0373 53.5196 31.9792C53.4541 31.9546 53.3852 31.9423 53.3167 31.9423C53.2235 31.9423 53.1304 31.965 53.0465 32.0096L46.6548 35.3964C46.4658 35.4965 46.3477 35.6928 46.3477 35.9064V43.1422C46.3477 43.3078 46.4185 43.4652 46.5424 43.5745C46.6487 43.6684 46.785 43.7196 46.9251 43.7196ZM46.9251 35.9064L53.3167 32.5197C53.6512 33.3931 53.8425 34.337 53.8425 35.3271C53.8425 39.3459 50.8165 42.6653 46.9247 43.1422V35.9064H46.9251Z" fill="#2F796C"/>
<path d="M43.0226 51.5618C43.5542 51.5618 43.985 51.131 43.985 50.5994C43.985 50.0678 43.5542 49.6371 43.0226 49.6371H34.5962C34.0645 49.6371 33.6338 50.0678 33.6338 50.5994C33.6338 51.131 34.0645 51.5618 34.5962 51.5618H43.0226ZM34.2116 50.5994C34.2116 50.3873 34.3844 50.2145 34.5965 50.2145H43.023C43.2351 50.2145 43.4079 50.3873 43.4079 50.5994C43.4079 50.8115 43.2351 50.9844 43.023 50.9844H34.5965C34.384 50.9844 34.2116 50.8115 34.2116 50.5994Z" fill="#2F796C"/>
<path d="M43.0226 61.1917C43.5542 61.1917 43.985 60.7609 43.985 60.2293C43.985 59.6977 43.5542 59.2669 43.0226 59.2669H34.5962C34.0645 59.2669 33.6338 59.6977 33.6338 60.2293C33.6338 60.7609 34.0645 61.1917 34.5962 61.1917H43.0226ZM34.2116 60.2293C34.2116 60.0172 34.3844 59.8444 34.5965 59.8444H43.023C43.2351 59.8444 43.4079 60.0172 43.4079 60.2293C43.4079 60.4414 43.2351 60.6142 43.023 60.6142H34.5965C34.384 60.6142 34.2116 60.4414 34.2116 60.2293Z" fill="#2F796C"/>
<path d="M66.8449 51.5618C67.3765 51.5618 67.8072 51.131 67.8072 50.5994C67.8072 50.0678 67.3765 49.6371 66.8449 49.6371H58.4184C57.8868 49.6371 57.4561 50.0678 57.4561 50.5994C57.4561 51.131 57.8868 51.5618 58.4184 51.5618H66.8449ZM58.0335 50.5994C58.0335 50.3873 58.2063 50.2145 58.4184 50.2145H66.8449C67.057 50.2145 67.2298 50.3873 67.2298 50.5994C67.2298 50.8115 67.057 50.9844 66.8449 50.9844H58.4184C58.2063 50.9844 58.0335 50.8115 58.0335 50.5994Z" fill="#2F796C"/>
<path d="M66.8449 61.1917C67.3765 61.1917 67.8072 60.7609 67.8072 60.2293C67.8072 59.6977 67.3765 59.2669 66.8449 59.2669H58.4184C57.8868 59.2669 57.4561 59.6977 57.4561 60.2293C57.4561 60.7609 57.8868 61.1917 58.4184 61.1917H66.8449ZM58.0335 60.2293C58.0335 60.0172 58.2063 59.8444 58.4184 59.8444H66.8449C67.057 59.8444 67.2298 60.0172 67.2298 60.2293C67.2298 60.4414 67.057 60.6142 66.8449 60.6142H58.4184C58.2063 60.6142 58.0335 60.4414 58.0335 60.2293Z" fill="#2F796C"/>
<path d="M30.6005 50.5993C30.6005 49.3633 29.595 48.3578 28.3593 48.3578C27.1236 48.3578 26.1182 49.3633 26.1182 50.5993C26.1182 51.8354 27.1236 52.8409 28.3593 52.8409C29.595 52.8409 30.6005 51.8354 30.6005 50.5993ZM26.6952 50.5993C26.6952 49.6816 27.4412 48.9352 28.3589 48.9352C29.2766 48.9352 30.0227 49.6816 30.0227 50.5993C30.0227 51.517 29.2766 52.2634 28.3589 52.2634C27.4412 52.2634 26.6952 51.517 26.6952 50.5993Z" fill="#2F796C"/>
<path d="M31.9474 50.5994C31.9474 48.6204 30.3376 47.0106 28.359 47.0106C26.3803 47.0106 24.7705 48.6204 24.7705 50.5994C24.7705 52.5784 26.3803 54.1883 28.359 54.1883C30.3376 54.1883 31.9474 52.5784 31.9474 50.5994ZM25.3475 50.5994C25.3475 48.9392 26.6983 47.588 28.3586 47.588C30.0188 47.588 31.3696 48.9388 31.3696 50.5994C31.3696 52.2601 30.0188 53.6108 28.3586 53.6108C26.6983 53.6108 25.3475 52.2597 25.3475 50.5994Z" fill="#2F796C"/>
<path d="M31.9474 60.229C31.9474 58.2504 30.3376 56.6405 28.359 56.6405C26.3803 56.6405 24.7705 58.2504 24.7705 60.229C24.7705 62.208 26.3803 63.8178 28.359 63.8178C30.3376 63.8178 31.9474 62.208 31.9474 60.229ZM25.3475 60.229C25.3475 58.5687 26.6983 57.218 28.3586 57.218C30.0188 57.218 31.3696 58.5687 31.3696 60.229C31.3696 61.8893 30.0188 63.2404 28.3586 63.2404C26.6983 63.2404 25.3475 61.8893 25.3475 60.229Z" fill="#2F796C"/>
<path d="M30.6005 60.2291C30.6005 58.9934 29.595 57.9879 28.3593 57.9879C27.1236 57.9879 26.1182 58.9934 26.1182 60.2291C26.1182 61.4652 27.1236 62.4706 28.3593 62.4706C29.595 62.4706 30.6005 61.4652 30.6005 60.2291ZM26.6952 60.2291C26.6952 59.3118 27.4412 58.5654 28.3589 58.5654C29.2766 58.5654 30.0227 59.3118 30.0227 60.2291C30.0227 61.1468 29.2766 61.8932 28.3589 61.8932C27.4412 61.8932 26.6952 61.1468 26.6952 60.2291Z" fill="#2F796C"/>
<path d="M55.771 50.5994C55.771 48.6204 54.1612 47.0105 52.1826 47.0105C50.204 47.0105 48.5938 48.6204 48.5938 50.5994C48.5938 52.5784 50.204 54.1882 52.1826 54.1882C54.1612 54.1882 55.771 52.5784 55.771 50.5994ZM49.1708 50.5994C49.1708 48.9391 50.5219 47.5879 52.1822 47.5879C53.8425 47.5879 55.1932 48.9387 55.1932 50.5994C55.1932 52.26 53.8425 53.6108 52.1822 53.6108C50.5219 53.6108 49.1708 52.2596 49.1708 50.5994Z" fill="#2F796C"/>
<path d="M54.4231 50.5993C54.4231 49.3632 53.4176 48.3577 52.182 48.3577C50.9459 48.3577 49.9404 49.3632 49.9404 50.5993C49.9404 51.8353 50.9459 52.8408 52.182 52.8408C53.4176 52.8408 54.4231 51.8353 54.4231 50.5993ZM50.5175 50.5993C50.5175 49.6816 51.2639 48.9351 52.1816 48.9351C53.0993 48.9351 53.8453 49.6816 53.8453 50.5993C53.8453 51.517 53.0993 52.2634 52.1816 52.2634C51.2639 52.2634 50.5175 51.517 50.5175 50.5993Z" fill="#2F796C"/>
<path d="M55.771 60.229C55.771 58.2504 54.1612 56.6405 52.1826 56.6405C50.204 56.6405 48.5938 58.2504 48.5938 60.229C48.5938 62.208 50.204 63.8178 52.1826 63.8178C54.1612 63.8178 55.771 62.208 55.771 60.229ZM49.1708 60.229C49.1708 58.5687 50.5219 57.218 52.1822 57.218C53.8425 57.218 55.1932 58.5687 55.1932 60.229C55.1932 61.8893 53.8425 63.2404 52.1822 63.2404C50.5219 63.2404 49.1708 61.8893 49.1708 60.229Z" fill="#2F796C"/>
<path d="M54.4231 60.2291C54.4231 58.9934 53.4176 57.9879 52.182 57.9879C50.9459 57.9879 49.9404 58.9934 49.9404 60.2291C49.9404 61.4652 50.9459 62.4706 52.182 62.4706C53.4176 62.4706 54.4231 61.4652 54.4231 60.2291ZM50.5175 60.2291C50.5175 59.3118 51.2639 58.5654 52.1816 58.5654C53.0993 58.5654 53.8453 59.3118 53.8453 60.2291C53.8453 61.1468 53.0993 61.8932 52.1816 61.8932C51.2639 61.8932 50.5175 61.1468 50.5175 60.2291Z" fill="#2F796C"/>
</svg>
