<svg width="130" height="131" viewBox="0 0 130 131" fill="none" xmlns="http://www.w3.org/2000/svg">
<path d="M97.5 97.6094C115.449 79.6601 115.449 50.5586 97.5 32.6094C79.5507 14.6601 50.4493 14.6601 32.5 32.6094C14.5507 50.5586 14.5507 79.6601 32.5 97.6094C50.4493 115.559 79.5507 115.559 97.5 97.6094Z" fill="#37AB87"/>
<path d="M34.2148 90.4976C34.2148 92.5643 35.8963 94.2458 37.963 94.2458H64.0369V97.544C62.3497 97.9743 61.0967 99.5022 61.0967 101.321C61.0967 103.473 62.8474 105.224 64.9992 105.224C67.1511 105.224 68.9018 103.473 68.9018 101.321C68.9018 99.5022 67.6488 97.9739 65.9616 97.544V94.2458H92.0351C94.1018 94.2458 95.7833 92.5643 95.7833 90.4976C95.7833 88.4912 94.1973 86.8525 92.2141 86.7582V43.261C94.1977 43.1667 95.7833 41.528 95.7833 39.5216C95.7833 37.4549 94.1018 35.7734 92.0351 35.7734H37.9634C35.8967 35.7734 34.2152 37.4549 34.2152 39.5216C34.2152 41.528 35.8012 43.1667 37.7844 43.261V86.7582C35.8008 86.8525 34.2148 88.4912 34.2148 90.4976ZM66.9771 101.322C66.9771 102.412 66.0898 103.3 64.9992 103.3C63.9087 103.3 63.0214 102.412 63.0214 101.322C63.0214 100.231 63.9087 99.344 64.9992 99.344C66.0898 99.344 66.9771 100.231 66.9771 101.322ZM36.1396 39.5216C36.1396 38.5162 36.9576 37.6982 37.963 37.6982H92.0351C93.0405 37.6982 93.8585 38.5162 93.8585 39.5216C93.8585 40.5271 93.0405 41.3451 92.0351 41.3451H37.9634C36.9576 41.3455 36.1396 40.5275 36.1396 39.5216ZM90.2893 43.2702V86.7493H39.7092V43.2702H90.2893ZM37.9634 88.6737H92.0354C93.0409 88.6737 93.8589 89.4917 93.8589 90.4972C93.8589 91.5026 93.0409 92.3207 92.0354 92.3207H37.9634C36.958 92.3207 36.14 91.5026 36.14 90.4972C36.14 89.4917 36.9576 88.6737 37.9634 88.6737Z" fill="#37AB87"/>
<path d="M74.8048 56.0159C74.8048 54.371 74.3956 52.8201 73.6769 51.4573C73.6719 51.447 73.6696 51.4362 73.6642 51.4258C73.66 51.4177 73.6542 51.4115 73.6496 51.4038C71.9966 48.3166 68.7404 46.2109 65.0002 46.2109C59.5937 46.2109 55.1953 50.6093 55.1953 56.0155C55.1953 61.4216 59.5937 65.8204 65.0002 65.8204C70.4068 65.8204 74.8048 61.422 74.8048 56.0159ZM65.9622 48.2011C68.2303 48.479 70.2016 49.7216 71.4534 51.5082L65.9622 54.4172V48.2011ZM65.9622 56.5952L72.3538 53.2088C72.6884 54.0823 72.8797 55.0262 72.8797 56.0159C72.8797 60.0347 69.8536 63.3541 65.9618 63.831V56.5952H65.9622ZM64.0375 63.831C60.1457 63.3541 57.1197 60.0347 57.1197 56.0159C57.1197 51.9974 60.1457 48.6777 64.0375 48.2007V63.831Z" fill="#37AB87"/>
<path d="M50.9855 71.2881C50.9855 69.3091 49.3757 67.6992 47.397 67.6992C45.4184 67.6992 43.8086 69.3091 43.8086 71.2881C43.8086 73.2671 45.4184 74.8769 47.397 74.8769C49.3757 74.8769 50.9855 73.2671 50.9855 71.2881ZM45.7329 71.2881C45.7329 70.3703 46.479 69.6239 47.3967 69.6239C48.3144 69.6239 49.0604 70.3703 49.0604 71.2881C49.0604 72.2058 48.3144 72.9522 47.3967 72.9522C46.479 72.9522 45.7329 72.2058 45.7329 71.2881Z" fill="#37AB87"/>
<path d="M62.0607 72.2489C62.5923 72.2489 63.023 71.8182 63.023 71.2866C63.023 70.755 62.5923 70.3242 62.0607 70.3242H53.6342C53.1026 70.3242 52.6719 70.755 52.6719 71.2866C52.6719 71.8182 53.1026 72.2489 53.6342 72.2489H62.0607Z" fill="#37AB87"/>
<path d="M50.9855 80.9166C50.9855 78.938 49.3757 77.3281 47.397 77.3281C45.4184 77.3281 43.8086 78.938 43.8086 80.9166C43.8086 82.8956 45.4184 84.5054 47.397 84.5054C49.3757 84.5054 50.9855 82.8956 50.9855 80.9166ZM45.7329 80.9166C45.7329 79.9993 46.479 79.2528 47.3967 79.2528C48.3144 79.2528 49.0604 79.9993 49.0604 80.9166C49.0604 81.8343 48.3144 82.5807 47.3967 82.5807C46.479 82.5807 45.7329 81.8343 45.7329 80.9166Z" fill="#37AB87"/>
<path d="M62.0607 81.8778C62.5923 81.8778 63.023 81.4471 63.023 80.9155C63.023 80.3839 62.5923 79.9531 62.0607 79.9531H53.6342C53.1026 79.9531 52.6719 80.3839 52.6719 80.9155C52.6719 81.4471 53.1026 81.8778 53.6342 81.8778H62.0607Z" fill="#37AB87"/>
<path d="M74.8062 71.2881C74.8062 69.3091 73.1964 67.6992 71.2177 67.6992C69.2391 67.6992 67.6289 69.3091 67.6289 71.2881C67.6289 73.2671 69.2391 74.8769 71.2177 74.8769C73.1964 74.8769 74.8062 73.2671 74.8062 71.2881ZM69.5532 71.2881C69.5532 70.3703 70.2997 69.6239 71.2174 69.6239C72.1351 69.6239 72.8811 70.3703 72.8811 71.2881C72.8811 72.2058 72.1351 72.9522 71.2174 72.9522C70.2997 72.9522 69.5532 72.2058 69.5532 71.2881Z" fill="#37AB87"/>
<path d="M85.881 72.2489C86.4126 72.2489 86.8433 71.8182 86.8433 71.2866C86.8433 70.755 86.4126 70.3242 85.881 70.3242H77.4545C76.9229 70.3242 76.4922 70.755 76.4922 71.2866C76.4922 71.8182 76.9229 72.2489 77.4545 72.2489H85.881Z" fill="#37AB87"/>
<path d="M74.8062 80.9166C74.8062 78.938 73.1964 77.3281 71.2177 77.3281C69.2391 77.3281 67.6289 78.938 67.6289 80.9166C67.6289 82.8956 69.2391 84.5054 71.2177 84.5054C73.1964 84.5054 74.8062 82.8956 74.8062 80.9166ZM69.5532 80.9166C69.5532 79.9993 70.2997 79.2528 71.2174 79.2528C72.1351 79.2528 72.8811 79.9993 72.8811 80.9166C72.8811 81.8343 72.1351 82.5807 71.2174 82.5807C70.2997 82.5807 69.5532 81.8343 69.5532 80.9166Z" fill="#37AB87"/>
<path d="M85.881 81.8778C86.4126 81.8778 86.8433 81.4471 86.8433 80.9155C86.8433 80.3839 86.4126 79.9531 85.881 79.9531H77.4545C76.9229 79.9531 76.4922 80.3839 76.4922 80.9155C76.4922 81.4471 76.9229 81.8778 77.4545 81.8778H85.881Z" fill="#37AB87"/>
<path d="M92.0347 41.7308C94.1014 41.7308 95.7829 40.0493 95.7829 37.9826C95.7829 35.9158 94.1014 34.2344 92.0347 34.2344H37.963C35.8963 34.2344 34.2148 35.9158 34.2148 37.9826C34.2148 40.0493 35.8963 41.7308 37.963 41.7308H92.0347ZM36.1392 37.9822C36.1392 36.9767 36.9572 36.1587 37.9627 36.1587H92.0347C93.0401 36.1587 93.8582 36.9767 93.8582 37.9822C93.8582 38.9877 93.0401 39.8057 92.0347 39.8057H37.963C36.9572 39.8061 36.1392 38.9881 36.1392 37.9822Z" fill="#064C40"/>
<path d="M92.0347 92.7073C94.1014 92.7073 95.7829 91.0259 95.7829 88.9591C95.7829 86.8924 94.1014 85.2109 92.0347 85.2109H37.963C35.8963 85.2109 34.2148 86.8924 34.2148 88.9591C34.2148 91.0259 35.8963 92.7073 37.963 92.7073H92.0347ZM36.1392 88.9591C36.1392 87.9537 36.9572 87.1357 37.9627 87.1357H92.0347C93.0401 87.1357 93.8582 87.9537 93.8582 88.9591C93.8582 89.9646 93.0401 90.7826 92.0347 90.7826H37.963C36.9572 90.7826 36.1392 89.9646 36.1392 88.9591Z" fill="#064C40"/>
<path d="M92.2138 86.1705V40.767C92.2138 40.2354 91.783 39.8047 91.2514 39.8047C90.7198 39.8047 90.2891 40.2354 90.2891 40.767V86.1709C90.2891 86.7025 90.7198 87.1332 91.2514 87.1332C91.783 87.1332 92.2138 86.7021 92.2138 86.1705Z" fill="#064C40"/>
<path d="M39.7099 86.1705V40.767C39.7099 40.2354 39.2791 39.8047 38.7475 39.8047C38.2159 39.8047 37.7852 40.2354 37.7852 40.767V86.1709C37.7852 86.7025 38.2159 87.1332 38.7475 87.1332C39.2791 87.1332 39.7099 86.7021 39.7099 86.1705Z" fill="#064C40"/>
<path d="M65.9599 96.8418V91.7436C65.9599 91.212 65.5291 90.7812 64.9975 90.7812C64.4659 90.7812 64.0352 91.212 64.0352 91.7436V96.8418C64.0352 97.3734 64.4659 97.8042 64.9975 97.8042C65.5291 97.8042 65.9599 97.373 65.9599 96.8418Z" fill="#064C40"/>
<path d="M68.9028 99.7815C68.9028 97.6296 67.1521 95.8789 65.0002 95.8789C62.8484 95.8789 61.0977 97.6296 61.0977 99.7815C61.0977 101.933 62.8484 103.684 65.0002 103.684C67.1521 103.684 68.9028 101.933 68.9028 99.7815ZM63.0224 99.7815C63.0224 98.6909 63.9097 97.8036 65.0002 97.8036C66.0908 97.8036 66.9781 98.6909 66.9781 99.7815C66.9781 100.872 66.0908 101.759 65.0002 101.759C63.9097 101.759 63.0224 100.872 63.0224 99.7815Z" fill="#064C40"/>
<path d="M39.7102 41.1523C39.3915 41.1523 39.1328 41.411 39.1328 41.7298V85.2089C39.1328 85.5276 39.3915 85.7863 39.7102 85.7863H90.2904C90.6091 85.7863 90.8678 85.5276 90.8678 85.2089V41.7298C90.8678 41.411 90.6091 41.1523 90.2904 41.1523H39.7102ZM90.2904 85.2085H39.7102V41.7298H90.2904V85.2085Z" fill="#064C40"/>
<path d="M35.5625 88.9595C35.5625 90.2833 36.6396 91.3604 37.9634 91.3604H92.0354C93.3592 91.3604 94.4363 90.2833 94.4363 88.9595C94.4363 87.6357 93.3592 86.5586 92.0354 86.5586H37.9638C36.6396 86.5582 35.5625 87.6353 35.5625 88.9595ZM93.8593 88.9595C93.8593 89.965 93.0413 90.783 92.0358 90.783H37.9638C36.9583 90.783 36.1403 89.965 36.1403 88.9595C36.1403 87.954 36.9583 87.136 37.9638 87.136H92.0358C93.0413 87.1356 93.8593 87.9536 93.8593 88.9595Z" fill="#064C40"/>
<path d="M62.4453 99.7818C62.4453 101.191 63.5917 102.337 65.0006 102.337C66.4095 102.337 67.5558 101.191 67.5558 99.7818C67.5558 98.3729 66.4095 97.2266 65.0006 97.2266C63.5917 97.2266 62.4453 98.3729 62.4453 99.7818ZM66.9784 99.7818C66.9784 100.872 66.0911 101.76 65.0006 101.76C63.91 101.76 63.0227 100.872 63.0227 99.7818C63.0227 98.6913 63.91 97.804 65.0006 97.804C66.0911 97.804 66.9784 98.6913 66.9784 99.7818Z" fill="#064C40"/>
<path d="M34.2148 88.9585C34.2148 91.0253 35.8963 92.7067 37.963 92.7067H64.0369V96.0049C62.3497 96.4353 61.0967 97.9631 61.0967 99.7824C61.0967 101.934 62.8474 103.685 64.9992 103.685C67.1511 103.685 68.9018 101.934 68.9018 99.7824C68.9018 97.9631 67.6488 96.4349 65.9616 96.0049V92.7067H92.0351C94.1018 92.7067 95.7833 91.0253 95.7833 88.9585C95.7833 86.9522 94.1973 85.3135 92.2141 85.2191V41.7219C94.1977 41.6276 95.7833 39.9889 95.7833 37.9826C95.7833 35.9158 94.1018 34.2344 92.0351 34.2344H37.9634C35.8967 34.2344 34.2152 35.9158 34.2152 37.9826C34.2152 39.9889 35.8012 41.6276 37.7844 41.7219V85.2191C35.8008 85.3135 34.2148 86.9522 34.2148 88.9585ZM37.8118 41.1453C36.1188 41.0648 34.7923 39.6756 34.7923 37.983C34.7923 36.2345 36.2146 34.8122 37.963 34.8122H92.0351C93.7835 34.8122 95.2058 36.2345 95.2058 37.983C95.2058 39.676 93.8797 41.0648 92.1863 41.1453C91.8784 41.1599 91.6363 41.414 91.6363 41.7219V85.2191C91.6363 85.5275 91.8784 85.7812 92.1863 85.7958C93.8793 85.8762 95.2058 87.2655 95.2058 88.9581C95.2058 90.7065 93.7835 92.1289 92.0351 92.1289H65.9616C65.6429 92.1289 65.3842 92.3876 65.3842 92.7063V96.0045C65.3842 96.2686 65.5632 96.4988 65.8188 96.5638C67.2939 96.9399 68.324 98.2634 68.324 99.782C68.324 101.615 66.8324 103.107 64.9989 103.107C63.1654 103.107 61.6737 101.615 61.6737 99.782C61.6737 98.2634 62.7038 96.9399 64.1789 96.5638C64.4345 96.4984 64.6135 96.2682 64.6135 96.0045V92.7063C64.6135 92.3876 64.3548 92.1289 64.0361 92.1289H37.9634C36.215 92.1289 34.7926 90.7065 34.7926 88.9581C34.7926 87.2651 36.1188 85.8762 37.8122 85.7958C38.1201 85.7812 38.3622 85.5271 38.3622 85.2191V41.7219C38.3619 41.4136 38.1197 41.1599 37.8118 41.1453Z" fill="#064C40"/>
<path d="M94.4363 37.9829C94.4363 36.6591 93.3592 35.582 92.0354 35.582H37.9634C36.6396 35.582 35.5625 36.6591 35.5625 37.9829C35.5625 39.3068 36.6396 40.3838 37.9634 40.3838H92.0354C93.3592 40.3842 94.4363 39.3071 94.4363 37.9829ZM36.1395 37.9829C36.1395 36.9775 36.9575 36.1594 37.963 36.1594H92.035C93.0405 36.1594 93.8585 36.9775 93.8585 37.9829C93.8585 38.9884 93.0405 39.8064 92.035 39.8064H37.9634C36.9575 39.8068 36.1395 38.9888 36.1395 37.9829Z" fill="#064C40"/>
<path d="M74.8052 54.4764C74.8052 49.0703 70.4068 44.6719 65.0002 44.6719C59.5937 44.6719 55.1953 49.0703 55.1953 54.4764C55.1953 59.8826 59.5937 64.2813 65.0002 64.2813C70.4068 64.2813 74.8052 59.8826 74.8052 54.4764ZM57.12 54.4764C57.12 50.1315 60.6554 46.5966 65.0002 46.5966C69.3451 46.5966 72.8804 50.1315 72.8804 54.4764C72.8804 58.8217 69.3451 62.3566 65.0002 62.3566C60.6554 62.3566 57.12 58.8217 57.12 54.4764Z" fill="#48766F"/>
<path d="M65.9638 62.8516V55.0557L73.006 51.3245C73.476 51.0758 73.655 50.4934 73.4059 50.0237C73.1572 49.5541 72.5737 49.3751 72.1052 49.6238L64.551 53.6261C64.2362 53.7927 64.0391 54.1199 64.0391 54.4764V62.8516C64.0391 63.3833 64.4698 63.814 65.0014 63.814C65.533 63.814 65.9638 63.3833 65.9638 62.8516Z" fill="#48766F"/>
<path d="M65.9638 54.4764V45.6342C65.9638 45.1026 65.533 44.6719 65.0014 44.6719C64.4698 44.6719 64.0391 45.1026 64.0391 45.6342V54.4764C64.0391 55.008 64.4698 55.4388 65.0014 55.4388C65.533 55.4388 65.9638 55.008 65.9638 54.4764Z" fill="#48766F"/>
<path d="M50.9816 69.749C50.9816 67.77 49.3718 66.1602 47.3931 66.1602C45.4145 66.1602 43.8047 67.77 43.8047 69.749C43.8047 71.728 45.4145 73.3378 47.3931 73.3378C49.3718 73.3378 50.9816 71.728 50.9816 69.749ZM45.729 69.749C45.729 68.8313 46.475 68.0849 47.3928 68.0849C48.3105 68.0849 49.0565 68.8313 49.0565 69.749C49.0565 70.6667 48.3105 71.4131 47.3928 71.4131C46.475 71.4131 45.729 70.6667 45.729 69.749Z" fill="#2F796C"/>
<path d="M62.0568 70.7099C62.5884 70.7099 63.0191 70.2791 63.0191 69.7475C63.0191 69.2159 62.5884 68.7852 62.0568 68.7852H53.6303C53.0987 68.7852 52.668 69.2159 52.668 69.7475C52.668 70.2791 53.0987 70.7099 53.6303 70.7099H62.0568Z" fill="#48766F"/>
<path d="M50.9816 79.3775C50.9816 77.3989 49.3718 75.7891 47.3931 75.7891C45.4145 75.7891 43.8047 77.3989 43.8047 79.3775C43.8047 81.3565 45.4145 82.9664 47.3931 82.9664C49.3718 82.9664 50.9816 81.3565 50.9816 79.3775ZM45.729 79.3775C45.729 78.4602 46.475 77.7138 47.3928 77.7138C48.3105 77.7138 49.0565 78.4602 49.0565 79.3775C49.0565 80.2952 48.3105 81.0416 47.3928 81.0416C46.475 81.0416 45.729 80.2952 45.729 79.3775Z" fill="#2F796C"/>
<path d="M62.0568 80.3427C62.5884 80.3427 63.0191 79.9119 63.0191 79.3803C63.0191 78.8487 62.5884 78.418 62.0568 78.418H53.6303C53.0987 78.418 52.668 78.8487 52.668 79.3803C52.668 79.9119 53.0987 80.3427 53.6303 80.3427H62.0568Z" fill="#48766F"/>
<path d="M74.8062 69.749C74.8062 67.77 73.1964 66.1602 71.2177 66.1602C69.2391 66.1602 67.6289 67.77 67.6289 69.749C67.6289 71.728 69.2391 73.3378 71.2177 73.3378C73.1964 73.3378 74.8062 71.728 74.8062 69.749ZM69.5532 69.749C69.5532 68.8313 70.2997 68.0849 71.2174 68.0849C72.1351 68.0849 72.8811 68.8313 72.8811 69.749C72.8811 70.6667 72.1351 71.4131 71.2174 71.4131C70.2997 71.4131 69.5532 70.6667 69.5532 69.749Z" fill="#2F796C"/>
<path d="M85.881 70.7099C86.4126 70.7099 86.8433 70.2791 86.8433 69.7475C86.8433 69.2159 86.4126 68.7852 85.881 68.7852H77.4545C76.9229 68.7852 76.4922 69.2159 76.4922 69.7475C76.4922 70.2791 76.9229 70.7099 77.4545 70.7099H85.881Z" fill="#48766F"/>
<path d="M74.8062 79.3775C74.8062 77.3989 73.1964 75.7891 71.2177 75.7891C69.2391 75.7891 67.6289 77.3989 67.6289 79.3775C67.6289 81.3565 69.2391 82.9664 71.2177 82.9664C73.1964 82.9664 74.8062 81.3565 74.8062 79.3775ZM69.5532 79.3775C69.5532 78.4602 70.2997 77.7138 71.2174 77.7138C72.1351 77.7138 72.8811 78.4602 72.8811 79.3775C72.8811 80.2952 72.1351 81.0416 71.2174 81.0416C70.2997 81.0416 69.5532 80.2952 69.5532 79.3775Z" fill="#2F796C"/>
<path d="M85.881 80.3427C86.4126 80.3427 86.8433 79.9119 86.8433 79.3803C86.8433 78.8487 86.4126 78.418 85.881 78.418H77.4545C76.9229 78.418 76.4922 78.8487 76.4922 79.3803C76.4922 79.9119 76.9229 80.3427 77.4545 80.3427H85.881Z" fill="#48766F"/>
<path d="M65.6666 53.3745C65.7578 53.4295 65.861 53.4572 65.9645 53.4572C66.0573 53.4572 66.1501 53.4349 66.2348 53.3899L71.726 50.4805C71.8723 50.4031 71.9781 50.2664 72.017 50.1055C72.0559 49.9446 72.0236 49.7749 71.9285 49.639C70.5515 47.6742 68.4035 46.3808 66.0346 46.0902C66.0111 46.0875 65.9876 46.0859 65.9641 46.0859C65.824 46.0859 65.6877 46.1371 65.5815 46.2311C65.4575 46.3408 65.3867 46.4982 65.3867 46.6634V52.8798C65.3867 53.0823 65.493 53.2702 65.6666 53.3745ZM65.9641 46.6637C68.2322 46.9417 70.2035 48.1843 71.4554 49.9708L65.9641 52.8798V46.6637Z" fill="#2F796C"/>
<path d="M64.0382 46.0859C64.0147 46.0859 63.9913 46.0875 63.9678 46.0902C59.7349 46.6091 56.543 50.2149 56.543 54.4781C56.543 58.7414 59.7349 62.3475 63.9678 62.8664C63.9913 62.8691 64.0147 62.8707 64.0382 62.8707C64.1783 62.8707 64.3146 62.8195 64.4209 62.7256C64.5448 62.6158 64.6156 62.4584 64.6156 62.2933V46.6634C64.6156 46.4978 64.5448 46.3404 64.4209 46.2311C64.3146 46.1367 64.1783 46.0859 64.0382 46.0859ZM64.0382 62.2933C60.1464 61.8163 57.1204 58.4969 57.1204 54.4781C57.1204 50.4597 60.1464 47.1399 64.0382 46.663V62.2933Z" fill="#2F796C"/>
<path d="M74.8052 54.4764C74.8052 49.0703 70.4068 44.6719 65.0002 44.6719C59.5937 44.6719 55.1953 49.0703 55.1953 54.4764C55.1953 59.8826 59.5937 64.2813 65.0002 64.2813C70.4068 64.2813 74.8052 59.8826 74.8052 54.4764ZM55.7727 54.4764C55.7727 49.3886 59.912 45.2493 65.0002 45.2493C70.0884 45.2493 74.2277 49.3886 74.2277 54.4764C74.2277 59.5646 70.0884 63.7039 65.0002 63.7039C59.9124 63.7039 55.7727 59.5646 55.7727 54.4764Z" fill="#2F796C"/>
<path d="M65.9641 62.8672C65.9876 62.8672 66.0111 62.8657 66.0346 62.863C70.2674 62.3441 73.4594 58.7379 73.4594 54.4747C73.4594 53.4522 73.2696 52.4379 72.8951 51.4609C72.8358 51.3066 72.7134 51.1849 72.5586 51.1268C72.4932 51.1022 72.4243 51.0898 72.3558 51.0898C72.2626 51.0898 72.1694 51.1126 72.0855 51.1572L65.6939 54.544C65.5049 54.644 65.3867 54.8404 65.3867 55.054V62.2898C65.3867 62.4553 65.4575 62.6128 65.5815 62.7221C65.6877 62.816 65.824 62.8672 65.9641 62.8672ZM65.9641 55.054L72.3558 51.6673C72.6903 52.5407 72.8816 53.4846 72.8816 54.4747C72.8816 58.4935 69.8555 61.8129 65.9637 62.2898V55.054H65.9641Z" fill="#2F796C"/>
<path d="M62.0607 70.7099C62.5923 70.7099 63.023 70.2791 63.023 69.7475C63.023 69.2159 62.5923 68.7852 62.0607 68.7852H53.6342C53.1026 68.7852 52.6719 69.2159 52.6719 69.7475C52.6719 70.2791 53.1026 70.7099 53.6342 70.7099H62.0607ZM53.2497 69.7475C53.2497 69.5354 53.4225 69.3626 53.6346 69.3626H62.0611C62.2732 69.3626 62.446 69.5354 62.446 69.7475C62.446 69.9596 62.2732 70.1325 62.0611 70.1325H53.6346C53.4221 70.1325 53.2497 69.9596 53.2497 69.7475Z" fill="#2F796C"/>
<path d="M62.0607 80.3427C62.5923 80.3427 63.023 79.9119 63.023 79.3803C63.023 78.8487 62.5923 78.418 62.0607 78.418H53.6342C53.1026 78.418 52.6719 78.8487 52.6719 79.3803C52.6719 79.9119 53.1026 80.3427 53.6342 80.3427H62.0607ZM53.2497 79.3803C53.2497 79.1682 53.4225 78.9954 53.6346 78.9954H62.0611C62.2732 78.9954 62.446 79.1682 62.446 79.3803C62.446 79.5924 62.2732 79.7653 62.0611 79.7653H53.6346C53.4221 79.7653 53.2497 79.5924 53.2497 79.3803Z" fill="#2F796C"/>
<path d="M85.8849 70.7099C86.4165 70.7099 86.8473 70.2791 86.8473 69.7475C86.8473 69.2159 86.4165 68.7852 85.8849 68.7852H77.4585C76.9268 68.7852 76.4961 69.2159 76.4961 69.7475C76.4961 70.2791 76.9268 70.7099 77.4585 70.7099H85.8849ZM77.0735 69.7475C77.0735 69.5354 77.2464 69.3626 77.4585 69.3626H85.8849C86.097 69.3626 86.2698 69.5354 86.2698 69.7475C86.2698 69.9596 86.097 70.1325 85.8849 70.1325H77.4585C77.2464 70.1325 77.0735 69.9596 77.0735 69.7475Z" fill="#2F796C"/>
<path d="M85.8849 80.3427C86.4165 80.3427 86.8473 79.9119 86.8473 79.3803C86.8473 78.8487 86.4165 78.418 85.8849 78.418H77.4585C76.9268 78.418 76.4961 78.8487 76.4961 79.3803C76.4961 79.9119 76.9268 80.3427 77.4585 80.3427H85.8849ZM77.0735 79.3803C77.0735 79.1682 77.2464 78.9954 77.4585 78.9954H85.8849C86.097 78.9954 86.2698 79.1682 86.2698 79.3803C86.2698 79.5924 86.097 79.7653 85.8849 79.7653H77.4585C77.2464 79.7653 77.0735 79.5924 77.0735 79.3803Z" fill="#2F796C"/>
<path d="M49.6346 69.7493C49.6346 68.5133 48.6292 67.5078 47.3935 67.5078C46.1578 67.5078 45.1523 68.5133 45.1523 69.7493C45.1523 70.9854 46.1578 71.9909 47.3935 71.9909C48.6292 71.9909 49.6346 70.9854 49.6346 69.7493ZM45.7294 69.7493C45.7294 68.8316 46.4754 68.0852 47.3931 68.0852C48.3108 68.0852 49.0568 68.8316 49.0568 69.7493C49.0568 70.6671 48.3108 71.4135 47.3931 71.4135C46.4754 71.4135 45.7294 70.6671 45.7294 69.7493Z" fill="#2F796C"/>
<path d="M50.9816 69.749C50.9816 67.77 49.3718 66.1602 47.3931 66.1602C45.4145 66.1602 43.8047 67.77 43.8047 69.749C43.8047 71.728 45.4145 73.3378 47.3931 73.3378C49.3718 73.3378 50.9816 71.728 50.9816 69.749ZM44.3817 69.749C44.3817 68.0887 45.7325 66.7376 47.3928 66.7376C49.053 66.7376 50.4038 68.0883 50.4038 69.749C50.4038 71.4096 49.053 72.7604 47.3928 72.7604C45.7325 72.7604 44.3817 71.4093 44.3817 69.749Z" fill="#2F796C"/>
<path d="M50.9816 79.3775C50.9816 77.3989 49.3718 75.7891 47.3931 75.7891C45.4145 75.7891 43.8047 77.3989 43.8047 79.3775C43.8047 81.3565 45.4145 82.9664 47.3931 82.9664C49.3718 82.9664 50.9816 81.3565 50.9816 79.3775ZM44.3817 79.3775C44.3817 77.7173 45.7325 76.3665 47.3928 76.3665C49.053 76.3665 50.4038 77.7173 50.4038 79.3775C50.4038 81.0378 49.053 82.3889 47.3928 82.3889C45.7325 82.3889 44.3817 81.0378 44.3817 79.3775Z" fill="#2F796C"/>
<path d="M49.6346 79.3779C49.6346 78.1422 48.6292 77.1367 47.3935 77.1367C46.1578 77.1367 45.1523 78.1422 45.1523 79.3779C45.1523 80.6139 46.1578 81.6194 47.3935 81.6194C48.6292 81.6194 49.6346 80.6139 49.6346 79.3779ZM45.7294 79.3779C45.7294 78.4605 46.4754 77.7141 47.3931 77.7141C48.3108 77.7141 49.0568 78.4605 49.0568 79.3779C49.0568 80.2956 48.3108 81.042 47.3931 81.042C46.4754 81.042 45.7294 80.2956 45.7294 79.3779Z" fill="#2F796C"/>
<path d="M74.8062 69.749C74.8062 67.77 73.1964 66.1602 71.2177 66.1602C69.2391 66.1602 67.6289 67.77 67.6289 69.749C67.6289 71.728 69.2391 73.3378 71.2177 73.3378C73.1964 73.3378 74.8062 71.728 74.8062 69.749ZM68.2059 69.749C68.2059 68.0887 69.5571 66.7376 71.2174 66.7376C72.8776 66.7376 74.2284 68.0883 74.2284 69.749C74.2284 71.4096 72.8776 72.7604 71.2174 72.7604C69.5571 72.7604 68.2059 71.4093 68.2059 69.749Z" fill="#2F796C"/>
<path d="M73.4592 69.7493C73.4592 68.5133 72.4538 67.5078 71.2181 67.5078C69.982 67.5078 68.9766 68.5133 68.9766 69.7493C68.9766 70.9854 69.982 71.9909 71.2181 71.9909C72.4538 71.9909 73.4592 70.9854 73.4592 69.7493ZM69.5536 69.7493C69.5536 68.8316 70.3 68.0852 71.2177 68.0852C72.1354 68.0852 72.8814 68.8316 72.8814 69.7493C72.8814 70.6671 72.1354 71.4135 71.2177 71.4135C70.3 71.4135 69.5536 70.6671 69.5536 69.7493Z" fill="#2F796C"/>
<path d="M74.8062 79.3775C74.8062 77.3989 73.1964 75.7891 71.2177 75.7891C69.2391 75.7891 67.6289 77.3989 67.6289 79.3775C67.6289 81.3565 69.2391 82.9664 71.2177 82.9664C73.1964 82.9664 74.8062 81.3565 74.8062 79.3775ZM68.2059 79.3775C68.2059 77.7173 69.5571 76.3665 71.2174 76.3665C72.8776 76.3665 74.2284 77.7173 74.2284 79.3775C74.2284 81.0378 72.8776 82.3889 71.2174 82.3889C69.5571 82.3889 68.2059 81.0378 68.2059 79.3775Z" fill="#2F796C"/>
<path d="M73.4592 79.3779C73.4592 78.1422 72.4538 77.1367 71.2181 77.1367C69.982 77.1367 68.9766 78.1422 68.9766 79.3779C68.9766 80.6139 69.982 81.6194 71.2181 81.6194C72.4538 81.6194 73.4592 80.6139 73.4592 79.3779ZM69.5536 79.3779C69.5536 78.4605 70.3 77.7141 71.2177 77.7141C72.1354 77.7141 72.8814 78.4605 72.8814 79.3779C72.8814 80.2956 72.1354 81.042 71.2177 81.042C70.3 81.042 69.5536 80.2956 69.5536 79.3779Z" fill="#2F796C"/>
</svg>
