<svg width="65" height="65" viewBox="0 0 65 65" fill="none" xmlns="http://www.w3.org/2000/svg">
<path d="M0.988281 8.30859C0.988281 3.89032 4.57 0.308594 8.98828 0.308594H56.9883C61.4066 0.308594 64.9883 3.89032 64.9883 8.30859V56.3086C64.9883 60.7269 61.4066 64.3086 56.9883 64.3086H8.98828C4.57 64.3086 0.988281 60.7269 0.988281 56.3086V8.30859Z" fill="#10B981"/>
<g clip-path="url(#clip0_1225_1962)">
<path d="M36.9766 21.6289L44.9766 24.2956V30.9622H40.9766V41.6289C40.9766 41.9825 40.8361 42.3217 40.586 42.5717C40.336 42.8218 39.9969 42.9622 39.6432 42.9622H26.3099C25.9563 42.9622 25.6171 42.8218 25.3671 42.5717C25.117 42.3217 24.9766 41.9825 24.9766 41.6289V30.9622H20.9766V24.2956L28.9766 21.6289C28.9766 22.6898 29.398 23.7072 30.1481 24.4573C30.8983 25.2075 31.9157 25.6289 32.9766 25.6289C34.0374 25.6289 35.0548 25.2075 35.805 24.4573C36.5551 23.7072 36.9766 22.6898 36.9766 21.6289Z" stroke="white" stroke-width="1.5" stroke-linecap="round" stroke-linejoin="round"/>
<path d="M30.9766 30.9609H34.3099L32.3099 37.6276" stroke="white" stroke-width="1.5" stroke-linecap="round" stroke-linejoin="round"/>
</g>
<defs>
<clipPath id="clip0_1225_1962">
<rect width="32" height="32" fill="white" transform="translate(16.9766 16.2969)"/>
</clipPath>
</defs>
</svg>
