<svg width="50" height="50" viewBox="0 0 50 50" fill="none" xmlns="http://www.w3.org/2000/svg">
<g clip-path="url(#clip0_1112_1425)">
<rect width="49.4516" height="49.4517" fill="white"/>
<path d="M9.54522 6.4637L10.7342 16.6142L1.32031 20.7059C2.29041 15.0109 5.28851 10.0071 9.54522 6.4637ZM32.9533 2.4415L24.7302 8.50609L16.4998 2.4415C21.78 0.490473 27.661 0.48603 32.9533 2.4415ZM10.9273 32.7338L9.54522 42.9809C5.28851 39.4374 2.29041 34.4336 1.32041 28.7387L10.9273 32.7338ZM24.7302 40.6488L32.9533 47.0031C27.673 48.9541 21.7921 48.9585 16.4997 47.0031L24.7302 40.6488ZM38.4367 32.6373L48.1328 28.7386C47.1627 34.4336 44.1647 39.4373 39.908 42.9808L38.4367 32.6373ZM48.1327 20.7059L38.2437 16.8073L39.9079 6.4637C44.1646 10.0071 47.1627 15.0109 48.1327 20.7059Z" fill="#CAECE6" fill-opacity="0.29"/>
<path d="M32.6459 20.2376V29.211L24.7272 33.6986L16.8086 29.211V20.2376L24.7272 15.75L32.6459 20.2376Z" fill="#CAECE6" fill-opacity="0.29"/>
<path d="M24.7259 0.015625C11.0041 0.015625 0.015625 11.1414 0.015625 24.7259C0.015625 38.3599 11.0462 49.4362 24.7259 49.4362C38.4929 49.4362 49.4361 38.2634 49.4361 24.7259C49.4361 11.1016 38.4167 0.015625 24.7259 0.015625ZM40.7678 8.56893C43.6042 11.3854 45.705 14.9411 46.7545 18.9195L40.4096 15.6709L40.7678 8.56893ZM38.918 6.92109L38.4764 15.6771L31.9858 19.4924L25.6911 15.9255V8.29057L33.0609 3.52525C35.188 4.36438 37.1586 5.51577 38.918 6.92109ZM31.0295 21.1693V28.2825L24.7259 31.8545L18.4222 28.2825V21.1693L24.7259 17.5973L31.0295 21.1693ZM30.7112 2.74561L24.7259 6.61578L18.7406 2.74561C22.5424 1.70925 26.6918 1.64995 30.7112 2.74561ZM16.3908 3.52515L23.7606 8.29057V15.9255L17.4659 19.4924L10.9752 15.6771L10.5337 6.92109C12.2931 5.51577 14.2638 4.36438 16.3908 3.52515ZM8.68385 8.56893L9.04199 15.6709L2.69702 18.9195C3.74661 14.9411 5.84744 11.3854 8.68385 8.56893ZM8.68385 40.8829C5.84744 38.0665 3.74661 34.5107 2.69712 30.5323L9.04209 33.781L8.68385 40.8829ZM2.19748 28.1077C2.03252 27.004 1.94617 25.8749 1.94617 24.7259C1.94617 23.5769 2.03252 22.4479 2.19748 21.3442L10.0055 17.3463L16.4919 21.1591V28.2927L10.0055 32.1055L2.19748 28.1077ZM10.5337 42.5307L10.9753 33.7747L17.466 29.9594L23.7607 33.5264V41.1613L16.3909 45.9267C14.2638 45.0875 12.2931 43.9361 10.5337 42.5307ZM24.7259 47.5057C22.6552 47.5057 20.6487 47.2263 18.7406 46.7061L24.7259 42.8361L30.7112 46.7062C28.803 47.2263 26.7966 47.5057 24.7259 47.5057ZM33.0609 45.9267L25.6911 41.1614V33.5265L31.9858 29.9595L38.4764 33.7748L38.918 42.5308C37.1586 43.9361 35.188 45.0875 33.0609 45.9267ZM40.7678 40.8829L40.4097 33.781L46.7546 30.5323C45.7051 34.5108 43.6043 38.0665 40.7678 40.8829ZM39.4463 32.1055L32.96 28.2927V21.1591L39.4463 17.3463L47.2544 21.3442C47.4193 22.4479 47.5057 23.5769 47.5057 24.7259C47.5057 25.8749 47.4193 27.004 47.2544 28.1077L39.4463 32.1055Z" fill="black"/>
</g>
<defs>
<clipPath id="clip0_1112_1425">
<rect width="49.4516" height="49.4517" fill="white"/>
</clipPath>
</defs>
</svg>
