<svg width="50" height="50" viewBox="0 0 50 50" fill="none" xmlns="http://www.w3.org/2000/svg">
<rect width="49.4516" height="49.4517" fill="white"/>
<path d="M18.9345 44.2267C15.1483 48.0115 4.10501 48.7387 2.40975 47.0449C0.717415 45.3496 1.44166 34.3034 5.22934 30.5186C9.01411 26.7339 14.2795 27.6041 18.0642 31.3904C21.849 35.1751 22.7207 40.4405 18.936 44.2253L18.9345 44.2267Z" fill="#828282"/>
<path d="M18.518 38.5414C16.4168 40.644 10.287 41.0456 9.34668 40.1052C8.40633 39.1649 8.80934 33.0336 10.9091 30.9324C13.0117 28.8312 15.9335 29.316 18.0347 31.4172C20.1359 33.5169 20.6192 36.4387 18.518 38.5414Z" fill="white" fill-opacity="0.43"/>
<path d="M21.4554 7.66919L26.5426 7.98459L15.346 23.8216L5.53368 20.6969C3.00905 19.8938 2.78564 17.1413 4.93939 15.7396L15.2905 9.00817C17.4458 7.60641 18.8125 7.50565 21.4554 7.66919ZM41.7868 28.0006L41.47 22.9119L25.6344 34.1086L28.7592 43.9224C29.5623 46.4456 32.3147 46.6704 33.715 44.5152L40.4464 34.1655C41.8481 32.0103 41.9504 30.6421 41.7868 28.0006Z" fill="#828282"/>
<path d="M40.6252 27.2521C32.2715 35.6072 21.3743 38.2559 16.2856 33.1672C11.1984 28.08 13.8471 17.1827 22.2007 8.82762C30.5558 0.473965 44.2041 0.574717 46.5418 2.91391C48.8781 5.25019 48.9803 18.8984 40.6252 27.2521Z" fill="black"/>
<path d="M23.4492 26.0076C24.8392 27.3977 24.9531 29.7588 23.4492 31.0247L16.3848 36.5442C15.6329 37.1326 14.2968 37.9401 12.9067 36.55C11.5166 35.1599 12.3314 33.8137 12.9111 33.0719L18.4305 26.0076C19.698 24.5036 22.0591 24.6175 23.4492 26.0076Z" fill="#828282"/>
<path d="M34.6179 14.8324C35.7762 15.9907 36.4269 17.5617 36.4269 19.1998C36.4269 20.8379 35.7762 22.4089 34.6179 23.5672C33.4596 24.7254 31.8886 25.3761 30.2506 25.3761C28.6125 25.3761 27.0415 24.7254 25.8832 23.5672C24.7249 22.4089 24.0742 20.8379 24.0742 19.1998C24.0742 17.5617 24.7249 15.9907 25.8832 14.8324C27.0415 13.6741 28.6125 13.0234 30.2506 13.0234C31.8886 13.0234 33.4596 13.6741 34.6179 14.8324Z" fill="white" fill-opacity="0.43"/>
<path d="M46.5394 2.91155C44.9931 1.36377 38.4939 0.800142 31.8516 3.01376L46.4387 17.6009C48.6523 10.9586 48.0872 4.45934 46.5409 2.91155H46.5394Z" fill="#828282"/>
</svg>
