<svg width="41" height="41" viewBox="0 0 41 41" fill="none" xmlns="http://www.w3.org/2000/svg">
<path d="M0.976562 8.39844C0.976562 3.98016 4.55828 0.398438 8.97656 0.398438H32.9766C37.3948 0.398438 40.9766 3.98016 40.9766 8.39844V32.3984C40.9766 36.8167 37.3948 40.3984 32.9766 40.3984H8.97656C4.55828 40.3984 0.976562 36.8167 0.976562 32.3984V8.39844Z" fill="#0F6E5D"/>
<g clip-path="url(#clip0_1225_2121)">
<g clip-path="url(#clip1_1225_2121)">
<path d="M29.3112 13.7406C28.4779 14.1489 27.6612 14.3148 26.8112 14.5656C25.877 13.5114 24.492 13.4531 23.1612 13.9514C21.8304 14.4498 20.9587 15.6681 20.9779 17.0656V17.8989C18.2737 17.9681 15.8654 16.7364 14.3112 14.5656C14.3112 14.5656 10.8262 20.7598 17.6445 23.7323C16.0845 24.7714 14.5287 25.4723 12.6445 25.3989C15.4012 26.9014 18.4054 27.4181 21.0062 26.6631C23.9895 25.7964 26.4412 23.5606 27.382 20.2114C27.6631 19.1929 27.8025 18.1405 27.7962 17.0839C27.7962 16.8764 29.0545 14.7739 29.3112 13.7398V13.7406Z" stroke="#10B981" stroke-width="1.5" stroke-linecap="round" stroke-linejoin="round"/>
</g>
</g>
<defs>
<clipPath id="clip0_1225_2121">
<rect width="20" height="20" fill="white" transform="translate(10.9766 10.3984)"/>
</clipPath>
<clipPath id="clip1_1225_2121">
<rect width="20" height="20" fill="white" transform="translate(10.9766 10.3984)"/>
</clipPath>
</defs>
</svg>
